<svg xmlns="http://www.w3.org/2000/svg" width="548.211" height="44.224" viewBox="0 0 548.211 44.224"><g transform="translate(87.136 9378.453)"><g transform="translate(-87.136 -9378.453)"><path d="M5.621,11.926H3.948v4.532H.859V3.645H5.9A5.629,5.629,0,0,1,9.467,4.656a3.426,3.426,0,0,1,1.285,2.857,4.16,4.16,0,0,1-.541,2.215,3.842,3.842,0,0,1-1.694,1.424l2.675,5.174v.132H7.882ZM3.948,9.55H5.9a1.754,1.754,0,0,0,1.325-.463,1.791,1.791,0,0,0,.444-1.293,1.812,1.812,0,0,0-.449-1.3A1.737,1.737,0,0,0,5.9,6.021H3.948Zm16.616,1.47H15.706v3.063h5.738v2.376H12.617V3.645h8.845V6.03H15.706v2.7h4.858ZM33.4,16.459H30.333L25.792,8.485v7.974H22.7V3.645h3.089l4.532,7.974V3.645H33.4Zm1.954,0V3.645h4.128a6.072,6.072,0,0,1,3.054.77,5.413,5.413,0,0,1,2.117,2.174,6.563,6.563,0,0,1,.77,3.146v.59a6.6,6.6,0,0,1-.744,3.155,5.436,5.436,0,0,1-2.095,2.183,5.938,5.938,0,0,1-3.014.8ZM38.448,6.03v8.053h1.074a2.4,2.4,0,0,0,2.042-.946,4.636,4.636,0,0,0,.713-2.812V9.77a4.6,4.6,0,0,0-.713-2.8,2.445,2.445,0,0,0-2.077-.942ZM50.3,16.459h-3.08V3.645H50.3Zm6.2-12.814,2.86,8.915,2.851-8.915h4.066V16.459h-3.1V13.466l.3-6.125-3.1,9.118H58.346L55.24,7.332l.3,6.134v2.992H52.45V3.645ZM71.539,16.459h-3.08V3.645h3.08ZM81.633,11.02H76.775v3.063h5.738v2.376H73.686V3.645h8.845V6.03H76.775v2.7h4.858Zm12.84,5.439H91.4L86.861,8.485v7.974H83.772V3.645h3.089l4.532,7.974V3.645h3.08ZM106.231,6.03h-3.846V16.459H99.3V6.03H95.521V3.645h10.711Zm11.907,4.286a7.556,7.556,0,0,1-.7,3.318,5.139,5.139,0,0,1-1.976,2.222,5.5,5.5,0,0,1-2.917.779,5.579,5.579,0,0,1-2.9-.752,5.13,5.13,0,0,1-1.976-2.152,7.339,7.339,0,0,1-.744-3.212V9.8a7.59,7.59,0,0,1,.691-3.322,5.126,5.126,0,0,1,1.98-2.222,5.862,5.862,0,0,1,5.839-.009,5.218,5.218,0,0,1,1.985,2.2,7.372,7.372,0,0,1,.717,3.278ZM115,9.779a5.388,5.388,0,0,0-.638-2.9,2.047,2.047,0,0,0-1.826-.99q-2.323,0-2.455,3.485l-.009.942a5.542,5.542,0,0,0,.625,2.9,2.044,2.044,0,0,0,1.857,1.012,2.019,2.019,0,0,0,1.8-.994,5.391,5.391,0,0,0,.642-2.86Z" transform="translate(-0.859 10.498)" fill="#12263f"/><path d="M5.379,16.685a4.9,4.9,0,0,1-3.547-1.307,4.513,4.513,0,0,1-1.355-3.4V11.73a5.848,5.848,0,0,1,.541-2.579A3.96,3.96,0,0,1,2.6,7.422a4.769,4.769,0,0,1,2.464-.612A4.122,4.122,0,0,1,8.23,8.056a4.894,4.894,0,0,1,1.162,3.472v1.153H3.5a2.138,2.138,0,0,0,.7,1.259,2.069,2.069,0,0,0,1.391.458,2.666,2.666,0,0,0,2.2-.986l1.355,1.6a3.789,3.789,0,0,1-1.571,1.219A5.309,5.309,0,0,1,5.379,16.685ZM5.044,9.1q-1.3,0-1.549,1.725H6.488V10.6a1.469,1.469,0,0,0-.361-1.1A1.436,1.436,0,0,0,5.044,9.1ZM15.57,13.834a.685.685,0,0,0-.4-.607,6.024,6.024,0,0,0-1.5-.475,6.862,6.862,0,0,1-1.831-.647,3.066,3.066,0,0,1-1.1-.972,2.322,2.322,0,0,1-.378-1.311A2.632,2.632,0,0,1,11.442,7.66a4.459,4.459,0,0,1,2.834-.849,4.94,4.94,0,0,1,3.027.854,2.67,2.67,0,0,1,1.144,2.244H15.473q0-1.144-1.206-1.144a1.2,1.2,0,0,0-.783.26.8.8,0,0,0-.317.647.738.738,0,0,0,.387.642,3.659,3.659,0,0,0,1.237.4,10.685,10.685,0,0,1,1.492.378,2.71,2.71,0,0,1,2.147,2.649,2.494,2.494,0,0,1-1.157,2.121,5.075,5.075,0,0,1-3,.818,5.179,5.179,0,0,1-2.183-.44,3.65,3.65,0,0,1-1.5-1.2,2.71,2.71,0,0,1-.537-1.593h2.772a1.146,1.146,0,0,0,.44.964,1.81,1.81,0,0,0,1.082.3,1.424,1.424,0,0,0,.911-.246A.788.788,0,0,0,15.57,13.834Zm13.087-2.015a5.743,5.743,0,0,1-1,3.542,3.2,3.2,0,0,1-2.7,1.325,2.745,2.745,0,0,1-2.156-.959V20.17H19.838V6.987h2.772l.088.88a2.745,2.745,0,0,1,2.244-1.056,3.228,3.228,0,0,1,2.737,1.3,5.813,5.813,0,0,1,.977,3.569Zm-2.966-.185q0-2.535-1.479-2.535a1.4,1.4,0,0,0-1.408.757V13.6a1.441,1.441,0,0,0,1.426.792q1.417,0,1.461-2.447Zm7.4,4.876H30.118V6.987h2.975ZM29.942,4.522A1.335,1.335,0,0,1,30.4,3.478a1.936,1.936,0,0,1,2.376,0,1.335,1.335,0,0,1,.458,1.045,1.335,1.335,0,0,1-.458,1.045,1.936,1.936,0,0,1-2.376,0A1.335,1.335,0,0,1,29.942,4.522Zm4.629,7.155a6.43,6.43,0,0,1,.475-2.552A3.826,3.826,0,0,1,36.41,7.414a3.6,3.6,0,0,1,2.068-.6,2.859,2.859,0,0,1,2.323,1l.106-.827H43.6v9.162a4.015,4.015,0,0,1-.585,2.187,3.755,3.755,0,0,1-1.694,1.426,6.227,6.227,0,0,1-2.57.5,5.372,5.372,0,0,1-2.029-.4,3.662,3.662,0,0,1-1.5-1.03l1.241-1.743a2.72,2.72,0,0,0,2.183.977,1.766,1.766,0,0,0,1.971-2.024v-.3a2.785,2.785,0,0,1-2.156.942,3.442,3.442,0,0,1-2.816-1.333,5.524,5.524,0,0,1-1.074-3.569Zm2.975.185a3.387,3.387,0,0,0,.44,1.853,1.388,1.388,0,0,0,1.232.682,1.575,1.575,0,0,0,1.4-.642v-4A1.536,1.536,0,0,0,39.235,9.1a1.4,1.4,0,0,0-1.241.708A3.863,3.863,0,0,0,37.546,11.862Zm13.1,4.647a3.349,3.349,0,0,1-.282-.854,2.758,2.758,0,0,1-2.288,1.03,3.379,3.379,0,0,1-2.288-.814,2.591,2.591,0,0,1-.942-2.046,2.663,2.663,0,0,1,1.144-2.341,5.829,5.829,0,0,1,3.327-.792h.915v-.5q0-1.318-1.135-1.318a.928.928,0,0,0-1.056,1.044H45.079a2.659,2.659,0,0,1,1.175-2.242,4.938,4.938,0,0,1,3-.861,4.329,4.329,0,0,1,2.878.889,3.09,3.09,0,0,1,1.083,2.438v4.216a4.317,4.317,0,0,0,.4,2.007v.15Zm-1.857-1.936a1.654,1.654,0,0,0,.92-.238,1.489,1.489,0,0,0,.524-.537V12.276h-.862q-1.549,0-1.549,1.391a.849.849,0,0,0,.273.656A.987.987,0,0,0,48.793,14.573Zm11.045-.739a.685.685,0,0,0-.4-.607,6.024,6.024,0,0,0-1.5-.475,6.862,6.862,0,0,1-1.831-.647,3.066,3.066,0,0,1-1.1-.972,2.322,2.322,0,0,1-.378-1.311A2.632,2.632,0,0,1,55.71,7.66a4.459,4.459,0,0,1,2.834-.849,4.94,4.94,0,0,1,3.027.854,2.67,2.67,0,0,1,1.144,2.244H59.741q0-1.144-1.206-1.144a1.2,1.2,0,0,0-.783.26.8.8,0,0,0-.317.647.738.738,0,0,0,.387.642,3.659,3.659,0,0,0,1.237.4,10.685,10.685,0,0,1,1.492.378A2.71,2.71,0,0,1,62.7,13.746a2.494,2.494,0,0,1-1.157,2.121,5.075,5.075,0,0,1-3,.818,5.179,5.179,0,0,1-2.183-.44,3.65,3.65,0,0,1-1.5-1.2,2.71,2.71,0,0,1-.537-1.593H57.1a1.146,1.146,0,0,0,.44.964,1.81,1.81,0,0,0,1.083.3,1.424,1.424,0,0,0,.911-.246A.788.788,0,0,0,59.838,13.834Z" transform="translate(138.779 -3.07)" fill="#12263f"/><path d="M.43,11.257A6.43,6.43,0,0,1,.9,8.705,3.826,3.826,0,0,1,2.269,6.993a3.6,3.6,0,0,1,2.068-.6,2.859,2.859,0,0,1,2.323,1l.106-.827H9.459v9.162a4.015,4.015,0,0,1-.585,2.187A3.755,3.755,0,0,1,7.18,19.341a6.227,6.227,0,0,1-2.57.5,5.372,5.372,0,0,1-2.029-.4,3.662,3.662,0,0,1-1.5-1.03L2.322,16.67a2.72,2.72,0,0,0,2.183.977,1.766,1.766,0,0,0,1.971-2.024v-.3a2.785,2.785,0,0,1-2.156.942A3.442,3.442,0,0,1,1.5,14.932,5.524,5.524,0,0,1,.43,11.363Zm2.975.185a3.387,3.387,0,0,0,.44,1.853,1.388,1.388,0,0,0,1.232.682,1.575,1.575,0,0,0,1.4-.642v-4a1.536,1.536,0,0,0-1.382-.651,1.4,1.4,0,0,0-1.241.708A3.863,3.863,0,0,0,3.4,11.442ZM16.9,9.251l-.977-.07a1.755,1.755,0,0,0-1.8.88v6.029H11.167V6.567h2.781l.1,1.223a2.3,2.3,0,0,1,2.086-1.4,2.892,2.892,0,0,1,.827.106Zm6.169,6.838a3.349,3.349,0,0,1-.282-.854,2.758,2.758,0,0,1-2.288,1.03,3.379,3.379,0,0,1-2.288-.814,2.591,2.591,0,0,1-.942-2.046,2.663,2.663,0,0,1,1.144-2.341,5.829,5.829,0,0,1,3.327-.792h.915v-.5q0-1.318-1.135-1.318a.928.928,0,0,0-1.056,1.044H17.5a2.659,2.659,0,0,1,1.175-2.242,4.938,4.938,0,0,1,3-.861,4.329,4.329,0,0,1,2.878.889,3.09,3.09,0,0,1,1.083,2.438v4.216a4.317,4.317,0,0,0,.4,2.007v.15Zm-1.857-1.936a1.654,1.654,0,0,0,.92-.238,1.489,1.489,0,0,0,.524-.537V11.856H21.8q-1.549,0-1.549,1.391a.849.849,0,0,0,.273.656A.987.987,0,0,0,21.217,14.153ZM30,6.567l.1,1.118a3.229,3.229,0,0,1,2.719-1.294,2.717,2.717,0,0,1,2.222.889A4.232,4.232,0,0,1,35.8,9.955v6.134H32.825V10.078a1.607,1.607,0,0,0-.29-1.06,1.344,1.344,0,0,0-1.056-.339,1.414,1.414,0,0,0-1.294.686v6.724H27.219V6.567Zm7.067,4.673A5.62,5.62,0,0,1,37.622,8.7a3.965,3.965,0,0,1,1.593-1.712,4.8,4.8,0,0,1,2.438-.6,4.378,4.378,0,0,1,3.371,1.325,5.082,5.082,0,0,1,1.232,3.6v.106a4.931,4.931,0,0,1-1.237,3.534,4.39,4.39,0,0,1-3.349,1.307,4.44,4.44,0,0,1-3.265-1.219,4.767,4.767,0,0,1-1.329-3.3Zm2.966.185a3.543,3.543,0,0,0,.414,1.936,1.378,1.378,0,0,0,1.223.616q1.584,0,1.619-2.438v-.3q0-2.561-1.637-2.561-1.487,0-1.611,2.209Zm12.515,1.989a.685.685,0,0,0-.4-.607,6.024,6.024,0,0,0-1.5-.475,6.862,6.862,0,0,1-1.831-.647,3.066,3.066,0,0,1-1.1-.972A2.322,2.322,0,0,1,47.338,9.4,2.632,2.632,0,0,1,48.42,7.24a4.459,4.459,0,0,1,2.834-.849,4.941,4.941,0,0,1,3.027.854,2.67,2.67,0,0,1,1.144,2.244H52.451q0-1.144-1.206-1.144a1.2,1.2,0,0,0-.783.26.8.8,0,0,0-.317.647.738.738,0,0,0,.387.642,3.659,3.659,0,0,0,1.237.4,10.685,10.685,0,0,1,1.492.378,2.71,2.71,0,0,1,2.147,2.649,2.494,2.494,0,0,1-1.157,2.121,5.075,5.075,0,0,1-3,.818,5.179,5.179,0,0,1-2.183-.44,3.65,3.65,0,0,1-1.5-1.2,2.71,2.71,0,0,1-.537-1.593h2.772a1.146,1.146,0,0,0,.44.964,1.81,1.81,0,0,0,1.082.3,1.424,1.424,0,0,0,.911-.246A.788.788,0,0,0,52.548,13.414Z" transform="translate(222.134 -2.65)" fill="#12263f"/><path d="M5.379,16.685a4.9,4.9,0,0,1-3.547-1.307,4.513,4.513,0,0,1-1.355-3.4V11.73a5.848,5.848,0,0,1,.541-2.579A3.96,3.96,0,0,1,2.6,7.422a4.769,4.769,0,0,1,2.464-.612A4.122,4.122,0,0,1,8.23,8.056a4.894,4.894,0,0,1,1.162,3.472v1.153H3.5a2.138,2.138,0,0,0,.7,1.259,2.069,2.069,0,0,0,1.391.458,2.666,2.666,0,0,0,2.2-.986l1.355,1.6a3.789,3.789,0,0,1-1.571,1.219A5.309,5.309,0,0,1,5.379,16.685ZM5.044,9.1q-1.3,0-1.549,1.725H6.488V10.6a1.469,1.469,0,0,0-.361-1.1A1.436,1.436,0,0,0,5.044,9.1ZM15.57,13.834a.685.685,0,0,0-.4-.607,6.024,6.024,0,0,0-1.5-.475,6.862,6.862,0,0,1-1.831-.647,3.066,3.066,0,0,1-1.1-.972,2.322,2.322,0,0,1-.378-1.311A2.632,2.632,0,0,1,11.442,7.66a4.459,4.459,0,0,1,2.834-.849,4.94,4.94,0,0,1,3.027.854,2.67,2.67,0,0,1,1.144,2.244H15.473q0-1.144-1.206-1.144a1.2,1.2,0,0,0-.783.26.8.8,0,0,0-.317.647.738.738,0,0,0,.387.642,3.659,3.659,0,0,0,1.237.4,10.685,10.685,0,0,1,1.492.378,2.71,2.71,0,0,1,2.147,2.649,2.494,2.494,0,0,1-1.157,2.121,5.075,5.075,0,0,1-3,.818,5.179,5.179,0,0,1-2.183-.44,3.65,3.65,0,0,1-1.5-1.2,2.71,2.71,0,0,1-.537-1.593h2.772a1.146,1.146,0,0,0,.44.964,1.81,1.81,0,0,0,1.082.3,1.424,1.424,0,0,0,.911-.246A.788.788,0,0,0,15.57,13.834Zm13.087-2.015a5.743,5.743,0,0,1-1,3.542,3.2,3.2,0,0,1-2.7,1.325,2.745,2.745,0,0,1-2.156-.959V20.17H19.838V6.987h2.772l.088.88a2.745,2.745,0,0,1,2.244-1.056,3.228,3.228,0,0,1,2.737,1.3,5.813,5.813,0,0,1,.977,3.569Zm-2.966-.185q0-2.535-1.479-2.535a1.4,1.4,0,0,0-1.408.757V13.6a1.441,1.441,0,0,0,1.426.792q1.417,0,1.461-2.447Zm7.4,4.876H30.118V6.987h2.975ZM29.942,4.522A1.335,1.335,0,0,1,30.4,3.478a1.936,1.936,0,0,1,2.376,0,1.335,1.335,0,0,1,.458,1.045,1.335,1.335,0,0,1-.458,1.045,1.936,1.936,0,0,1-2.376,0A1.335,1.335,0,0,1,29.942,4.522Zm4.629,7.155a6.43,6.43,0,0,1,.475-2.552A3.826,3.826,0,0,1,36.41,7.414a3.6,3.6,0,0,1,2.068-.6,2.859,2.859,0,0,1,2.323,1l.106-.827H43.6v9.162a4.015,4.015,0,0,1-.585,2.187,3.755,3.755,0,0,1-1.694,1.426,6.227,6.227,0,0,1-2.57.5,5.372,5.372,0,0,1-2.029-.4,3.662,3.662,0,0,1-1.5-1.03l1.241-1.743a2.72,2.72,0,0,0,2.183.977,1.766,1.766,0,0,0,1.971-2.024v-.3a2.785,2.785,0,0,1-2.156.942,3.442,3.442,0,0,1-2.816-1.333,5.524,5.524,0,0,1-1.074-3.569Zm2.975.185a3.387,3.387,0,0,0,.44,1.853,1.388,1.388,0,0,0,1.232.682,1.575,1.575,0,0,0,1.4-.642v-4A1.536,1.536,0,0,0,39.235,9.1a1.4,1.4,0,0,0-1.241.708A3.863,3.863,0,0,0,37.546,11.862Zm13.1,4.647a3.349,3.349,0,0,1-.282-.854,2.758,2.758,0,0,1-2.288,1.03,3.379,3.379,0,0,1-2.288-.814,2.591,2.591,0,0,1-.942-2.046,2.663,2.663,0,0,1,1.144-2.341,5.829,5.829,0,0,1,3.327-.792h.915v-.5q0-1.318-1.135-1.318a.928.928,0,0,0-1.056,1.044H45.079a2.659,2.659,0,0,1,1.175-2.242,4.938,4.938,0,0,1,3-.861,4.329,4.329,0,0,1,2.878.889,3.09,3.09,0,0,1,1.083,2.438v4.216a4.317,4.317,0,0,0,.4,2.007v.15Zm-1.857-1.936a1.654,1.654,0,0,0,.92-.238,1.489,1.489,0,0,0,.524-.537V12.276h-.862q-1.549,0-1.549,1.391a.849.849,0,0,0,.273.656A.987.987,0,0,0,48.793,14.573Z" transform="translate(222.14 23.966)" fill="#12263f"/><path d="M9.576,11.768a5.743,5.743,0,0,1-1,3.542,3.2,3.2,0,0,1-2.7,1.325,2.745,2.745,0,0,1-2.156-.959V20.12H.758V6.936H3.53l.088.88A2.745,2.745,0,0,1,5.862,6.76,3.228,3.228,0,0,1,8.6,8.058a5.813,5.813,0,0,1,.977,3.569ZM6.61,11.583q0-2.535-1.479-2.535a1.4,1.4,0,0,0-1.408.757v3.749a1.441,1.441,0,0,0,1.426.792q1.417,0,1.461-2.447Zm8.88,5.052a4.9,4.9,0,0,1-3.547-1.307,4.513,4.513,0,0,1-1.355-3.4V11.68A5.848,5.848,0,0,1,11.13,9.1a3.96,3.96,0,0,1,1.58-1.729,4.769,4.769,0,0,1,2.464-.612,4.122,4.122,0,0,1,3.168,1.245A4.894,4.894,0,0,1,19.5,11.477V12.63h-5.9a2.138,2.138,0,0,0,.7,1.259,2.069,2.069,0,0,0,1.391.458,2.666,2.666,0,0,0,2.2-.986l1.355,1.6a3.789,3.789,0,0,1-1.571,1.219A5.309,5.309,0,0,1,15.49,16.635Zm-.334-7.586q-1.3,0-1.549,1.725H16.6v-.229a1.469,1.469,0,0,0-.361-1.1A1.436,1.436,0,0,0,15.156,9.048Zm10.526,4.735a.685.685,0,0,0-.4-.607,6.024,6.024,0,0,0-1.5-.475,6.863,6.863,0,0,1-1.831-.647,3.066,3.066,0,0,1-1.1-.972,2.322,2.322,0,0,1-.378-1.311A2.632,2.632,0,0,1,21.554,7.61a4.459,4.459,0,0,1,2.834-.849,4.941,4.941,0,0,1,3.027.854A2.67,2.67,0,0,1,28.56,9.858H25.585q0-1.144-1.206-1.144a1.2,1.2,0,0,0-.783.26.8.8,0,0,0-.317.647.738.738,0,0,0,.387.642,3.659,3.659,0,0,0,1.237.4,10.685,10.685,0,0,1,1.492.378A2.71,2.71,0,0,1,28.542,13.7a2.494,2.494,0,0,1-1.157,2.121,5.075,5.075,0,0,1-3,.818,5.179,5.179,0,0,1-2.183-.44,3.65,3.65,0,0,1-1.5-1.2,2.71,2.71,0,0,1-.537-1.593h2.772a1.146,1.146,0,0,0,.44.964,1.81,1.81,0,0,0,1.082.3,1.424,1.424,0,0,0,.911-.246A.788.788,0,0,0,25.682,13.783Zm3.872-2.174a5.62,5.62,0,0,1,.554-2.539A3.965,3.965,0,0,1,31.7,7.359a4.8,4.8,0,0,1,2.438-.6A4.378,4.378,0,0,1,37.51,8.085a5.082,5.082,0,0,1,1.232,3.6v.106a4.931,4.931,0,0,1-1.237,3.534,4.39,4.39,0,0,1-3.349,1.307,4.44,4.44,0,0,1-3.265-1.219,4.767,4.767,0,0,1-1.329-3.3Zm2.966.185a3.543,3.543,0,0,0,.414,1.936,1.378,1.378,0,0,0,1.223.616q1.584,0,1.619-2.438v-.3q0-2.561-1.637-2.561-1.487,0-1.611,2.209Zm18.543,4.664H48.089V6.989l-2.922.854V5.59L50.79,3.645h.273Zm12.761-5.236a6.119,6.119,0,0,1-1.166,4,4.557,4.557,0,0,1-6.6-.009,6.109,6.109,0,0,1-1.171-4V8.881a6.118,6.118,0,0,1,1.166-4,4.557,4.557,0,0,1,6.6.009,6.124,6.124,0,0,1,1.171,4ZM60.859,8.5A4.57,4.57,0,0,0,60.5,6.439a1.206,1.206,0,0,0-1.144-.682,1.177,1.177,0,0,0-1.113.634,4.305,4.305,0,0,0-.374,1.919v3.274a4.6,4.6,0,0,0,.361,2.1,1.211,1.211,0,0,0,1.144.664,1.194,1.194,0,0,0,1.118-.647,4.4,4.4,0,0,0,.37-2.029Zm13.4,2.719a6.119,6.119,0,0,1-1.166,4,4.557,4.557,0,0,1-6.6-.009,6.109,6.109,0,0,1-1.171-4V8.881a6.119,6.119,0,0,1,1.166-4,4.557,4.557,0,0,1,6.6.009,6.124,6.124,0,0,1,1.171,4ZM71.3,8.5a4.57,4.57,0,0,0-.361-2.064,1.206,1.206,0,0,0-1.144-.682,1.177,1.177,0,0,0-1.113.634A4.3,4.3,0,0,0,68.3,8.309v3.274a4.6,4.6,0,0,0,.361,2.1,1.211,1.211,0,0,0,1.144.664,1.194,1.194,0,0,0,1.118-.647,4.4,4.4,0,0,0,.37-2.029Zm13.4,2.719a6.119,6.119,0,0,1-1.166,4,4.557,4.557,0,0,1-6.6-.009,6.109,6.109,0,0,1-1.171-4V8.881a6.119,6.119,0,0,1,1.166-4,4.557,4.557,0,0,1,6.6.009,6.124,6.124,0,0,1,1.171,4ZM81.734,8.5a4.57,4.57,0,0,0-.361-2.064,1.206,1.206,0,0,0-1.144-.682,1.178,1.178,0,0,0-1.113.634,4.306,4.306,0,0,0-.374,1.919v3.274a4.6,4.6,0,0,0,.361,2.1,1.211,1.211,0,0,0,1.144.664,1.194,1.194,0,0,0,1.118-.647,4.4,4.4,0,0,0,.37-2.029Zm8.7,3.124A6.43,6.43,0,0,1,90.9,9.075a3.826,3.826,0,0,1,1.364-1.712,3.6,3.6,0,0,1,2.068-.6,2.859,2.859,0,0,1,2.323,1l.106-.827h2.693V16.1a4.015,4.015,0,0,1-.585,2.187,3.755,3.755,0,0,1-1.694,1.426,6.227,6.227,0,0,1-2.57.5,5.372,5.372,0,0,1-2.029-.4,3.662,3.662,0,0,1-1.5-1.03l1.241-1.743a2.72,2.72,0,0,0,2.183.977,1.766,1.766,0,0,0,1.971-2.024v-.3a2.785,2.785,0,0,1-2.156.942A3.442,3.442,0,0,1,91.5,15.3a5.524,5.524,0,0,1-1.074-3.569Zm2.975.185a3.388,3.388,0,0,0,.44,1.853,1.388,1.388,0,0,0,1.232.682,1.575,1.575,0,0,0,1.4-.642v-4a1.536,1.536,0,0,0-1.382-.651,1.4,1.4,0,0,0-1.241.708A3.863,3.863,0,0,0,93.4,11.812Zm13.5-2.191-.977-.07a1.755,1.755,0,0,0-1.8.88v6.029h-2.966V6.936h2.781l.1,1.223a2.3,2.3,0,0,1,2.086-1.4,2.892,2.892,0,0,1,.827.106Zm6.169,6.838a3.349,3.349,0,0,1-.282-.854,2.758,2.758,0,0,1-2.288,1.03,3.379,3.379,0,0,1-2.288-.814,2.591,2.591,0,0,1-.942-2.046,2.663,2.663,0,0,1,1.144-2.341,5.829,5.829,0,0,1,3.327-.792h.915v-.5q0-1.318-1.135-1.318a.928.928,0,0,0-1.056,1.044H107.5a2.659,2.659,0,0,1,1.175-2.242,4.938,4.938,0,0,1,3-.861,4.329,4.329,0,0,1,2.878.889,3.091,3.091,0,0,1,1.082,2.438V14.3a4.317,4.317,0,0,0,.4,2.007v.15Zm-1.857-1.936a1.654,1.654,0,0,0,.92-.238,1.489,1.489,0,0,0,.524-.537V12.226H111.8q-1.549,0-1.549,1.391a.849.849,0,0,0,.273.656A.987.987,0,0,0,111.217,14.523ZM120,6.936l.1,1.118a3.229,3.229,0,0,1,2.719-1.294,2.717,2.717,0,0,1,2.222.889,4.232,4.232,0,0,1,.761,2.675v6.134h-2.975V10.448a1.607,1.607,0,0,0-.29-1.06,1.344,1.344,0,0,0-1.056-.339,1.414,1.414,0,0,0-1.294.686v6.724h-2.966V6.936Zm7.067,4.673a5.62,5.62,0,0,1,.554-2.539,3.965,3.965,0,0,1,1.593-1.712,4.8,4.8,0,0,1,2.438-.6,4.378,4.378,0,0,1,3.371,1.325,5.082,5.082,0,0,1,1.232,3.6v.106a4.931,4.931,0,0,1-1.237,3.534,4.39,4.39,0,0,1-3.349,1.307,4.44,4.44,0,0,1-3.265-1.219,4.768,4.768,0,0,1-1.329-3.3Zm2.966.185a3.543,3.543,0,0,0,.414,1.936,1.378,1.378,0,0,0,1.223.616q1.584,0,1.619-2.438v-.3q0-2.561-1.637-2.561-1.487,0-1.611,2.209Zm12.515,1.989a.685.685,0,0,0-.4-.607,6.024,6.024,0,0,0-1.5-.475,6.862,6.862,0,0,1-1.831-.647,3.066,3.066,0,0,1-1.1-.972,2.322,2.322,0,0,1-.378-1.311A2.632,2.632,0,0,1,138.42,7.61a4.459,4.459,0,0,1,2.834-.849,4.941,4.941,0,0,1,3.027.854,2.67,2.67,0,0,1,1.144,2.244h-2.975q0-1.144-1.206-1.144a1.2,1.2,0,0,0-.783.26.8.8,0,0,0-.317.647.738.738,0,0,0,.387.642,3.659,3.659,0,0,0,1.237.4,10.684,10.684,0,0,1,1.492.378,2.71,2.71,0,0,1,2.147,2.649,2.494,2.494,0,0,1-1.157,2.121,5.075,5.075,0,0,1-3,.818,5.179,5.179,0,0,1-2.183-.44,3.65,3.65,0,0,1-1.5-1.2,2.71,2.71,0,0,1-.537-1.593h2.772a1.146,1.146,0,0,0,.44.964,1.81,1.81,0,0,0,1.082.3,1.424,1.424,0,0,0,.911-.246A.788.788,0,0,0,142.548,13.783Z" transform="translate(296.525 10.498)" fill="#12263f"/><path d="M4.807,14.427a1.319,1.319,0,0,0,.968-.339,1.242,1.242,0,0,0,.334-.946H8.89a3.292,3.292,0,0,1-1.122,2.57,4.174,4.174,0,0,1-2.891,1,4.226,4.226,0,0,1-3.274-1.3A5.132,5.132,0,0,1,.406,11.8v-.123A5.8,5.8,0,0,1,.939,9.133a3.877,3.877,0,0,1,1.536-1.7A4.579,4.579,0,0,1,4.851,6.84,4.121,4.121,0,0,1,7.8,7.87,3.652,3.652,0,0,1,8.89,10.66H6.109a1.628,1.628,0,0,0-.361-1.135,1.246,1.246,0,0,0-.968-.4q-1.153,0-1.347,1.47a10.371,10.371,0,0,0-.062,1.285,4.073,4.073,0,0,0,.343,1.989A1.188,1.188,0,0,0,4.807,14.427ZM9.77,11.69a5.62,5.62,0,0,1,.554-2.539,3.965,3.965,0,0,1,1.593-1.712,4.8,4.8,0,0,1,2.438-.6,4.378,4.378,0,0,1,3.371,1.325,5.083,5.083,0,0,1,1.232,3.6v.106a4.931,4.931,0,0,1-1.237,3.534,4.39,4.39,0,0,1-3.349,1.307A4.44,4.44,0,0,1,11.108,15.5a4.767,4.767,0,0,1-1.329-3.3Zm2.966.185a3.543,3.543,0,0,0,.414,1.936,1.378,1.378,0,0,0,1.223.616q1.584,0,1.619-2.438v-.3q0-2.561-1.637-2.561-1.487,0-1.611,2.209Zm12.136,4.84a4.9,4.9,0,0,1-3.547-1.307,4.513,4.513,0,0,1-1.355-3.4V11.76a5.848,5.848,0,0,1,.541-2.579,3.96,3.96,0,0,1,1.58-1.729,4.769,4.769,0,0,1,2.464-.612,4.122,4.122,0,0,1,3.168,1.245,4.894,4.894,0,0,1,1.162,3.472V12.71h-5.9a2.138,2.138,0,0,0,.7,1.259,2.069,2.069,0,0,0,1.391.458,2.666,2.666,0,0,0,2.2-.986l1.355,1.6a3.789,3.789,0,0,1-1.571,1.219A5.309,5.309,0,0,1,24.872,16.715Zm-.334-7.586q-1.3,0-1.549,1.725h2.992v-.229a1.469,1.469,0,0,0-.361-1.1A1.436,1.436,0,0,0,24.538,9.129Zm6.231,7.41V9.076H29.387V7.016h1.382V6.7a3.636,3.636,0,0,1,1.25-2.913,4.993,4.993,0,0,1,3.248-.95,11.524,11.524,0,0,1,3.1.51l-.4,2.341-.493-.132A7.842,7.842,0,0,0,35.442,5.3q-1.7,0-1.7,1.549v.167h1.866V9.076H33.744v7.463Zm8.959,0H36.745V7.016h2.983Zm5.835-2.112a1.319,1.319,0,0,0,.968-.339,1.243,1.243,0,0,0,.334-.946h2.781a3.292,3.292,0,0,1-1.122,2.57,4.174,4.174,0,0,1-2.891,1,4.226,4.226,0,0,1-3.274-1.3,5.132,5.132,0,0,1-1.2-3.608v-.123A5.8,5.8,0,0,1,41.7,9.133a3.877,3.877,0,0,1,1.536-1.7,4.579,4.579,0,0,1,2.376-.594,4.121,4.121,0,0,1,2.948,1.03,3.652,3.652,0,0,1,1.091,2.79H46.866A1.628,1.628,0,0,0,46.5,9.525a1.246,1.246,0,0,0-.968-.4q-1.153,0-1.347,1.47a10.369,10.369,0,0,0-.062,1.285,4.073,4.073,0,0,0,.343,1.989A1.188,1.188,0,0,0,45.563,14.427Zm8.466,2.112H51.055V7.016H54.03ZM50.879,4.552a1.335,1.335,0,0,1,.458-1.045,1.936,1.936,0,0,1,2.376,0,1.336,1.336,0,0,1,.458,1.045A1.336,1.336,0,0,1,53.713,5.6a1.936,1.936,0,0,1-2.376,0A1.335,1.335,0,0,1,50.879,4.552Zm9.584,12.163a4.9,4.9,0,0,1-3.547-1.307,4.513,4.513,0,0,1-1.355-3.4V11.76A5.848,5.848,0,0,1,56.1,9.181a3.96,3.96,0,0,1,1.58-1.729,4.769,4.769,0,0,1,2.464-.612,4.122,4.122,0,0,1,3.168,1.245,4.894,4.894,0,0,1,1.162,3.472V12.71h-5.9a2.138,2.138,0,0,0,.7,1.259,2.069,2.069,0,0,0,1.391.458,2.666,2.666,0,0,0,2.2-.986l1.355,1.6a3.789,3.789,0,0,1-1.571,1.219A5.309,5.309,0,0,1,60.463,16.715Zm-.334-7.586q-1.3,0-1.549,1.725h2.992v-.229a1.469,1.469,0,0,0-.361-1.1A1.436,1.436,0,0,0,60.129,9.129Zm8.264-2.112.1,1.118A3.229,3.229,0,0,1,71.209,6.84a2.717,2.717,0,0,1,2.222.889,4.232,4.232,0,0,1,.761,2.675v6.134H71.218V10.528a1.607,1.607,0,0,0-.29-1.06,1.344,1.344,0,0,0-1.056-.339,1.414,1.414,0,0,0-1.294.686v6.724H65.611V7.016Zm10.9-2.367V7.016h1.567V9.076H79.288v4.356a1.112,1.112,0,0,0,.194.748,1.039,1.039,0,0,0,.766.211,4.351,4.351,0,0,0,.739-.053V16.46a5.473,5.473,0,0,1-1.672.255,3.107,3.107,0,0,1-2.262-.722,2.958,2.958,0,0,1-.73-2.191V9.076H75.107V7.016h1.215V4.649Zm7.34,12.066a4.9,4.9,0,0,1-3.547-1.307,4.513,4.513,0,0,1-1.355-3.4V11.76a5.848,5.848,0,0,1,.541-2.579,3.96,3.96,0,0,1,1.58-1.729,4.769,4.769,0,0,1,2.464-.612,4.122,4.122,0,0,1,3.168,1.245,4.894,4.894,0,0,1,1.162,3.472V12.71h-5.9a2.138,2.138,0,0,0,.7,1.259,2.069,2.069,0,0,0,1.391.458,2.666,2.666,0,0,0,2.2-.986l1.355,1.6a3.789,3.789,0,0,1-1.571,1.219A5.309,5.309,0,0,1,86.628,16.715Zm-.334-7.586q-1.3,0-1.549,1.725h2.992v-.229a1.469,1.469,0,0,0-.361-1.1A1.436,1.436,0,0,0,86.293,9.129Z" transform="translate(457.57 10.418)" fill="#12263f"/><text transform="translate(125.136 11.453)" fill="#12263f" font-size="16" font-family="Roboto-Black, Roboto" font-weight="800"><tspan x="0" y="17">=</tspan></text><path d="M3.1-7.379l.085.978a2.865,2.865,0,0,1,2.38-1.132A2.109,2.109,0,0,1,7.694-6.278a2.773,2.773,0,0,1,2.449-1.255q2.534,0,2.6,3.065V.953h-2.6v-5.26a1.588,1.588,0,0,0-.216-.932.918.918,0,0,0-.785-.293,1.23,1.23,0,0,0-1.147.685L8-4.738V.953H5.4V-4.291a1.67,1.67,0,0,0-.208-.947A.915.915,0,0,0,4.4-5.531a1.245,1.245,0,0,0-1.14.685v5.8H.663V-7.379Z" transform="translate(160.206 38.396)" fill="#12263f"/><path d="M7.25,1.095H.544V-.357L3.633-3.6A3.687,3.687,0,0,0,4.775-5.671,1.437,1.437,0,0,0,4.5-6.615a.966.966,0,0,0-.785-.323.978.978,0,0,0-.825.432,1.777,1.777,0,0,0-.317,1.079H.346A3.156,3.156,0,0,1,.788-7.06,3.1,3.1,0,0,1,2.016-8.232a3.647,3.647,0,0,1,1.756-.422,3.588,3.588,0,0,1,2.4.719,2.569,2.569,0,0,1,.842,2.066A3,3,0,0,1,6.8-4.763a4.849,4.849,0,0,1-.657,1.129A16.544,16.544,0,0,1,4.709-2.054L3.468-.621H7.25Z" transform="translate(173.684 32.621)" fill="#12263f"/><path d="M57.452.627H0V-.5H57.452Z" transform="translate(142.661 21.825)" fill="#12263f"/><path d="M57.452.627H0V-.5H57.452Z" transform="translate(221.516 21.825)" fill="#12263f"/><path d="M8.658,9.455-.354.443l.8-.8L9.455,8.658Z" transform="translate(206.827 17.336)" fill="#12263f"/><path d="M.443,9.455l-.8-.8L8.658-.354l.8.8Z" transform="translate(206.827 17.336)" fill="#12263f"/><g transform="translate(280.823 16.984)"><path d="M8.658,9.455-.354.443l.8-.8L9.455,8.658Z" transform="translate(0.354 0.354)" fill="#12263f"/><path d="M.443,9.455l-.8-.8L8.658-.354l.8.8Z" transform="translate(0.354 0.354)" fill="#12263f"/></g><g transform="translate(445.292 16.984)"><path d="M8.658,9.455-.354.443l.8-.8L9.455,8.658Z" transform="translate(0.354 0.354)" fill="#12263f"/><path d="M.443,9.455l-.8-.8L8.658-.354l.8.8Z" transform="translate(0.354 0.354)" fill="#12263f"/></g></g></g></svg>