<svg xmlns="http://www.w3.org/2000/svg" xmlns:xlink="http://www.w3.org/1999/xlink" width="451.826" height="264.651" viewBox="0 0 451.826 264.651"><defs><clipPath id="a"><rect width="311.799" height="251.617" fill="none"/></clipPath><clipPath id="c"><rect width="192.762" height="128.184" fill="none"/></clipPath></defs><g transform="translate(-968.174 -3583)"><rect width="451.826" height="264.651" transform="translate(968.174 3583)" fill="#e8e8e8" opacity="0.949"/><g transform="translate(1055.188 3596.034)"><g clip-path="url(#a)"><g clip-path="url(#a)"><g transform="translate(0 29.05)" opacity="0.6"><g clip-path="url(#c)"><path d="M174.123,176.8H18.64A18.64,18.64,0,0,1,0,158.161V67.255A18.64,18.64,0,0,1,18.64,48.616H174.123a18.639,18.639,0,0,1,18.639,18.639v90.906A18.64,18.64,0,0,1,174.123,176.8" transform="translate(0 -48.616)" fill="#f8f9ea"/></g></g><path d="M80.728,99.779A27.724,27.724,0,1,1,58.092,72.515c-3.462,12.616-8.056,29.324-8.364,30.366.571-.9,17.439-8.461,28.957-13.558a27.567,27.567,0,0,1,2.044,10.456" transform="translate(-10.165 -28.994)" fill="#a31f3e"/><path d="M98.689,84.823C88.517,89.305,71.667,96.816,71.128,97.666c.292-.99,4.953-17.932,8.075-29.288A30.471,30.471,0,0,1,98.689,84.823" transform="translate(-28.626 -27.519)" fill="#ff7f2b"/><path d="M229.949,61.114a2.3,2.3,0,1,1,2.3,2.3,2.3,2.3,0,0,1-2.3-2.3" transform="translate(-92.544 -23.668)" fill="#a5111f"/><path d="M249.968,61.114a2.3,2.3,0,1,1,2.3,2.3,2.3,2.3,0,0,1-2.3-2.3" transform="translate(-100.601 -23.668)" fill="#a5111f"/><path d="M270.63,61.114a2.3,2.3,0,1,1,2.3,2.3,2.3,2.3,0,0,1-2.3-2.3" transform="translate(-108.916 -23.668)" fill="#ff912b"/><path d="M74.147,235.655H20.481V218.578H74.147ZM21.139,235H73.489v-15.76H21.139Z" transform="translate(-8.243 -87.968)" fill="#a5304d"/><rect width="20.759" height="1.353" transform="translate(16.127 135.2)" fill="#a5304d"/><rect width="14.73" height="1.353" transform="translate(39.072 135.2)" fill="#a5304d"/><rect width="11.457" height="1.353" transform="translate(16.127 139.065)" fill="#a5304d"/><rect width="14.73" height="1.353" transform="translate(29.521 139.065)" fill="#a5304d"/><rect width="14.73" height="1.353" transform="translate(45.776 139.065)" fill="#a5304d"/><path d="M205.142,227.033H178.573v-8.455h26.569Zm-26.243-.326h25.917v-7.8H178.9Z" transform="translate(-71.867 -87.968)" fill="#a5304d"/><rect width="10.277" height="0.67" transform="translate(108.631 132.883)" fill="#a5304d"/><rect width="7.292" height="0.67" transform="translate(119.99 132.883)" fill="#a5304d"/><rect width="5.672" height="0.67" transform="translate(108.631 134.796)" fill="#a5304d"/><rect width="7.292" height="0.67" transform="translate(115.262 134.796)" fill="#a5304d"/><rect width="7.292" height="0.67" transform="translate(123.31 134.796)" fill="#a5304d"/><path d="M258.162,227.033H231.593v-8.455h26.569Zm-26.243-.326h25.917v-7.8H231.919Z" transform="translate(-93.205 -87.968)" fill="#a5304d"/><rect width="10.277" height="0.67" transform="translate(140.313 132.883)" fill="#a5304d"/><rect width="7.292" height="0.67" transform="translate(151.672 132.883)" fill="#a5304d"/><rect width="5.672" height="0.67" transform="translate(140.313 134.796)" fill="#a5304d"/><rect width="7.292" height="0.67" transform="translate(146.944 134.796)" fill="#a5304d"/><rect width="7.292" height="0.67" transform="translate(154.992 134.796)" fill="#a5304d"/><path d="M205.142,164.1H178.573v-8.455h26.569Zm-26.243-.326h25.917v-7.8H178.9Z" transform="translate(-71.867 -62.642)" fill="#a5304d"/><rect width="10.277" height="0.67" transform="translate(108.631 95.279)" fill="#a5304d"/><rect width="7.292" height="0.67" transform="translate(119.99 95.279)" fill="#a5304d"/><rect width="5.672" height="0.67" transform="translate(108.631 97.193)" fill="#a5304d"/><rect width="7.292" height="0.67" transform="translate(115.262 97.193)" fill="#a5304d"/><rect width="7.292" height="0.67" transform="translate(123.31 97.193)" fill="#a5304d"/><path d="M258.162,164.1H231.593v-8.455h26.569Zm-26.243-.326h25.917v-7.8H231.919Z" transform="translate(-93.205 -62.642)" fill="#a5304d"/><rect width="10.277" height="0.67" transform="translate(140.313 95.279)" fill="#a5304d"/><rect width="7.292" height="0.67" transform="translate(151.672 95.279)" fill="#a5304d"/><rect width="5.672" height="0.67" transform="translate(140.313 97.193)" fill="#a5304d"/><rect width="7.292" height="0.67" transform="translate(146.944 97.193)" fill="#a5304d"/><rect width="7.292" height="0.67" transform="translate(154.992 97.193)" fill="#a5304d"/><path d="M205.142,109.324H178.573v-8.455h26.569ZM178.9,109h25.917v-7.8H178.9Z" transform="translate(-71.867 -40.595)" fill="#a5304d"/><rect width="10.277" height="0.67" transform="translate(108.631 62.546)" fill="#a5304d"/><rect width="7.292" height="0.67" transform="translate(119.99 62.546)" fill="#a5304d"/><rect width="5.672" height="0.67" transform="translate(108.631 64.46)" fill="#a5304d"/><rect width="7.292" height="0.67" transform="translate(115.262 64.46)" fill="#a5304d"/><rect width="7.292" height="0.67" transform="translate(123.31 64.46)" fill="#a5304d"/><path d="M258.162,109.324H231.593v-8.455h26.569ZM231.919,109h25.917v-7.8H231.919Z" transform="translate(-93.205 -40.595)" fill="#a5304d"/><rect width="10.277" height="0.67" transform="translate(140.313 62.546)" fill="#a5304d"/><rect width="7.292" height="0.67" transform="translate(151.672 62.546)" fill="#a5304d"/><rect width="5.672" height="0.67" transform="translate(140.313 64.46)" fill="#a5304d"/><rect width="7.292" height="0.67" transform="translate(146.944 64.46)" fill="#a5304d"/><rect width="7.292" height="0.67" transform="translate(154.992 64.46)" fill="#a5304d"/><path d="M149.282,90.007a3.006,3.006,0,1,1,3.006,3.006,3.006,3.006,0,0,1-3.006-3.006" transform="translate(-60.079 -35.014)" fill="#ff7f2b"/><path d="M154,80.248h0a.63.63,0,0,1-.628-.628V74.3a.628.628,0,1,1,1.256,0V79.62a.63.63,0,0,1-.628.628" transform="translate(-61.725 -29.651)" fill="#ff7f2b"/><path d="M154,106.286h0a.63.63,0,0,1-.628-.628v-5.317a.628.628,0,0,1,1.256,0v5.317a.63.63,0,0,1-.628.628" transform="translate(-61.726 -40.13)" fill="#ff7f2b"/><path d="M160.291,96.531l.172-.236a.483.483,0,0,1,.673-.106l4.532,3.307a.484.484,0,0,1,.105.673l-.173.236a.483.483,0,0,1-.673.105L160.4,97.2a.484.484,0,0,1-.105-.673" transform="translate(-64.473 -38.675)" fill="#ff7f2b"/><path d="M139.257,81.184l.172-.236a.483.483,0,0,1,.673-.106l4.532,3.307a.483.483,0,0,1,.105.673l-.173.237a.483.483,0,0,1-.673.105l-4.531-3.306a.484.484,0,0,1-.105-.673" transform="translate(-56.008 -32.498)" fill="#ff7f2b"/><path d="M145.16,96.914l.195.218a.483.483,0,0,1-.038.681l-4.182,3.738a.484.484,0,0,1-.681-.038l-.195-.218a.484.484,0,0,1,.038-.681l4.182-3.738a.484.484,0,0,1,.681.038" transform="translate(-56.399 -38.939)" fill="#ff7f2b"/><path d="M164.574,79.562l.195.218a.483.483,0,0,1-.038.681L160.548,84.2a.483.483,0,0,1-.68-.038l-.2-.218a.484.484,0,0,1,.038-.681l4.182-3.738a.484.484,0,0,1,.681.038" transform="translate(-64.212 -31.956)" fill="#ff7f2b"/><path d="M142.256,91.331l0,.292a.483.483,0,0,1-.487.477l-5.609-.063a.483.483,0,0,1-.476-.488l0-.292a.483.483,0,0,1,.488-.476l5.609.063a.484.484,0,0,1,.476.488" transform="translate(-54.605 -36.535)" fill="#ff7f2b"/><path d="M168.291,91.772h0a.63.63,0,0,1-.635.621l-5.316-.06a.628.628,0,1,1,.014-1.256l5.317.06a.63.63,0,0,1,.621.635" transform="translate(-65.084 -36.654)" fill="#ff7f2b"/><path d="M238.476,91.986h-59.9V87.128h59.9Zm-59.333-.569h58.765V87.7H179.142Z" transform="translate(-71.868 -35.065)" fill="#a5304d"/><rect width="46.497" height="4.289" transform="translate(106.99 52.347)" fill="#a5304d"/><path d="M147.469,140.758c0-3.925,6.02-11.326,6.02-11.326s6.02,7.4,6.02,11.326-2.695,7.107-6.02,7.107-6.02-3.182-6.02-7.107" transform="translate(-59.349 -52.09)" fill="#a5111f"/><path d="M238.476,145.649h-59.9v-4.857h59.9Zm-59.333-.569h58.765V141.36H179.142Z" transform="translate(-71.868 -56.662)" fill="#ff912b"/><rect width="28.415" height="4.289" transform="translate(106.99 84.414)" fill="#ff912b"/><path d="M158.289,202.58V186.866H154.9V202.58a3.579,3.579,0,1,0,3.392,0" transform="translate(-61.581 -75.205)" fill="#a5304d"/><path d="M238.476,206.439h-59.9v-4.857h59.9Zm-59.333-.568h58.765V202.15H179.142Z" transform="translate(-71.868 -81.127)" fill="#a5304d"/><rect width="38.986" height="4.289" transform="translate(106.99 120.738)" fill="#a5304d"/><path d="M155.118,216.848a2.321,2.321,0,1,1,2.321,2.321,2.322,2.322,0,0,1-2.321-2.321" transform="translate(-62.428 -86.337)" fill="#ff7f2b"/><rect width="1.383" height="7.271" transform="translate(94.269 122.198)" fill="#ff7f2b"/><rect width="5.597" height="7.782" transform="translate(12.568 117.616)" fill="#a5304d"/><rect width="5.597" height="12.94" transform="translate(22.155 112.458)" fill="#a5304d"/><rect width="5.597" height="17.166" transform="translate(31.743 108.232)" fill="#ff7f2b"/><rect width="5.597" height="13.736" transform="translate(41.33 111.662)" fill="#a5304d"/><rect width="5.597" height="21.047" transform="translate(50.918 104.351)" fill="#a5304d"/><rect width="5.597" height="24.802" transform="translate(60.506 100.596)" fill="#ff7f2b"/><rect width="11.809" height="1.083" transform="translate(29.521 83.046)" fill="#fff"/><rect width="18.098" height="1.083" transform="translate(29.521 85.527)" fill="#fff"/><rect width="11.809" height="1.083" transform="translate(50.483 50.281)" fill="#fff"/><rect width="7.393" height="1.083" transform="translate(50.483 52.762)" fill="#fff"/><path d="M461.548,124.329s22.4,25.454,30.212,41.166c0,0-9.4,20.457-39.855,37.075a10.557,10.557,0,0,1-3.42-1.772c-3.223-2.3.348-3.987,1.054-4.445,7.727-5.006,21.229-26.566,21.62-28.437s-16.923-18.65-22.185-24.854,4.393-21.93,12.573-18.734" transform="translate(-179.96 -49.866)" fill="#ffae73"/><path d="M325.079,123.407s-29.314,27.908-36.092,27.168-33.292-7.142-33.292-7.142l-2.21,5.079s26.606,15.62,39.382,15.4,29.5-12.4,29.5-12.4Z" transform="translate(-102.016 -49.666)" fill="#ffae73"/><path d="M397.88,61.968s.146,3.138-1.736,3.752,1.939,7.386,1.639,11.96-2.324,6.41-2.324,6.41.972-2.516.428-4.072c0,0,.087,3.236-2.276,4.868s-1.728,3.044-1.728,3.044-5.341-1.6-5.49-5.6a10.566,10.566,0,0,0-.045,2.56s-4.611-3.462-4.831-7.452,3.63-7.356,5.384-7.417,5.666-3.5,5.561-4.805,5.417-3.243,5.417-3.243" transform="translate(-153.54 -24.939)" fill="#2a3967"/><path d="M383.726,22.871c3.108-4.718,15.445-2.078,27.556,5.9s19.411,18.268,16.3,22.986-15.444,2.078-27.556-5.9-19.411-18.268-16.3-22.986" transform="translate(-154.144 -8.263)" fill="#e9ac55"/><path d="M397.845,289.527c-3.359,17.8-7.684,42.021-11.022,60.966-.4,2.237-.777,4.4-1.141,6.467-.082.478-.166.954-.249,1.42H352.07q-.071-.714-.135-1.42a248.143,248.143,0,0,1-.357-42.245c.357-4.593.831-8.825,1.354-12.665,2.195-22.677,2.933-32.286,3.156-35.463l.047-.7c0-.043,0-.083.007-.118l.007-.107c0-.064.01-.121.012-.17l.007-.14c0-.047,0-.069,0-.069l11.372,3.383,5.563,1.655,1.312,4.167,2.623,8.33,19.041,6.143Z" transform="translate(-141.199 -106.764)" fill="#1e3865"/><path d="M425.239,290.095c-.576,9.249-1.523,41.864-2.58,62.95q-.036.721-.071,1.42H388q-.16-.707-.32-1.42c-3.671-16.513-6.678-35.053-8.832-50.1-.379.016-4.327-26.876-14.223-38.732-.09-.106-.1-.192-.047-.256.49-.63,6.771.46,6.771.46a13.953,13.953,0,0,0,1.711.336c4.749.651,11.645-.4,18.487-1.993h0c1.849-.431,3.69-.9,5.487-1.389,5.066-1.376,9.756-2.886,13.1-4.022.831-.282,1.576-.542,2.225-.77.525-.185.987-.35,1.376-.49h0c.933-.336,1.454-.532,1.454-.532s.234.206.635.632a33.672,33.672,0,0,1,6.792,11.953,55.9,55.9,0,0,1,2.621,21.957" transform="translate(-146.711 -102.848)" fill="#25468f"/><path d="M395.62,17.411l21.771,33.032s2.489-4.877,5.254-3.127c4.313,2.725,13.579-6.6,11.646-19.773-.127-.861-.278-1.679-.446-2.457-4.344-6.258-9.168-13.227-12.629-18.125-10-6.039-25.6,10.45-25.6,10.45" transform="translate(-159.219 -2.266)" fill="#2a3967"/><path d="M379.608,112.336a37.173,37.173,0,0,0,12.132,7.232c19.225,7.285,29.114-8.456,33.536-19.583A17.2,17.2,0,0,0,418.833,97c-1.13-.292-2.312-.553-3.376-.765a2.147,2.147,0,0,1-1.376-.91c-1.834-2.767-3.689-9.779-3.022-19.636l-.968.124-16.226,2.154s.041,5.07-.247,9.818a48.89,48.89,0,0,1-.592,5.518,3.267,3.267,0,0,1-2.9,2.655h0a.034.034,0,0,1-.01.013,101.7,101.7,0,0,0-10.51,16.361" transform="translate(-152.775 -30.463)" fill="#ffae73"/><path d="M403.3,78.059s.044,5.067-.248,9.818c8.984.318,14.244-7.56,16.474-11.971Z" transform="translate(-162.21 -30.548)" fill="#f99352"/><path d="M394.177,62.888s21.193,1.7,22.049-11.515,4.168-21.9-9.328-23.54-16.454,3.228-17.813,7.57-.4,26.7,5.092,27.485" transform="translate(-156.367 -11.07)" fill="#ffae73"/><path d="M389.374,26.345c3.533-3.766,5.955-2.736,7.268-1.453,12-5.637,18.875,4.264,18.875,4.264a25.3,25.3,0,0,0,7.308,15.44s-4.019,2.143-12.788-.717a15.185,15.185,0,0,1-6.9-5.443,49.607,49.607,0,0,0,7.857,10.947c-10.336-5.6-13.669-20.683-14-22.276-1.37,1.08-4.083,3.444-5.019,5.871-1.272,3.3-2.188,10.2-4.192,9.831,0,0-3.706-10.817,1.592-16.465" transform="translate(-155.557 -9.32)" fill="#2a3967"/><path d="M437.286,31.779S447.142,12.16,433.369,4.4s-23.855-4.71-31.433,4.774Z" transform="translate(-161.761 0)" fill="#f4bb6b"/><path d="M412.772,148.91c.755.786,1.226,1.229,1.226,1.229,16.055-2,16.808-18.484,16.808-18.484s-12.566-16.572-24.3-20.217a61.612,61.612,0,0,0-7.138-1.548c-3.671,3.044-7.9,7.5-11.876,11.132-4.586,4.182-12.477,5.6-15.4-1.815-1.169-2.971,1.643-9.138,1.931-9.581a.062.062,0,0,0,.01-.016c-.3.019-.594.042-.881.061-1.438.115-2.734.291-3.911.409-5.726.574-13.634,4.369-29.614,24.594,0,0,8.635,10.664,17.407,11.285-.352,16.894,1.462,44.412,1.462,44.412-3.831,7.536,53.095,24.99,55.553,17.8,3.685-5.622.007-16.388-3.178-24.639-.781-2.014-.953-4.161-1.648-5.719a18.708,18.708,0,0,1-1.06-3.08,18.24,18.24,0,0,1-.183-8.091,174.173,174.173,0,0,1,4.79-17.734" transform="translate(-136.686 -44.113)" fill="#a3314f"/><path d="M424.266,31.96q-.621-.639-1.281-1.285l0,0A94.536,94.536,0,0,0,407.1,18.393a98.613,98.613,0,0,0-14.668-7.585h0q-1.388-.571-2.739-1.062c-10.724-3.923-19.367-4.221-21.983-.029-2.76,4.422,1.91,12.658,11.058,21.013l0,0c-.007-.073-.016-.145-.023-.216s-.012-.144-.019-.218-.014-.169-.021-.253c0-.062-.01-.123-.014-.187,0-.1-.012-.209-.019-.315-.007-.133-.014-.265-.019-.4,0-.014,0-.03,0-.047,0-.1-.007-.2-.01-.3v-.092c0-.065,0-.128,0-.194,0-.232,0-.469,0-.7,0-.083,0-.168.007-.251,0-.047,0-.094,0-.142,0-.078.007-.156.014-.232.007-.145.017-.286.029-.428s.026-.284.04-.428c0-.007,0-.017,0-.024,0-.052.012-.1.017-.154,0-.033.007-.066.011-.1.014-.1.026-.2.041-.3.021-.163.047-.324.078-.485,0-.026.01-.054.014-.081.033-.192.071-.381.117-.57.019-.1.042-.189.066-.282l.007-.035c-.978-2.06-1.155-3.84-.357-5.119.923-1.482,3.025-2.081,5.878-1.894h0c.078,0,.157.012.237.019h0a22.919,22.919,0,0,1,3.433.552h0c.289.066.58.137.878.215,1.079.284,2.213.637,3.387,1.061h.014a60.351,60.351,0,0,1,11.252,5.57c1.612,1.006,3.139,2.053,4.566,3.116h0c.142.106.284.213.424.32,6.6,5,10.957,10.381,11.456,14.095a3.775,3.775,0,0,1-.454,2.574,1.881,1.881,0,0,1-.117.166.119.119,0,0,1-.014.023,3.46,3.46,0,0,1-1.148.988l0,0a2.164,2.164,0,0,1-.195.1s0,0,0,0a6.092,6.092,0,0,1-1.681.512h0c-.062.05-.123.1-.185.144-.045.036-.093.071-.14.1l-.137.1c-.014.01-.028.019-.042.03-.081.053-.158.107-.237.159-.123.081-.249.156-.372.229-.062.036-.123.071-.185.1s-.123.066-.185.1c-.083.042-.164.083-.246.121a.8.8,0,0,1-.093.042l-.092.041,0,0c-.007,0-.014.007-.022.009l-.114.048c-.057.021-.111.045-.168.064s-.14.052-.208.073-.133.043-.2.06l-.019.007c-.055.014-.107.029-.161.041a.43.43,0,0,1-.059.017c-.05.011-.1.023-.151.033s-.124.024-.187.033c-.038.007-.076.012-.114.017s-.09.012-.134.017-.117.012-.176.014a.7.7,0,0,1-.071,0h-.028a.285.285,0,0,1-.045,0h-.017a.531.531,0,0,1-.062,0,3.618,3.618,0,0,1-.457-.029,3.321,3.321,0,0,1-.438-.088c-.071-.021-.142-.042-.21-.066-.052-.019-.1-.04-.154-.062a1.1,1.1,0,0,1-.114-.05c-.03-.014-.062-.028-.092-.045a.7.7,0,0,1-.081-.042c-.054-.029-.106-.059-.158-.093a2.593,2.593,0,0,0-.324-.175c-.036-.017-.071-.03-.1-.045l-.042-.017a1.325,1.325,0,0,0-.156-.052,2.125,2.125,0,0,0-.611-.09h-.028a.066.066,0,0,0-.021,0h-.028c-.026,0-.05,0-.076,0a.344.344,0,0,0-.05,0c-.045,0-.088.01-.13.017l-.014,0a.52.52,0,0,0-.059.012.7.7,0,0,0-.1.021c-.033.007-.066.017-.1.026s-.078.022-.118.035l-.078.029a1.159,1.159,0,0,0-.117.045h0c-.031.012-.059.024-.09.038s-.057.026-.083.041-.064.033-.1.05l-.093.05-.094.057c-.031.019-.059.038-.09.057s-.062.038-.092.06a.769.769,0,0,0-.09.063c-.059.041-.118.085-.175.133a.917.917,0,0,0-.085.069c-.028.024-.057.047-.085.073-.057.047-.112.1-.166.147s-.109.1-.161.154c-.026.026-.052.052-.078.081s-.052.052-.076.078-.056.057-.082.085h0q1.555.643,3.061,1.189a55.64,55.64,0,0,0,8.975,2.5c6.327,1.138,11.065.4,12.885-2.519,2.424-3.889-.895-10.724-7.947-18" transform="translate(-147.666 -2.691)" fill="#ffcd76"/><path d="M439.275,210.056c8.2,2.627,4.37-1.869,10.7-1.411-.781-2.014-1.358-3.839-2.053-5.4a18.652,18.652,0,0,1-1.06-3.08,18.232,18.232,0,0,1-.183-8.091,157.415,157.415,0,0,1,4.79-17.734c-1.812-4.761-9.545,3.044-9.545,3.044s-7.16,7.522-5.286,20.313c1.747,11.917-4.442,10.09,2.633,12.357" transform="translate(-175.386 -69.545)" fill="#82273f"/><path d="M437.658,112.059a42.086,42.086,0,0,0-16.624,26.3l-4-1.272s1.687-12.853,17-25.929c0,0,1.154.228,1.54.324.52.13,2.087.579,2.087.579" transform="translate(-167.835 -44.735)" fill="#25468f"/><path d="M373.3,138.228l4.192.275a42.528,42.528,0,0,1,9.216-28.789c-1.438.115-2.742.254-3.911.409-8.508,12.991-9.5,28.106-9.5,28.106" transform="translate(-150.236 -44.155)" fill="#25468f"/><path d="M397.525,161.839c.259-1.1,2.824-11.809,2.824-11.809s.591-3.347-5.291-3.678-26.752-1.431-26.752-1.431a6.5,6.5,0,0,0-2.886,5.238c-.042,3.522-2.882,23.672-2.882,23.672l-2.921,44.316,63.64,27.423s4.363-22.4-.522-38.01c-2.85-9.1-6.523-18.612-6.523-18.612s-22.646-10.281-18.686-27.109" transform="translate(-144.729 -58.324)" fill="#25468f"/><path d="M421.692,152.53a1.758,1.758,0,1,0-2.208,1.144,1.758,1.758,0,0,0,2.208-1.144" transform="translate(-168.33 -60.464)" fill="#fc7600"/><path d="M421.188,152.37a1.758,1.758,0,1,0-2.207,1.144,1.758,1.758,0,0,0,2.207-1.144" transform="translate(-168.127 -60.4)" fill="#ff912b"/><path d="M422.177,152.848a.255.255,0,1,0-.255.256.256.256,0,0,0,.255-.256" transform="translate(-169.701 -61.412)" fill="#25468f"/><path d="M419.385,152.852a.255.255,0,1,0-.255.256.256.256,0,0,0,.255-.256" transform="translate(-168.577 -61.413)" fill="#25468f"/><path d="M378.387,148.792a1.758,1.758,0,1,0-2.208,1.144,1.758,1.758,0,0,0,2.208-1.144" transform="translate(-150.901 -58.96)" fill="#fc7600"/><path d="M377.883,148.632a1.758,1.758,0,1,0-2.208,1.144,1.758,1.758,0,0,0,2.208-1.144" transform="translate(-150.698 -58.896)" fill="#ff912b"/><path d="M378.872,149.11a.255.255,0,1,0-.255.256.256.256,0,0,0,.255-.256" transform="translate(-152.273 -59.907)" fill="#25468f"/><path d="M376.08,149.114a.255.255,0,1,0-.255.256.256.256,0,0,0,.255-.256" transform="translate(-151.149 -59.909)" fill="#25468f"/><path d="M445.17,66.181s.146,3.138-1.736,3.752,1.939,7.386,1.64,11.96-2.324,6.41-2.324,6.41.972-2.516.428-4.072c0,0,.087,3.236-2.276,4.868s-1.728,3.044-1.728,3.044-5.341-1.6-5.491-5.6a10.575,10.575,0,0,0-.044,2.56s-4.611-3.462-4.831-7.452,3.63-7.356,5.383-7.417,5.667-3.5,5.561-4.805,5.418-3.243,5.418-3.243" transform="translate(-172.572 -26.635)" fill="#2a3967"/><path d="M402.954,73.471s-3.158,1.915-5.406,1.692c-2.226-.22-3.438-2.905-3.438-2.905a18.66,18.66,0,0,1,8.844,1.214" transform="translate(-158.611 -29.038)" fill="#fff1e7"/><path d="M403.343,243.188H360.808a5.384,5.384,0,0,1-4.534-3.224L345.567,213.6c-.723-1.78.134-3.224,1.915-3.224h42.535a5.383,5.383,0,0,1,4.534,3.224l10.707,26.36c.723,1.781-.134,3.224-1.915,3.224" transform="translate(-138.972 -84.668)" fill="#9bc8ff"/><path d="M399.095,243.188H356.56a5.383,5.383,0,0,1-4.534-3.224L341.319,213.6c-.723-1.78.134-3.224,1.915-3.224h42.535A5.383,5.383,0,0,1,390.3,213.6l10.707,26.36c.723,1.781-.134,3.224-1.915,3.224" transform="translate(-137.262 -84.668)" fill="#65a3ff"/><path d="M347.934,213.763h0a2.468,2.468,0,0,1,2.07,1.472c.329.81-.065,1.472-.874,1.472a2.467,2.467,0,0,1-2.07-1.472c-.329-.81.065-1.472.874-1.472" transform="translate(-139.629 -86.03)" fill="#25468f"/><path d="M356.036,214.789h0a1.44,1.44,0,0,1,1.208.859c.192.472-.038.859-.51.859a1.44,1.44,0,0,1-1.208-.859c-.192-.473.038-.859.51-.859" transform="translate(-143.055 -86.443)" fill="#25468f"/><path d="M384.1,234.3c-.71-1.747.131-3.164,1.879-3.164a5.283,5.283,0,0,1,4.449,3.164c.71,1.747-.131,3.163-1.879,3.163A5.282,5.282,0,0,1,384.1,234.3" transform="translate(-154.482 -93.023)" fill="#9bc8ff"/><path d="M445.395,242.147s-5.849-3.335-7.258-4.876c-.91-.994-.964.285-.906.644a4.928,4.928,0,0,0,1.889,3.51c2.4,1.958,6.275.722,6.275.722" transform="translate(-175.958 -95.341)" fill="#ffae73"/><path d="M436.444,243.721s-10.549-3.169-12.979-2.894-7.978,2-8.425,2.455,1.463.927,2.916.5a12.436,12.436,0,0,1,4.8.068,74.3,74.3,0,0,0-7.4,1.934.218.218,0,0,0-.048.367,3.823,3.823,0,0,0,2.574.274,45.166,45.166,0,0,1,5.175-.214l-6.723,1.461a.18.18,0,0,0-.144.179c.011.319.548.661,2.119.733a51.6,51.6,0,0,0,5.31-.551l-3.652,1.927a3.176,3.176,0,0,0,2.75.018c1.279-.422,5.094-1.378,5.975-1.192s5.276,1.738,7.353,1.472a11.9,11.9,0,0,0,2.908-.642Z" transform="translate(-167.008 -96.915)" fill="#ffae73"/><path d="M246.322,151.414s-5.293-5.655-7.239-6.329-8.889-1.846-8.889-1.846.028,1.661,3.135,2.808,3.758,6.535,5.6,8.06,6.7,2.844,6.7,2.844Z" transform="translate(-92.643 -57.647)" fill="#ffae73"/><path d="M246.226,162.067s-5.157-.225-6.832-1.278-4.4-2.428-3.877-3.266,6.213-.206,6.213-.206Z" transform="translate(-94.758 -63.221)" fill="#ffae73"/><path d="M239.446,144.8c-.27-.121-7.147-4.719-7.147-4.719s-.579,2.179.434,2.593,6.713,2.126,6.713,2.126" transform="translate(-93.423 -56.376)" fill="#ffae73"/><path d="M478.719,222.334a114.991,114.991,0,0,1-26.812,19.85,10.562,10.562,0,0,1-3.421-1.773c-3.222-2.3.348-3.987,1.053-4.443,3.5-2.268,8.191-7.938,12.308-13.634Z" transform="translate(-179.961 -89.479)" fill="#ffae73"/></g></g></g></g></svg>