<svg xmlns="http://www.w3.org/2000/svg" xmlns:xlink="http://www.w3.org/1999/xlink" width="1328" height="1181.388" viewBox="0 0 1328 1181.388"><defs><linearGradient id="a" x1="0.5" x2="0.5" y2="1" gradientUnits="objectBoundingBox"><stop offset="0" stop-color="#fff"/><stop offset="0.047" stop-color="#f8f9eb"/><stop offset="0.91" stop-color="#f8f9ea"/><stop offset="0.95" stop-color="#f9faef"/><stop offset="1" stop-color="#fff"/></linearGradient><clipPath id="b"><rect width="1328" height="1181.388" fill="url(#a)"/></clipPath><clipPath id="d"><rect width="275.771" height="20.635" transform="translate(908.959 1123.195)" fill="none"/></clipPath></defs><g transform="translate(-136 -1645.532)"><g transform="translate(136 1645.528)"><g transform="translate(0 0.004)" clip-path="url(#b)"><rect width="1328" height="1181.388" transform="translate(0 0)" fill="url(#a)"/></g></g><g transform="translate(-3653 11700)"><path d="M0,891.622s351.464,46.466,565.256-8.024,469.719-52.669,674.775,80.135v113.475H0Z" transform="translate(3833 -10137.3)" fill="#d1ba11"/><path d="M0,913.952s106.709-147.664,407.9-77.589,832.128,134.289,832.128,134.289v93.88H0Z" transform="translate(3833 -10137.3)" fill="#c1d12a"/><path d="M0,1043.922s30.569,45.05,244.9-2.4,703.581-188.5,995.133-63.278v161.6H0Z" transform="translate(3833 -10137.3)" fill="#efe922"/><path d="M949.6,1109.914a1.863,1.863,0,0,1-1.864-1.864V813.514a1.864,1.864,0,0,1,3.728,0V1108.05a1.863,1.863,0,0,1-1.864,1.864" transform="translate(3833 -10137.3)" fill="#5b3c0b"/><path d="M984.008,829.185c0,2.826-4.387,5.425-4.617,8.145-.239,2.824,3.638,6.133,3.168,8.813-.491,2.8-5.27,4.577-5.993,7.188-.764,2.756,2.4,6.759,1.4,9.263-1.066,2.672-6.111,3.356-7.417,5.7-1.411,2.528.585,7.222-1.071,9.3-1.814,2.278-6.779,1.276-8.841,2.941-2.255,1.821-2.514,6.9-5.006,7.89-2.609,1.033-6.118-2.545-8.916-2.545s-6.309,3.578-8.919,2.544c-2.492-.987-2.751-6.069-5.006-7.891-2.062-1.665-7.027-.664-8.841-2.942-1.656-2.082.34-6.775-1.071-9.3-1.305-2.338-6.35-3.022-7.415-5.693-1-2.5,2.16-6.505,1.4-9.259-.723-2.611-5.5-4.386-5.993-7.187-.47-2.681,3.407-5.99,3.168-8.814-.231-2.721-4.618-5.32-4.618-8.147s4.387-5.425,4.618-8.145c.239-2.824-3.638-6.133-3.168-8.813.491-2.8,5.269-4.577,5.993-7.188.763-2.756-2.4-6.759-1.4-9.263,1.065-2.672,6.11-3.356,7.416-5.7,1.411-2.528-.585-7.222,1.071-9.3,1.814-2.278,6.779-1.276,8.841-2.941,2.255-1.822,2.514-6.9,5.006-7.89,2.609-1.033,6.118,2.545,8.917,2.545s6.308-3.578,8.918-2.544c2.492.987,2.751,6.069,5.006,7.891,2.062,1.665,7.028.664,8.841,2.942,1.657,2.082-.34,6.775,1.071,9.3,1.3,2.338,6.35,3.022,7.416,5.693,1,2.5-2.161,6.505-1.4,9.259.724,2.611,5.5,4.386,5.993,7.187.47,2.681-3.407,5.99-3.167,8.814.23,2.72,4.617,5.32,4.617,8.147" transform="translate(3833 -10137.3)" fill="#848912"/><path d="M1033.484,1104.322a2.237,2.237,0,0,1-2.237-2.237V768.775a2.237,2.237,0,1,1,4.474,0v333.31a2.237,2.237,0,0,1-2.237,2.237" transform="translate(3833 -10137.3)" fill="#5b3c0b"/><path d="M1085.423,793.406c0,4.33-4.45,8.408-4.8,12.575-.366,4.327,3.319,9.1,2.6,13.211-.753,4.293-5.857,7.513-6.966,11.514-1.169,4.22,1.518,9.627-.012,13.463-1.633,4.093-7.312,6.116-9.312,9.7-2.162,3.875-.987,9.8-3.525,12.992-2.779,3.492-8.782,3.55-11.941,6.1-3.455,2.792-4.986,8.635-8.8,10.147-4,1.584-8.957-1.7-13.245-1.7s-9.247,3.287-13.246,1.7c-3.818-1.513-5.349-7.356-8.8-10.148-3.159-2.552-9.162-2.61-11.941-6.1-2.537-3.189-1.362-9.117-3.524-12.992-2-3.583-7.68-5.606-9.312-9.7-1.53-3.836,1.157-9.242-.012-13.463-1.109-4-6.213-7.22-6.965-11.512-.72-4.106,2.966-8.884,2.6-13.211-.352-4.167-4.8-8.246-4.8-12.576s4.451-8.408,4.8-12.575c.367-4.327-3.319-9.1-2.6-13.211.753-4.293,5.857-7.513,6.966-11.514,1.169-4.22-1.517-9.627.013-13.463,1.632-4.093,7.311-6.116,9.311-9.7,2.163-3.875.987-9.8,3.525-12.992,2.779-3.492,8.782-3.55,11.941-6.1,3.456-2.792,4.986-8.635,8.8-10.147,4-1.584,8.957,1.7,13.245,1.7s9.247-3.287,13.247-1.7c3.818,1.513,5.348,7.356,8.8,10.148,3.159,2.552,9.162,2.61,11.941,6.1,2.538,3.189,1.362,9.117,3.525,12.992,2,3.583,7.679,5.606,9.311,9.7,1.53,3.836-1.157,9.242.012,13.463,1.109,4,6.213,7.22,6.965,11.512.72,4.106-2.966,8.884-2.6,13.211.353,4.167,4.8,8.246,4.8,12.576" transform="translate(3833 -10137.3)" fill="#b5c60c"/><path d="M1125.2,1106.559a2.237,2.237,0,0,1-2.237-2.237V747.151a2.237,2.237,0,1,1,4.474,0v357.171a2.237,2.237,0,0,1-2.237,2.237" transform="translate(3833 -10137.3)" fill="#5b3c0b"/><path d="M1169.675,768.146c0,3.676-5.38,7.071-5.68,10.609-.311,3.673,4.408,7.936,3.8,11.422-.639,3.645-6.536,6.026-7.477,9.423-.993,3.583,2.807,8.685,1.508,11.942-1.386,3.475-7.654,4.5-9.352,7.546-1.836,3.29.491,9.214-1.664,11.921-2.359,2.965-8.588,1.891-11.27,4.057-2.934,2.37-3.433,8.7-6.675,9.985-3.4,1.345-7.9-2.994-11.541-2.994s-8.146,4.339-11.541,2.994c-3.242-1.285-3.741-7.615-6.675-9.985-2.682-2.167-8.911-1.093-11.27-4.057-2.154-2.708.172-8.631-1.664-11.92-1.7-3.043-7.965-4.072-9.351-7.547-1.3-3.257,2.5-8.359,1.508-11.942-.941-3.4-6.838-5.777-7.477-9.421-.612-3.487,4.107-7.749,3.8-11.423-.3-3.538-5.679-6.933-5.679-10.61s5.38-7.071,5.679-10.609c.311-3.673-4.408-7.936-3.8-11.422.639-3.645,6.536-6.026,7.478-9.423.992-3.583-2.807-8.685-1.508-11.942,1.386-3.474,7.654-4.5,9.351-7.546,1.836-3.29-.49-9.214,1.665-11.921,2.359-2.965,8.588-1.89,11.27-4.057,2.934-2.37,3.433-8.7,6.675-9.985,3.4-1.345,7.9,2.994,11.54,2.994s8.147-4.339,11.542-2.994c3.241,1.285,3.741,7.615,6.675,9.986,2.681,2.166,8.91,1.092,11.269,4.056,2.155,2.708-.172,8.631,1.664,11.92,1.7,3.043,7.966,4.072,9.352,7.547,1.3,3.257-2.5,8.359-1.508,11.942.941,3.4,6.838,5.777,7.477,9.421.611,3.487-4.108,7.749-3.8,11.423.3,3.538,5.68,6.933,5.68,10.61" transform="translate(3833 -10137.3)" fill="#848912"/><g transform="translate(3833 -10137.3)" opacity="0.65"><g clip-path="url(#d)"><path d="M1184.735,1133.513c0,5.7-61.735,10.318-137.888,10.318s-137.888-4.62-137.888-10.318,61.734-10.318,137.888-10.318,137.888,4.62,137.888,10.318" fill="#97afbf"/></g></g><path d="M1004.776,1054.55a2.61,2.61,0,0,1-2.61-2.61V997.2l-9.661-8.408a2.61,2.61,0,1,1,3.427-3.937l10.558,9.188a2.612,2.612,0,0,1,.9,1.969v55.924a2.61,2.61,0,0,1-2.61,2.61" transform="translate(3833 -10137.3)" fill="#071830"/><rect width="9.737" height="32.886" transform="translate(4832.446 -9132.164)" fill="#12223f"/><path d="M1099.923,1093.621a35.292,35.292,0,1,1-35.291-35.291,35.291,35.291,0,0,1,35.291,35.291" transform="translate(3833 -10137.3)" fill="#051c1c"/><path d="M997.672,1097.331a27.872,27.872,0,1,1-27.872-27.872,27.872,27.872,0,0,1,27.872,27.872" transform="translate(3833 -10137.3)" fill="#051c1c"/><path d="M1012.046,1050.449l12.664-57.416h69.918v57.416Z" transform="translate(3833 -10137.3)" fill="#991c28"/><path d="M1098.871,1104.95H929.231v-54.731l169.64-16.844Z" transform="translate(3833 -10137.3)" fill="#991c28"/><path d="M1115.258,1104.95H963.22v-54.731l150.05-6.637Z" transform="translate(3833 -10137.3)" fill="#f4430c"/><path d="M1020.331,1104.95a27.872,27.872,0,1,1-27.872-27.872,27.872,27.872,0,0,1,27.872,27.872" transform="translate(3833 -10137.3)" fill="#093335"/><path d="M1027.149,1104.95a27.872,27.872,0,1,1-27.872-27.872,27.872,27.872,0,0,1,27.872,27.872" transform="translate(3833 -10137.3)" fill="#051c1c"/><path d="M1010.685,1104.95a11.409,11.409,0,1,1-11.409-11.408,11.409,11.409,0,0,1,11.409,11.408" transform="translate(3833 -10137.3)" fill="#f4430c"/><path d="M1041.121,1050.449l12.664-57.416h59.484v57.416Z" transform="translate(3833 -10137.3)" fill="#f4430c"/><rect width="34.89" height="54.731" transform="translate(4761.329 -9087.081)" fill="#991c28"/><path d="M1047.037,1063.125h9.324l18.093-16.991,29.122-12.013v-32.886l-41.1-.745Z" transform="translate(3833 -10137.3)" fill="#26b5b1"/><path d="M1047.037,1063.125l6.279-25.441,27.809-5.729,3.209-17.3h19.242v19.464l-29.122,12.013-18.093,16.991Z" transform="translate(3833 -10137.3)" fill="#126666"/><rect width="4.243" height="20.854" transform="translate(4765.741 -9073.846)" fill="#051c1c"/><rect width="4.243" height="20.854" transform="translate(4772.604 -9073.846)" fill="#051c1c"/><rect width="4.243" height="20.854" transform="translate(4779.467 -9073.846)" fill="#051c1c"/><rect width="4.243" height="20.854" transform="translate(4786.33 -9073.846)" fill="#051c1c"/><path d="M1019.158,1041.6l20.575-2.351,8.306-38.758h-20.854Z" transform="translate(3833 -10137.3)" fill="#26b5b1"/><path d="M1142.232,1091.415a45.117,45.117,0,1,1-45.117-45.117,45.118,45.118,0,0,1,45.117,45.117" transform="translate(3833 -10137.3)" fill="#093335"/><path d="M1154.537,1091.415a45.117,45.117,0,1,1-45.117-45.117,45.117,45.117,0,0,1,45.117,45.117" transform="translate(3833 -10137.3)" fill="#051c1c"/><path d="M1134.318,1093.513a22.553,22.553,0,1,1-22.554-22.554,22.553,22.553,0,0,1,22.554,22.554" transform="translate(3833 -10137.3)" fill="#f4430c"/><path d="M192.753,915.791a1.863,1.863,0,0,1-1.864-1.864V755.1a1.864,1.864,0,1,1,3.728,0V913.927a1.863,1.863,0,0,1-1.864,1.864" transform="translate(3833 -10137.3)" fill="#5b3c0b"/><path d="M227.164,770.772c0,2.826-4.387,5.425-4.617,8.145-.239,2.824,3.638,6.133,3.168,8.813-.491,2.8-5.27,4.577-5.993,7.188-.764,2.756,2.4,6.759,1.4,9.263-1.066,2.672-6.111,3.356-7.417,5.695-1.411,2.528.585,7.222-1.071,9.3-1.814,2.278-6.779,1.276-8.841,2.941-2.255,1.821-2.514,6.9-5.006,7.89-2.609,1.033-6.118-2.545-8.916-2.545s-6.309,3.578-8.919,2.544c-2.492-.987-2.751-6.069-5.006-7.891-2.062-1.665-7.027-.664-8.841-2.942-1.656-2.082.34-6.775-1.071-9.3-1.3-2.338-6.35-3.022-7.415-5.693-1-2.5,2.16-6.505,1.4-9.259-.723-2.611-5.5-4.386-5.993-7.187-.47-2.681,3.407-5.99,3.168-8.814-.231-2.721-4.618-5.32-4.618-8.147s4.387-5.425,4.618-8.145c.239-2.824-3.638-6.133-3.168-8.813.491-2.8,5.269-4.577,5.993-7.188.763-2.756-2.395-6.759-1.4-9.263,1.065-2.672,6.11-3.356,7.416-5.695,1.411-2.528-.585-7.222,1.071-9.3,1.814-2.278,6.779-1.276,8.841-2.941,2.255-1.821,2.514-6.9,5.006-7.89,2.609-1.033,6.118,2.545,8.917,2.545s6.308-3.578,8.918-2.544c2.492.987,2.751,6.069,5.006,7.891,2.062,1.665,7.028.664,8.841,2.942,1.657,2.082-.34,6.775,1.071,9.3,1.3,2.339,6.35,3.023,7.416,5.694,1,2.5-2.161,6.505-1.4,9.259.724,2.611,5.5,4.386,5.993,7.187.47,2.681-3.406,5.99-3.167,8.814.23,2.72,4.617,5.32,4.617,8.147" transform="translate(3833 -10137.3)" fill="#848912"/><path d="M99.918,915.418a1.491,1.491,0,0,1-1.491-1.491V726.021a1.491,1.491,0,1,1,2.982,0V913.927a1.491,1.491,0,0,1-1.491,1.491" transform="translate(3833 -10137.3)" fill="#5b3c0b"/><path d="M135.829,742.912c0,2.964-3.046,5.755-3.288,8.607-.25,2.962,2.273,6.232,1.78,9.042-.515,2.939-4.009,5.143-4.768,7.882-.8,2.888,1.039,6.589-.008,9.215-1.118,2.8-5.006,4.187-6.375,6.64-1.48,2.652-.676,6.71-2.413,8.892-1.9,2.39-6.01,2.43-8.172,4.176-2.366,1.911-3.413,5.91-6.026,6.945-2.737,1.084-6.131-1.166-9.065-1.166s-6.33,2.25-9.067,1.166c-2.613-1.036-3.661-5.035-6.026-6.946-2.162-1.747-6.271-1.787-8.173-4.177-1.737-2.182-.932-6.24-2.412-8.891-1.369-2.453-5.256-3.838-6.374-6.639-1.047-2.625.793-6.325-.008-9.213-.758-2.739-4.252-4.943-4.767-7.881-.493-2.811,2.029-6.081,1.779-9.043-.242-2.853-3.288-5.645-3.288-8.609s3.046-5.755,3.288-8.607c.25-2.962-2.273-6.232-1.78-9.042.515-2.939,4.009-5.143,4.768-7.882.8-2.888-1.039-6.589.008-9.215,1.118-2.8,5.006-4.187,6.375-6.64,1.48-2.652.676-6.71,2.413-8.892,1.9-2.39,6.01-2.43,8.172-4.176,2.366-1.911,3.413-5.91,6.026-6.945,2.737-1.084,6.131,1.166,9.066,1.166s6.329-2.25,9.066-1.165c2.613,1.035,3.661,5.034,6.026,6.945,2.162,1.747,6.271,1.787,8.173,4.176,1.737,2.183.932,6.241,2.412,8.892,1.369,2.453,5.256,3.838,6.374,6.639,1.047,2.626-.793,6.325.008,9.213.759,2.739,4.252,4.943,4.767,7.881.493,2.811-2.029,6.081-1.779,9.043.242,2.853,3.288,5.645,3.288,8.609" transform="translate(3833 -10137.3)" fill="#b5c60c"/><path d="M237.146,708.095a2.17,2.17,0,0,0-3.068,0l-18.427,18.426v17.748l27.3-27.3a2.169,2.169,0,0,0,0-3.069Z" transform="translate(3833 -10137.3)" fill="#dfebf1"/></g></g></svg>