<svg xmlns="http://www.w3.org/2000/svg" xmlns:xlink="http://www.w3.org/1999/xlink" width="1236.644" height="348.436" viewBox="0 0 1236.644 348.436"><defs><clipPath id="a"><rect width="1236.644" height="180.66" fill="none"/></clipPath><clipPath id="b"><rect width="60.48" height="60.48" fill="#ffb500"/></clipPath><clipPath id="c"><rect width="60.48" height="60.48" transform="translate(0 0)" fill="#ffb500"/></clipPath><clipPath id="e"><rect width="43.68" height="43.68" transform="translate(8.4 8.4)" fill="#ffb500"/></clipPath></defs><g transform="translate(-182 -8995.623)"><g transform="translate(182 9082.997)"><g clip-path="url(#a)"><path d="M160.91,165.77H19.751a4.859,4.859,0,0,1-4.86-4.86V19.751a4.859,4.859,0,0,1,4.86-4.86H160.91a4.86,4.86,0,0,1,4.859,4.86V160.91a4.86,4.86,0,0,1-4.859,4.86" fill="#621d2f"/><path d="M159.133,167.249H21.526a8.123,8.123,0,0,1-8.115-8.114V21.526a8.123,8.123,0,0,1,8.115-8.114H159.133a8.123,8.123,0,0,1,8.115,8.114V159.135a8.123,8.123,0,0,1-8.115,8.114M21.526,16.369a5.162,5.162,0,0,0-5.157,5.157V159.135a5.162,5.162,0,0,0,5.157,5.157H159.133a5.162,5.162,0,0,0,5.157-5.157V21.526a5.162,5.162,0,0,0-5.157-5.157Z" fill="#fff"/><path d="M179.181,90.33a1.479,1.479,0,0,1-1.479-1.479V85.894a1.479,1.479,0,0,1,2.958,0v2.957a1.479,1.479,0,0,1-1.479,1.479" fill="#621d2f"/><path d="M163.861,180.66h-5.882a1.479,1.479,0,0,1,0-2.957h5.882a1.479,1.479,0,0,1,0,2.957m-17.645,0h-5.882a1.479,1.479,0,0,1,0-2.957h5.882a1.479,1.479,0,0,1,0,2.957m-17.645,0h-5.882a1.479,1.479,0,1,1,0-2.957h5.882a1.479,1.479,0,0,1,0,2.957m-17.645,0h-5.882a1.479,1.479,0,0,1,0-2.957h5.882a1.479,1.479,0,0,1,0,2.957m-17.645,0H87.4a1.479,1.479,0,1,1,0-2.957h5.882a1.479,1.479,0,0,1,0,2.957m-17.645,0H69.754a1.479,1.479,0,1,1,0-2.957h5.882a1.479,1.479,0,1,1,0,2.957m-17.645,0H52.109a1.479,1.479,0,1,1,0-2.957h5.882a1.479,1.479,0,1,1,0,2.957m-17.645,0H34.464a1.479,1.479,0,1,1,0-2.957h5.882a1.479,1.479,0,1,1,0,2.957m-17.645,0H16.819a1.479,1.479,0,1,1,0-2.957H22.7a1.479,1.479,0,1,1,0,2.957M5.887,177.306a1.474,1.474,0,0,1-.984-.376q-.309-.276-.6-.57a14.583,14.583,0,0,1-3.164-4.71,1.479,1.479,0,0,1,2.728-1.142,11.662,11.662,0,0,0,2.527,3.762c.156.156.317.308.48.454a1.478,1.478,0,0,1-.984,2.582m168.9-.014a1.479,1.479,0,0,1-.988-2.58q.241-.216.471-.445a11.677,11.677,0,0,0,2.532-3.776,1.478,1.478,0,0,1,2.729,1.138,14.62,14.62,0,0,1-3.172,4.731q-.288.286-.586.555a1.477,1.477,0,0,1-.986.377M1.479,160.931A1.479,1.479,0,0,1,0,159.452v-5.881a1.479,1.479,0,1,1,2.957,0v5.881a1.479,1.479,0,0,1-1.478,1.479m177.7-.02a1.479,1.479,0,0,1-1.479-1.479v-5.883a1.479,1.479,0,0,1,2.958,0v5.883a1.479,1.479,0,0,1-1.479,1.479M1.479,143.286A1.479,1.479,0,0,1,0,141.808v-5.883a1.479,1.479,0,1,1,2.957,0v5.883a1.478,1.478,0,0,1-1.478,1.478m177.7-.021a1.479,1.479,0,0,1-1.479-1.479V135.9a1.479,1.479,0,0,1,2.958,0v5.881a1.479,1.479,0,0,1-1.479,1.479M1.479,125.641A1.479,1.479,0,0,1,0,124.162V118.28a1.479,1.479,0,0,1,2.957,0v5.882a1.479,1.479,0,0,1-1.478,1.479m177.7-.02a1.479,1.479,0,0,1-1.479-1.479v-5.883a1.479,1.479,0,0,1,2.958,0v5.883a1.479,1.479,0,0,1-1.479,1.479M1.479,108A1.479,1.479,0,0,1,0,106.518v-5.883a1.479,1.479,0,1,1,2.957,0v5.883A1.478,1.478,0,0,1,1.479,108m177.7-.021A1.479,1.479,0,0,1,177.7,106.5v-5.881a1.479,1.479,0,0,1,2.958,0V106.5a1.479,1.479,0,0,1-1.479,1.479" fill="#621d2f"/><path d="M1.479,90.33A1.479,1.479,0,0,1,0,88.851V85.894a1.479,1.479,0,0,1,2.958,0v2.957A1.479,1.479,0,0,1,1.479,90.33" fill="#621d2f"/><path d="M201.261,91.809H177.7V14.681A11.723,11.723,0,0,0,165.979,2.958H14.68A11.721,11.721,0,0,0,2.957,14.681V90.33H0V14.681A14.683,14.683,0,0,1,14.68,0h151.3a14.683,14.683,0,0,1,14.68,14.681V88.852h20.6Z" fill="#621d2f"/><path d="M199.1,97.7l12.767-7.373L199.1,82.958Z" fill="#621d2f"/><path d="M1216.893,165.77H1075.734a4.86,4.86,0,0,1-4.86-4.86V19.751a4.86,4.86,0,0,1,4.86-4.86h141.159a4.86,4.86,0,0,1,4.86,4.86V160.91a4.86,4.86,0,0,1-4.86,4.86" fill="#a3314f"/><path d="M1215.118,167.249H1077.51a8.124,8.124,0,0,1-8.115-8.114V21.526a8.124,8.124,0,0,1,8.115-8.114h137.608a8.123,8.123,0,0,1,8.114,8.114V159.135a8.123,8.123,0,0,1-8.114,8.114M1077.51,16.369a5.162,5.162,0,0,0-5.157,5.157V159.135a5.162,5.162,0,0,0,5.157,5.157h137.608a5.162,5.162,0,0,0,5.157-5.157V21.526a5.162,5.162,0,0,0-5.157-5.157Z" fill="#fff"/><path d="M1235.165,90.33a1.479,1.479,0,0,1-1.479-1.479V85.894a1.479,1.479,0,0,1,2.958,0v2.957a1.479,1.479,0,0,1-1.479,1.479" fill="#a3314f"/><path d="M1219.845,180.66h-5.882a1.479,1.479,0,0,1,0-2.957h5.882a1.479,1.479,0,0,1,0,2.957m-17.645,0h-5.882a1.479,1.479,0,1,1,0-2.957h5.882a1.479,1.479,0,0,1,0,2.957m-17.645,0h-5.882a1.479,1.479,0,1,1,0-2.957h5.882a1.479,1.479,0,0,1,0,2.957m-17.645,0h-5.882a1.479,1.479,0,1,1,0-2.957h5.882a1.479,1.479,0,0,1,0,2.957m-17.646,0h-5.881a1.479,1.479,0,1,1,0-2.957h5.881a1.479,1.479,0,1,1,0,2.957m-17.645,0h-5.881a1.479,1.479,0,1,1,0-2.957h5.881a1.479,1.479,0,1,1,0,2.957m-17.645,0h-5.881a1.479,1.479,0,1,1,0-2.957h5.881a1.479,1.479,0,1,1,0,2.957m-17.645,0h-5.881a1.479,1.479,0,1,1,0-2.957h5.881a1.479,1.479,0,1,1,0,2.957m-17.644,0H1072.8a1.479,1.479,0,1,1,0-2.957h5.882a1.479,1.479,0,0,1,0,2.957m-16.814-3.354a1.473,1.473,0,0,1-.984-.376q-.309-.276-.6-.57a14.593,14.593,0,0,1-3.164-4.71,1.478,1.478,0,1,1,2.727-1.142,11.68,11.68,0,0,0,2.528,3.762c.156.156.316.308.48.454a1.478,1.478,0,0,1-.984,2.582m168.9-.014a1.479,1.479,0,0,1-.987-2.58q.241-.216.471-.445a11.679,11.679,0,0,0,2.533-3.776,1.478,1.478,0,0,1,2.729,1.138,14.623,14.623,0,0,1-3.173,4.731q-.288.286-.586.555a1.479,1.479,0,0,1-.987.377m-173.308-16.361a1.479,1.479,0,0,1-1.479-1.479v-5.881a1.479,1.479,0,1,1,2.957,0v5.881a1.479,1.479,0,0,1-1.478,1.479m177.7-.02a1.479,1.479,0,0,1-1.479-1.479v-5.883a1.479,1.479,0,0,1,2.958,0v5.883a1.479,1.479,0,0,1-1.479,1.479m-177.7-17.626a1.479,1.479,0,0,1-1.479-1.479v-5.881a1.479,1.479,0,1,1,2.957,0v5.881a1.479,1.479,0,0,1-1.478,1.479m177.7-.02a1.479,1.479,0,0,1-1.479-1.479V135.9a1.479,1.479,0,1,1,2.958,0v5.881a1.479,1.479,0,0,1-1.479,1.479m-177.7-17.624a1.479,1.479,0,0,1-1.479-1.479V118.28a1.479,1.479,0,0,1,2.957,0v5.882a1.479,1.479,0,0,1-1.478,1.479m177.7-.02a1.479,1.479,0,0,1-1.479-1.479v-5.883a1.479,1.479,0,1,1,2.958,0v5.883a1.479,1.479,0,0,1-1.479,1.479M1057.463,108a1.479,1.479,0,0,1-1.479-1.479v-5.881a1.479,1.479,0,1,1,2.957,0v5.881a1.479,1.479,0,0,1-1.478,1.479m177.7-.02a1.479,1.479,0,0,1-1.479-1.479v-5.881a1.479,1.479,0,0,1,2.958,0V106.5a1.479,1.479,0,0,1-1.479,1.479" fill="#a3314f"/><path d="M1057.463,90.33a1.479,1.479,0,0,1-1.479-1.479V85.894a1.479,1.479,0,0,1,2.958,0v2.957a1.479,1.479,0,0,1-1.479,1.479" fill="#a3314f"/><path d="M1236.644,90.33h-2.957V14.681a11.725,11.725,0,0,0-11.724-11.723h-151.3a11.723,11.723,0,0,0-11.724,11.723V90.33h-2.957V14.681A14.679,14.679,0,0,1,1070.665,0h151.3a14.681,14.681,0,0,1,14.681,14.681Z" fill="#a3314f"/><path d="M369.544,165.77H228.385a4.86,4.86,0,0,1-4.86-4.86V19.751a4.86,4.86,0,0,1,4.86-4.86H369.544a4.86,4.86,0,0,1,4.86,4.86V160.91a4.86,4.86,0,0,1-4.86,4.86" fill="#82273f"/><path d="M367.768,167.249H230.161a8.123,8.123,0,0,1-8.115-8.114V21.526a8.123,8.123,0,0,1,8.115-8.114H367.768a8.124,8.124,0,0,1,8.115,8.114V159.135a8.124,8.124,0,0,1-8.115,8.114M230.161,16.369A5.162,5.162,0,0,0,225,21.526V159.135a5.162,5.162,0,0,0,5.157,5.157H367.768a5.162,5.162,0,0,0,5.157-5.157V21.526a5.162,5.162,0,0,0-5.157-5.157Z" fill="#fff"/><path d="M387.816,96.245a1.479,1.479,0,0,1-1.479-1.479V91.809a1.479,1.479,0,0,1,2.958,0v2.957a1.479,1.479,0,0,1-1.479,1.479" fill="#82273f"/><path d="M387.816,81.525a1.479,1.479,0,0,1-1.479-1.479V74.165a1.479,1.479,0,1,1,2.957,0v5.881a1.479,1.479,0,0,1-1.478,1.479m-177.7-.02a1.479,1.479,0,0,1-1.479-1.479V74.143a1.479,1.479,0,0,1,2.957,0v5.883a1.479,1.479,0,0,1-1.478,1.479m177.7-17.624a1.479,1.479,0,0,1-1.479-1.479V56.519a1.479,1.479,0,1,1,2.957,0V62.4a1.479,1.479,0,0,1-1.478,1.479m-177.7-.022a1.479,1.479,0,0,1-1.479-1.478V56.5a1.479,1.479,0,1,1,2.957,0v5.882a1.478,1.478,0,0,1-1.478,1.478m177.7-17.624a1.479,1.479,0,0,1-1.479-1.479V38.875a1.479,1.479,0,1,1,2.957,0v5.881a1.479,1.479,0,0,1-1.478,1.479m-177.7-.02a1.479,1.479,0,0,1-1.479-1.479V38.853a1.479,1.479,0,0,1,2.957,0v5.883a1.479,1.479,0,0,1-1.478,1.479m177.7-17.624a1.479,1.479,0,0,1-1.479-1.479V21.229a1.479,1.479,0,1,1,2.957,0v5.883a1.479,1.479,0,0,1-1.478,1.479m-177.7-.022a1.479,1.479,0,0,1-1.479-1.479V21.209a1.479,1.479,0,1,1,2.957,0V27.09a1.479,1.479,0,0,1-1.478,1.479M386.8,11.08a1.477,1.477,0,0,1-1.365-.91A11.7,11.7,0,0,0,382.9,6.391c-.151-.15-.307-.3-.468-.442a1.479,1.479,0,0,1,1.973-2.2c.2.179.4.364.584.552a14.625,14.625,0,0,1,3.175,4.734,1.478,1.478,0,0,1-.795,1.933,1.45,1.45,0,0,1-.569.115m-175.669-.019a1.5,1.5,0,0,1-.57-.115,1.479,1.479,0,0,1-.793-1.935,14.583,14.583,0,0,1,3.164-4.71q.294-.294.6-.57a1.478,1.478,0,1,1,1.968,2.206c-.164.146-.324.3-.48.454a11.663,11.663,0,0,0-2.527,3.762,1.479,1.479,0,0,1-1.365.908M372.5,2.958h-5.882a1.479,1.479,0,1,1,0-2.957H372.5a1.479,1.479,0,0,1,0,2.957m-17.646,0h-5.881a1.479,1.479,0,1,1,0-2.957h5.881a1.479,1.479,0,1,1,0,2.957m-17.645,0h-5.881a1.479,1.479,0,1,1,0-2.957H337.2a1.479,1.479,0,1,1,0,2.957m-17.645,0h-5.881a1.479,1.479,0,1,1,0-2.957h5.881a1.479,1.479,0,1,1,0,2.957m-17.645,0h-5.881a1.479,1.479,0,1,1,0-2.957h5.881a1.479,1.479,0,1,1,0,2.957m-17.644,0h-5.882a1.479,1.479,0,1,1,0-2.957h5.882a1.479,1.479,0,1,1,0,2.957m-17.645,0h-5.882a1.479,1.479,0,1,1,0-2.957h5.882a1.479,1.479,0,1,1,0,2.957m-17.645,0H243.1A1.479,1.479,0,1,1,243.1,0h5.882a1.479,1.479,0,1,1,0,2.957m-17.645,0h-5.882a1.479,1.479,0,1,1,0-2.957h5.882a1.479,1.479,0,1,1,0,2.957" fill="#82273f"/><path d="M210.114,96.245a1.479,1.479,0,0,1-1.479-1.479V91.809a1.479,1.479,0,0,1,2.958,0v2.957a1.479,1.479,0,0,1-1.479,1.479" fill="#82273f"/><path d="M374.614,180.66h-151.3a14.681,14.681,0,0,1-14.68-14.68V90.33h2.957v75.65A11.723,11.723,0,0,0,223.315,177.7h151.3a11.723,11.723,0,0,0,11.723-11.723V88.851H409.9v2.958h-20.6V165.98a14.681,14.681,0,0,1-14.68,14.68" fill="#82273f"/><path d="M407.739,97.7l12.767-7.373-12.767-7.372Z" fill="#82273f"/><path d="M581.416,165.77H440.257a4.86,4.86,0,0,1-4.86-4.86V19.751a4.86,4.86,0,0,1,4.86-4.86H581.416a4.86,4.86,0,0,1,4.86,4.86V160.91a4.86,4.86,0,0,1-4.86,4.86" fill="#a3314f"/><path d="M579.641,167.249H442.033a8.124,8.124,0,0,1-8.115-8.114V21.526a8.124,8.124,0,0,1,8.115-8.114H579.641a8.123,8.123,0,0,1,8.114,8.114V159.135a8.123,8.123,0,0,1-8.114,8.114M442.033,16.369a5.162,5.162,0,0,0-5.157,5.157V159.135a5.162,5.162,0,0,0,5.157,5.157H579.641a5.162,5.162,0,0,0,5.156-5.157V21.526a5.162,5.162,0,0,0-5.156-5.157Z" fill="#fff"/><path d="M599.687,90.33a1.479,1.479,0,0,1-1.479-1.479V85.894a1.479,1.479,0,0,1,2.958,0v2.957a1.479,1.479,0,0,1-1.479,1.479" fill="#a3314f"/><path d="M584.367,180.66h-5.882a1.479,1.479,0,0,1,0-2.957h5.882a1.479,1.479,0,0,1,0,2.957m-17.645,0H560.84a1.479,1.479,0,0,1,0-2.957h5.882a1.479,1.479,0,0,1,0,2.957m-17.645,0H543.2a1.479,1.479,0,1,1,0-2.957h5.882a1.479,1.479,0,0,1,0,2.957m-17.645,0H525.55a1.479,1.479,0,0,1,0-2.957h5.882a1.479,1.479,0,0,1,0,2.957m-17.645,0H507.9a1.479,1.479,0,1,1,0-2.957h5.882a1.479,1.479,0,0,1,0,2.957m-17.645,0H490.26a1.479,1.479,0,1,1,0-2.957h5.882a1.479,1.479,0,1,1,0,2.957m-17.645,0h-5.882a1.479,1.479,0,1,1,0-2.957H478.5a1.479,1.479,0,1,1,0,2.957m-17.645,0H454.97a1.479,1.479,0,1,1,0-2.957h5.882a1.479,1.479,0,1,1,0,2.957m-17.645,0h-5.882a1.479,1.479,0,1,1,0-2.957h5.882a1.479,1.479,0,1,1,0,2.957m-16.814-3.354a1.474,1.474,0,0,1-.984-.376q-.309-.276-.6-.57a14.583,14.583,0,0,1-3.164-4.71,1.479,1.479,0,0,1,2.728-1.142,11.662,11.662,0,0,0,2.527,3.762c.156.156.316.308.48.454a1.478,1.478,0,0,1-.984,2.582m168.9-.014a1.479,1.479,0,0,1-.988-2.58q.241-.216.471-.445a11.676,11.676,0,0,0,2.532-3.776,1.478,1.478,0,0,1,2.729,1.138,14.621,14.621,0,0,1-3.172,4.731q-.288.286-.586.555a1.477,1.477,0,0,1-.986.377M421.985,160.931a1.479,1.479,0,0,1-1.479-1.479v-5.881a1.479,1.479,0,1,1,2.957,0v5.881a1.479,1.479,0,0,1-1.478,1.479m177.7-.02a1.479,1.479,0,0,1-1.479-1.479v-5.883a1.479,1.479,0,0,1,2.958,0v5.883a1.479,1.479,0,0,1-1.479,1.479m-177.7-17.625a1.479,1.479,0,0,1-1.479-1.478v-5.883a1.479,1.479,0,1,1,2.957,0v5.883a1.478,1.478,0,0,1-1.478,1.478m177.7-.021a1.479,1.479,0,0,1-1.479-1.479V135.9a1.479,1.479,0,1,1,2.958,0v5.881a1.479,1.479,0,0,1-1.479,1.479m-177.7-17.624a1.479,1.479,0,0,1-1.479-1.479V118.28a1.479,1.479,0,0,1,2.957,0v5.882a1.479,1.479,0,0,1-1.478,1.479m177.7-.02a1.479,1.479,0,0,1-1.479-1.479v-5.883a1.479,1.479,0,1,1,2.958,0v5.883a1.479,1.479,0,0,1-1.479,1.479M421.985,108a1.479,1.479,0,0,1-1.479-1.478v-5.883a1.479,1.479,0,1,1,2.957,0v5.883A1.478,1.478,0,0,1,421.985,108m177.7-.021a1.479,1.479,0,0,1-1.479-1.479v-5.881a1.479,1.479,0,0,1,2.958,0V106.5a1.479,1.479,0,0,1-1.479,1.479" fill="#a3314f"/><path d="M421.985,90.33a1.479,1.479,0,0,1-1.479-1.479V85.894a1.479,1.479,0,1,1,2.958,0v2.957a1.479,1.479,0,0,1-1.479,1.479" fill="#a3314f"/><path d="M621.768,91.809H598.209V14.681A11.721,11.721,0,0,0,586.486,2.958h-151.3a11.721,11.721,0,0,0-11.723,11.723V90.33h-2.957V14.681A14.683,14.683,0,0,1,435.187,0h151.3a14.683,14.683,0,0,1,14.68,14.681V88.852h20.6Z" fill="#a3314f"/><path d="M619.611,97.7l12.767-7.373-12.767-7.372Z" fill="#a3314f"/><path d="M792.978,165.77H651.819a4.86,4.86,0,0,1-4.86-4.86V19.751a4.86,4.86,0,0,1,4.86-4.86H792.978a4.86,4.86,0,0,1,4.86,4.86V160.91a4.86,4.86,0,0,1-4.86,4.86" fill="#621d2f"/><path d="M791.2,167.249H653.595a8.124,8.124,0,0,1-8.115-8.114V21.526a8.124,8.124,0,0,1,8.115-8.114H791.2a8.124,8.124,0,0,1,8.115,8.114V159.135a8.124,8.124,0,0,1-8.115,8.114M653.595,16.369a5.162,5.162,0,0,0-5.157,5.157V159.135a5.162,5.162,0,0,0,5.157,5.157H791.2a5.162,5.162,0,0,0,5.157-5.157V21.526a5.162,5.162,0,0,0-5.157-5.157Z" fill="#fff"/><path d="M811.249,96.245a1.479,1.479,0,0,1-1.479-1.479V91.809a1.479,1.479,0,0,1,2.958,0v2.957a1.479,1.479,0,0,1-1.479,1.479" fill="#621d2f"/><path d="M811.249,81.525a1.479,1.479,0,0,1-1.479-1.479V74.165a1.478,1.478,0,1,1,2.957,0v5.881a1.479,1.479,0,0,1-1.478,1.479m-177.7-.02a1.479,1.479,0,0,1-1.479-1.479V74.143a1.479,1.479,0,0,1,2.957,0v5.883a1.479,1.479,0,0,1-1.478,1.479m177.7-17.624A1.479,1.479,0,0,1,809.77,62.4V56.519a1.478,1.478,0,1,1,2.957,0V62.4a1.479,1.479,0,0,1-1.478,1.479m-177.7-.022a1.479,1.479,0,0,1-1.479-1.478V56.5a1.479,1.479,0,1,1,2.957,0v5.882a1.478,1.478,0,0,1-1.478,1.478m177.7-17.624a1.479,1.479,0,0,1-1.479-1.479V38.875a1.478,1.478,0,1,1,2.957,0v5.881a1.479,1.479,0,0,1-1.478,1.479m-177.7-.02a1.479,1.479,0,0,1-1.479-1.479V38.853a1.479,1.479,0,0,1,2.957,0v5.883a1.479,1.479,0,0,1-1.478,1.479m177.7-17.624a1.479,1.479,0,0,1-1.479-1.479V21.229a1.478,1.478,0,1,1,2.957,0v5.883a1.479,1.479,0,0,1-1.478,1.479m-177.7-.022a1.479,1.479,0,0,1-1.479-1.479V21.209a1.479,1.479,0,1,1,2.957,0V27.09a1.479,1.479,0,0,1-1.478,1.479M810.236,11.08a1.478,1.478,0,0,1-1.365-.91,11.7,11.7,0,0,0-2.535-3.779c-.151-.15-.307-.3-.468-.442a1.479,1.479,0,0,1,1.973-2.2c.2.179.4.364.584.552A14.624,14.624,0,0,1,811.6,9.032a1.478,1.478,0,0,1-.795,1.933,1.45,1.45,0,0,1-.569.115m-175.669-.019a1.5,1.5,0,0,1-.57-.115,1.479,1.479,0,0,1-.793-1.935,14.583,14.583,0,0,1,3.164-4.71q.294-.294.6-.57a1.478,1.478,0,1,1,1.968,2.206c-.164.146-.324.3-.48.454a11.662,11.662,0,0,0-2.527,3.762,1.48,1.48,0,0,1-1.365.908m161.361-8.1h-5.881a1.479,1.479,0,1,1,0-2.957h5.881a1.479,1.479,0,1,1,0,2.957m-17.645,0H772.4A1.479,1.479,0,1,1,772.4,0h5.881a1.479,1.479,0,1,1,0,2.957m-17.645,0h-5.881a1.479,1.479,0,1,1,0-2.957h5.881a1.479,1.479,0,1,1,0,2.957m-17.645,0h-5.881a1.479,1.479,0,1,1,0-2.957h5.881a1.479,1.479,0,1,1,0,2.957m-17.645,0h-5.881a1.479,1.479,0,1,1,0-2.957h5.881a1.479,1.479,0,1,1,0,2.957m-17.644,0h-5.882a1.479,1.479,0,1,1,0-2.957H707.7a1.479,1.479,0,1,1,0,2.957m-17.645,0h-5.882a1.479,1.479,0,1,1,0-2.957h5.882a1.479,1.479,0,1,1,0,2.957m-17.645,0h-5.882a1.479,1.479,0,1,1,0-2.957h5.882a1.479,1.479,0,1,1,0,2.957m-17.645,0h-5.882a1.479,1.479,0,1,1,0-2.957h5.882a1.479,1.479,0,1,1,0,2.957" fill="#621d2f"/><path d="M633.547,96.245a1.479,1.479,0,0,1-1.479-1.479V91.809a1.479,1.479,0,0,1,2.958,0v2.957a1.479,1.479,0,0,1-1.479,1.479" fill="#621d2f"/><path d="M798.047,180.66h-151.3a14.681,14.681,0,0,1-14.68-14.68V90.33h2.957v75.65A11.723,11.723,0,0,0,646.748,177.7h151.3A11.724,11.724,0,0,0,809.77,165.98V88.851h23.559v2.958h-20.6V165.98a14.681,14.681,0,0,1-14.68,14.68" fill="#621d2f"/><path d="M831.172,97.7l12.767-7.373-12.767-7.372Z" fill="#621d2f"/><path d="M1004.849,165.77H863.69a4.86,4.86,0,0,1-4.86-4.86V19.751a4.86,4.86,0,0,1,4.86-4.86h141.159a4.86,4.86,0,0,1,4.86,4.86V160.91a4.86,4.86,0,0,1-4.86,4.86" fill="#82273f"/><path d="M1003.073,167.249H865.466a8.124,8.124,0,0,1-8.115-8.114V21.526a8.124,8.124,0,0,1,8.115-8.114h137.607a8.124,8.124,0,0,1,8.115,8.114V159.135a8.124,8.124,0,0,1-8.115,8.114M865.466,16.369a5.162,5.162,0,0,0-5.157,5.157V159.135a5.162,5.162,0,0,0,5.157,5.157h137.607a5.162,5.162,0,0,0,5.157-5.157V21.526a5.162,5.162,0,0,0-5.157-5.157Z" fill="#fff"/><path d="M1023.121,90.33a1.479,1.479,0,0,1-1.479-1.479V85.894a1.479,1.479,0,1,1,2.958,0v2.957a1.479,1.479,0,0,1-1.479,1.479" fill="#82273f"/><path d="M1007.8,180.66h-5.882a1.479,1.479,0,0,1,0-2.957h5.882a1.479,1.479,0,0,1,0,2.957m-17.645,0h-5.882a1.479,1.479,0,0,1,0-2.957h5.882a1.479,1.479,0,0,1,0,2.957m-17.645,0h-5.882a1.479,1.479,0,1,1,0-2.957h5.882a1.479,1.479,0,0,1,0,2.957m-17.645,0h-5.882a1.479,1.479,0,0,1,0-2.957h5.882a1.479,1.479,0,0,1,0,2.957m-17.645,0h-5.882a1.479,1.479,0,1,1,0-2.957h5.882a1.479,1.479,0,0,1,0,2.957m-17.645,0h-5.882a1.479,1.479,0,1,1,0-2.957h5.882a1.479,1.479,0,1,1,0,2.957m-17.645,0h-5.882a1.479,1.479,0,1,1,0-2.957h5.882a1.479,1.479,0,1,1,0,2.957m-17.645,0H878.4a1.479,1.479,0,1,1,0-2.957h5.882a1.479,1.479,0,1,1,0,2.957m-17.645,0h-5.882a1.479,1.479,0,1,1,0-2.957h5.882a1.479,1.479,0,1,1,0,2.957m-16.814-3.354a1.474,1.474,0,0,1-.984-.376q-.309-.276-.6-.57a14.6,14.6,0,0,1-3.164-4.71,1.479,1.479,0,0,1,2.728-1.142,11.662,11.662,0,0,0,2.527,3.762c.156.156.316.308.48.454a1.478,1.478,0,0,1-.984,2.582m168.9-.014a1.479,1.479,0,0,1-.988-2.58q.242-.216.471-.445a11.677,11.677,0,0,0,2.532-3.776,1.478,1.478,0,0,1,2.729,1.138,14.62,14.62,0,0,1-3.172,4.731q-.288.286-.586.555a1.477,1.477,0,0,1-.986.377M845.419,160.931a1.479,1.479,0,0,1-1.479-1.479v-5.881a1.478,1.478,0,1,1,2.957,0v5.881a1.479,1.479,0,0,1-1.478,1.479m177.7-.02a1.479,1.479,0,0,1-1.479-1.479v-5.883a1.479,1.479,0,0,1,2.958,0v5.883a1.479,1.479,0,0,1-1.479,1.479m-177.7-17.625a1.479,1.479,0,0,1-1.479-1.478v-5.883a1.478,1.478,0,1,1,2.957,0v5.883a1.478,1.478,0,0,1-1.478,1.478m177.7-.021a1.479,1.479,0,0,1-1.479-1.479V135.9a1.479,1.479,0,1,1,2.958,0v5.881a1.479,1.479,0,0,1-1.479,1.479m-177.7-17.624a1.479,1.479,0,0,1-1.479-1.479V118.28a1.478,1.478,0,0,1,2.957,0v5.882a1.479,1.479,0,0,1-1.478,1.479m177.7-.02a1.479,1.479,0,0,1-1.479-1.479v-5.883a1.479,1.479,0,1,1,2.958,0v5.883a1.479,1.479,0,0,1-1.479,1.479M845.419,108a1.479,1.479,0,0,1-1.479-1.478v-5.883a1.478,1.478,0,1,1,2.957,0v5.883A1.478,1.478,0,0,1,845.419,108m177.7-.021a1.479,1.479,0,0,1-1.479-1.479v-5.881a1.479,1.479,0,1,1,2.958,0V106.5a1.479,1.479,0,0,1-1.479,1.479" fill="#82273f"/><path d="M845.419,90.33a1.479,1.479,0,0,1-1.479-1.479V85.894a1.478,1.478,0,1,1,2.957,0v2.957a1.479,1.479,0,0,1-1.478,1.479" fill="#82273f"/><path d="M1045.2,91.809h-23.559V14.681a11.721,11.721,0,0,0-11.723-11.723H858.62A11.721,11.721,0,0,0,846.9,14.681V90.33H843.94V14.681A14.683,14.683,0,0,1,858.62,0h151.3a14.683,14.683,0,0,1,14.68,14.681V88.852h20.6Z" fill="#82273f"/><path d="M1043.044,97.7l12.767-7.373-12.767-7.372Z" fill="#82273f"/></g></g><path d="M1.166,39.843H-1.166V0H1.166Z" transform="translate(271.89 9263.657)" fill="#621d2f"/><path d="M1.166,39.843H-1.166V0H1.166Z" transform="translate(691.89 9263.657)" fill="#621d2f"/><path d="M1.166,39.843H-1.166V0H1.166Z" transform="translate(1111.89 9263.657)" fill="#621d2f"/><path d="M1.166,57.5H-1.166V0H1.166Z" transform="translate(481.89 9025.5)" fill="#621d2f"/><path d="M1.166,57.5H-1.166V0H1.166Z" transform="translate(903.779 9025.5)" fill="#621d2f"/><path d="M1.166,57.5H-1.166V0H1.166Z" transform="translate(1325.669 9025.5)" fill="#621d2f"/><path d="M14.129,17V5.625h3.664a5.39,5.39,0,0,1,2.711.684,4.805,4.805,0,0,1,1.879,1.93,5.826,5.826,0,0,1,.684,2.793v.523a5.86,5.86,0,0,1-.66,2.8,4.826,4.826,0,0,1-1.859,1.938A5.271,5.271,0,0,1,17.871,17Zm2.742-9.258v7.148h.953a2.133,2.133,0,0,0,1.813-.84,4.116,4.116,0,0,0,.633-2.5v-.492a4.082,4.082,0,0,0-.633-2.484,2.17,2.17,0,0,0-1.844-.836Zm11.57,9.414A4.345,4.345,0,0,1,25.293,16a4.006,4.006,0,0,1-1.2-3.02v-.219a5.191,5.191,0,0,1,.48-2.289,3.516,3.516,0,0,1,1.4-1.535,4.233,4.233,0,0,1,2.188-.543A3.659,3.659,0,0,1,30.973,9.5,4.344,4.344,0,0,1,32,12.578V13.6H26.77a1.9,1.9,0,0,0,.617,1.117,1.836,1.836,0,0,0,1.234.406,2.366,2.366,0,0,0,1.953-.875l1.2,1.422a3.363,3.363,0,0,1-1.395,1.082A4.713,4.713,0,0,1,28.441,17.156Zm-.3-6.734q-1.156,0-1.375,1.531h2.656v-.2a1.3,1.3,0,0,0-.32-.98A1.275,1.275,0,0,0,28.145,10.422ZM33.676,17V10.375H32.449V8.547h1.227V8.266A3.228,3.228,0,0,1,34.785,5.68a4.433,4.433,0,0,1,2.883-.844,10.23,10.23,0,0,1,2.75.453l-.359,2.078-.437-.117a6.962,6.962,0,0,0-1.8-.227q-1.508,0-1.508,1.375v.148h1.656v1.828H36.316V17Zm7.953,0H38.98V8.547h2.648Zm4.023-8.453.086.992a2.867,2.867,0,0,1,2.414-1.148,2.412,2.412,0,0,1,1.973.789,3.757,3.757,0,0,1,.676,2.375V17H48.16V11.664a1.426,1.426,0,0,0-.258-.941,1.193,1.193,0,0,0-.937-.3,1.256,1.256,0,0,0-1.148.609V17H43.184V8.547ZM55.035,17H52.395V8.547h2.641Zm-2.8-10.633a1.175,1.175,0,0,1,.406-.922,1.727,1.727,0,0,1,2.109,0,1.175,1.175,0,0,1,.406.922,1.175,1.175,0,0,1-.406.922,1.727,1.727,0,0,1-2.109,0A1.175,1.175,0,0,1,52.238,6.367Zm7.992,8.758a1.171,1.171,0,0,0,.859-.3,1.1,1.1,0,0,0,.3-.84h2.469a2.922,2.922,0,0,1-1,2.281,3.705,3.705,0,0,1-2.566.891A3.751,3.751,0,0,1,57.387,16a4.556,4.556,0,0,1-1.062-3.2v-.109a5.149,5.149,0,0,1,.473-2.262A3.441,3.441,0,0,1,58.16,8.918a4.065,4.065,0,0,1,2.109-.527,3.658,3.658,0,0,1,2.617.914,3.242,3.242,0,0,1,.969,2.477H61.387a1.445,1.445,0,0,0-.32-1.008,1.106,1.106,0,0,0-.859-.352q-1.023,0-1.2,1.3a9.206,9.206,0,0,0-.055,1.141,3.616,3.616,0,0,0,.3,1.766A1.055,1.055,0,0,0,60.23,15.125ZM67.746,17H65.105V8.547h2.641Zm-2.8-10.633a1.175,1.175,0,0,1,.406-.922,1.727,1.727,0,0,1,2.109,0,1.175,1.175,0,0,1,.406.922,1.175,1.175,0,0,1-.406.922,1.727,1.727,0,0,1-2.109,0A1.175,1.175,0,0,1,64.949,6.367ZM69.035,12.7a4.989,4.989,0,0,1,.492-2.254,3.52,3.52,0,0,1,1.414-1.52,4.259,4.259,0,0,1,2.164-.531A3.887,3.887,0,0,1,76.1,9.566a4.512,4.512,0,0,1,1.094,3.2v.094A4.378,4.378,0,0,1,76.094,16a3.9,3.9,0,0,1-2.973,1.16,3.942,3.942,0,0,1-2.9-1.082,4.232,4.232,0,0,1-1.18-2.934Zm2.633.164a3.145,3.145,0,0,0,.367,1.719,1.223,1.223,0,0,0,1.086.547q1.406,0,1.438-2.164V12.7q0-2.273-1.453-2.273-1.32,0-1.43,1.961ZM73.465,5h2.781L74.074,7.453l-2.148,0Zm7.3,3.547.086.992A2.867,2.867,0,0,1,83.27,8.391a2.412,2.412,0,0,1,1.973.789,3.757,3.757,0,0,1,.676,2.375V17H83.277V11.664a1.426,1.426,0,0,0-.258-.941,1.193,1.193,0,0,0-.937-.3,1.256,1.256,0,0,0-1.148.609V17H78.3V8.547Zm10.258,4.164a5.164,5.164,0,0,1,.867-3.164,2.854,2.854,0,0,1,2.422-1.156,2.428,2.428,0,0,1,1.906.891V5h2.641V17H96.5l-.133-.906A2.493,2.493,0,0,1,94.3,17.156,2.849,2.849,0,0,1,91.91,16,5.327,5.327,0,0,1,91.027,12.711Zm2.633.164q0,2.25,1.313,2.25a1.3,1.3,0,0,0,1.25-.734V11.172a1.261,1.261,0,0,0-1.234-.75q-1.219,0-1.32,1.969Zm10.789,4.281A4.345,4.345,0,0,1,101.3,16a4.006,4.006,0,0,1-1.2-3.02v-.219a5.191,5.191,0,0,1,.48-2.289,3.516,3.516,0,0,1,1.4-1.535,4.233,4.233,0,0,1,2.188-.543A3.659,3.659,0,0,1,106.98,9.5a4.344,4.344,0,0,1,1.031,3.082V13.6h-5.234a1.9,1.9,0,0,0,.617,1.117,1.836,1.836,0,0,0,1.234.406,2.366,2.366,0,0,0,1.953-.875l1.2,1.422a3.363,3.363,0,0,1-1.395,1.082A4.713,4.713,0,0,1,104.449,17.156Zm-.3-6.734q-1.156,0-1.375,1.531h2.656v-.2a1.3,1.3,0,0,0-.32-.98A1.275,1.275,0,0,0,104.152,10.422Zm7.7,6.578h-2.641V5h2.641ZM42.6,37.836a5.1,5.1,0,0,1-.887,3.145,2.843,2.843,0,0,1-2.395,1.176A2.437,2.437,0,0,1,37.4,41.3V45.25H34.77v-11.7H37.23l.078.781a2.437,2.437,0,0,1,1.992-.937,2.866,2.866,0,0,1,2.43,1.152,5.16,5.16,0,0,1,.867,3.168Zm-2.633-.164q0-2.25-1.312-2.25a1.239,1.239,0,0,0-1.25.672v3.328a1.279,1.279,0,0,0,1.266.7q1.258,0,1.3-2.172Zm8.906-1.742L48,35.867a1.558,1.558,0,0,0-1.594.781V42H43.777V33.547h2.469l.086,1.086a2.039,2.039,0,0,1,1.852-1.242,2.567,2.567,0,0,1,.734.094Zm.336,1.766a4.989,4.989,0,0,1,.492-2.254,3.52,3.52,0,0,1,1.414-1.52,4.259,4.259,0,0,1,2.164-.531,3.887,3.887,0,0,1,2.992,1.176,4.512,4.512,0,0,1,1.094,3.2v.094A4.378,4.378,0,0,1,56.266,41a3.9,3.9,0,0,1-2.973,1.16,3.942,3.942,0,0,1-2.9-1.082,4.232,4.232,0,0,1-1.18-2.934Zm2.633.164a3.145,3.145,0,0,0,.367,1.719,1.223,1.223,0,0,0,1.086.547q1.406,0,1.438-2.164V37.7q0-2.273-1.453-2.273-1.32,0-1.43,1.961ZM62.1,40.125a1.171,1.171,0,0,0,.859-.3,1.1,1.1,0,0,0,.3-.84h2.469a2.923,2.923,0,0,1-1,2.281,3.705,3.705,0,0,1-2.566.891A3.751,3.751,0,0,1,59.254,41a4.556,4.556,0,0,1-1.062-3.2v-.109a5.149,5.149,0,0,1,.473-2.262,3.441,3.441,0,0,1,1.363-1.508,4.065,4.065,0,0,1,2.109-.527,3.658,3.658,0,0,1,2.617.914,3.242,3.242,0,0,1,.969,2.477H63.254a1.445,1.445,0,0,0-.32-1.008,1.106,1.106,0,0,0-.859-.352q-1.023,0-1.2,1.3a9.206,9.206,0,0,0-.055,1.141,3.616,3.616,0,0,0,.3,1.766A1.055,1.055,0,0,0,62.1,40.125Zm8.828,2.031A4.345,4.345,0,0,1,67.777,41a4.006,4.006,0,0,1-1.2-3.02v-.219a5.191,5.191,0,0,1,.48-2.289,3.516,3.516,0,0,1,1.4-1.535,4.233,4.233,0,0,1,2.188-.543A3.659,3.659,0,0,1,73.457,34.5a4.344,4.344,0,0,1,1.031,3.082V38.6H69.254a1.9,1.9,0,0,0,.617,1.117,1.836,1.836,0,0,0,1.234.406,2.366,2.366,0,0,0,1.953-.875l1.2,1.422a3.363,3.363,0,0,1-1.395,1.082A4.713,4.713,0,0,1,70.926,42.156Zm-.3-6.734q-1.156,0-1.375,1.531H71.91v-.2a1.3,1.3,0,0,0-.32-.98A1.275,1.275,0,0,0,70.629,35.422Zm9.344,4.2a.608.608,0,0,0-.352-.539,5.347,5.347,0,0,0-1.336-.422,6.092,6.092,0,0,1-1.625-.574,2.722,2.722,0,0,1-.977-.863,2.061,2.061,0,0,1-.336-1.164,2.336,2.336,0,0,1,.961-1.918,3.958,3.958,0,0,1,2.516-.754,4.386,4.386,0,0,1,2.688.758,2.37,2.37,0,0,1,1.016,1.992H79.887q0-1.016-1.07-1.016a1.061,1.061,0,0,0-.7.23.714.714,0,0,0-.281.574.655.655,0,0,0,.344.57,3.248,3.248,0,0,0,1.1.359,9.486,9.486,0,0,1,1.324.336,2.406,2.406,0,0,1,1.906,2.352,2.214,2.214,0,0,1-1.027,1.883,4.505,4.505,0,0,1-2.66.727,4.6,4.6,0,0,1-1.937-.391A3.24,3.24,0,0,1,75.559,40.7a2.406,2.406,0,0,1-.477-1.414h2.461a1.017,1.017,0,0,0,.391.855,1.607,1.607,0,0,0,.961.27A1.264,1.264,0,0,0,79.7,40.2.7.7,0,0,0,79.973,39.625ZM83.41,37.7a4.989,4.989,0,0,1,.492-2.254,3.52,3.52,0,0,1,1.414-1.52,4.259,4.259,0,0,1,2.164-.531,3.887,3.887,0,0,1,2.992,1.176,4.512,4.512,0,0,1,1.094,3.2v.094A4.378,4.378,0,0,1,90.469,41a3.9,3.9,0,0,1-2.973,1.16,3.942,3.942,0,0,1-2.9-1.082,4.232,4.232,0,0,1-1.18-2.934Zm2.633.164a3.145,3.145,0,0,0,.367,1.719,1.223,1.223,0,0,0,1.086.547q1.406,0,1.438-2.164V37.7q0-2.273-1.453-2.273-1.32,0-1.43,1.961Z" transform="translate(208 9193.966)" fill="#fff"/><path d="M6.359,17H3.625V5.625H6.359Zm1.453-4.289A5.164,5.164,0,0,1,8.68,9.547,2.854,2.854,0,0,1,11.1,8.391a2.428,2.428,0,0,1,1.906.891V5h2.641V17H13.281l-.133-.906a2.493,2.493,0,0,1-2.062,1.063A2.849,2.849,0,0,1,8.7,16,5.327,5.327,0,0,1,7.813,12.711Zm2.633.164q0,2.25,1.313,2.25a1.3,1.3,0,0,0,1.25-.734V11.172a1.261,1.261,0,0,0-1.234-.75q-1.219,0-1.32,1.969Zm10.789,4.281A4.345,4.345,0,0,1,18.086,16a4.006,4.006,0,0,1-1.2-3.02v-.219a5.191,5.191,0,0,1,.48-2.289,3.516,3.516,0,0,1,1.4-1.535,4.233,4.233,0,0,1,2.188-.543A3.659,3.659,0,0,1,23.766,9.5,4.344,4.344,0,0,1,24.8,12.578V13.6H19.563a1.9,1.9,0,0,0,.617,1.117,1.836,1.836,0,0,0,1.234.406,2.366,2.366,0,0,0,1.953-.875l1.2,1.422a3.363,3.363,0,0,1-1.395,1.082A4.713,4.713,0,0,1,21.234,17.156Zm-.3-6.734q-1.156,0-1.375,1.531h2.656v-.2a1.3,1.3,0,0,0-.32-.98A1.275,1.275,0,0,0,20.938,10.422Zm7.336-1.875.086.992a2.867,2.867,0,0,1,2.414-1.148,2.412,2.412,0,0,1,1.973.789,3.757,3.757,0,0,1,.676,2.375V17H30.781V11.664a1.426,1.426,0,0,0-.258-.941,1.193,1.193,0,0,0-.937-.3,1.256,1.256,0,0,0-1.148.609V17H25.8V8.547Zm9.672-2.1v2.1h1.391v1.828H37.945v3.867a.987.987,0,0,0,.172.664.922.922,0,0,0,.68.188,3.862,3.862,0,0,0,.656-.047V16.93a4.859,4.859,0,0,1-1.484.227,2.758,2.758,0,0,1-2.008-.641,2.626,2.626,0,0,1-.648-1.945v-4.2H34.234V8.547h1.078v-2.1ZM43.148,17H40.508V8.547h2.641Zm-2.8-10.633a1.175,1.175,0,0,1,.406-.922,1.727,1.727,0,0,1,2.109,0,1.175,1.175,0,0,1,.406.922,1.175,1.175,0,0,1-.406.922,1.727,1.727,0,0,1-2.109,0A1.175,1.175,0,0,1,40.352,6.367ZM45.383,17V10.375H44.156V8.547h1.227V8.266A3.228,3.228,0,0,1,46.492,5.68a4.433,4.433,0,0,1,2.883-.844,10.23,10.23,0,0,1,2.75.453l-.359,2.078-.437-.117a6.962,6.962,0,0,0-1.8-.227q-1.508,0-1.508,1.375v.148H49.68v1.828H48.023V17Zm7.953,0H50.688V8.547h2.648Zm5.18-1.875a1.171,1.171,0,0,0,.859-.3,1.1,1.1,0,0,0,.3-.84h2.469a2.922,2.922,0,0,1-1,2.281,3.705,3.705,0,0,1-2.566.891A3.751,3.751,0,0,1,55.672,16a4.556,4.556,0,0,1-1.062-3.2v-.109a5.149,5.149,0,0,1,.473-2.262,3.441,3.441,0,0,1,1.363-1.508,4.065,4.065,0,0,1,2.109-.527,3.658,3.658,0,0,1,2.617.914,3.242,3.242,0,0,1,.969,2.477H59.672a1.445,1.445,0,0,0-.32-1.008,1.106,1.106,0,0,0-.859-.352q-1.023,0-1.2,1.3a9.206,9.206,0,0,0-.055,1.141,3.616,3.616,0,0,0,.3,1.766A1.055,1.055,0,0,0,58.516,15.125ZM68.016,17a2.973,2.973,0,0,1-.25-.758,2.448,2.448,0,0,1-2.031.914,3,3,0,0,1-2.031-.723,2.3,2.3,0,0,1-.836-1.816,2.364,2.364,0,0,1,1.016-2.078,5.174,5.174,0,0,1,2.953-.7h.813v-.448q0-1.17-1.008-1.17a.824.824,0,0,0-.937.926H63.07a2.36,2.36,0,0,1,1.043-1.99,4.383,4.383,0,0,1,2.66-.765,3.843,3.843,0,0,1,2.555.789,2.743,2.743,0,0,1,.961,2.164v3.742a3.832,3.832,0,0,0,.359,1.781V17Zm-1.648-1.719a1.469,1.469,0,0,0,.816-.211,1.322,1.322,0,0,0,.465-.477V13.242h-.766q-1.375,0-1.375,1.234a.754.754,0,0,0,.242.582A.876.876,0,0,0,66.367,15.281Zm8.953-.156a1.171,1.171,0,0,0,.859-.3,1.1,1.1,0,0,0,.3-.84h2.469a2.922,2.922,0,0,1-1,2.281,3.705,3.705,0,0,1-2.566.891A3.751,3.751,0,0,1,72.477,16a4.556,4.556,0,0,1-1.062-3.2v-.109a5.149,5.149,0,0,1,.473-2.262A3.441,3.441,0,0,1,73.25,8.918a4.065,4.065,0,0,1,2.109-.527,3.658,3.658,0,0,1,2.617.914,3.242,3.242,0,0,1,.969,2.477H76.477a1.445,1.445,0,0,0-.32-1.008,1.106,1.106,0,0,0-.859-.352q-1.023,0-1.2,1.3a9.206,9.206,0,0,0-.055,1.141,3.616,3.616,0,0,0,.3,1.766A1.055,1.055,0,0,0,75.32,15.125ZM82.836,17H80.2V8.547h2.641Zm-2.8-10.633a1.175,1.175,0,0,1,.406-.922,1.727,1.727,0,0,1,2.109,0,1.175,1.175,0,0,1,.406.922,1.175,1.175,0,0,1-.406.922,1.727,1.727,0,0,1-2.109,0A1.175,1.175,0,0,1,80.039,6.367ZM84.125,12.7a4.989,4.989,0,0,1,.492-2.254,3.52,3.52,0,0,1,1.414-1.52A4.259,4.259,0,0,1,88.2,8.391a3.887,3.887,0,0,1,2.992,1.176,4.512,4.512,0,0,1,1.094,3.2v.094A4.378,4.378,0,0,1,91.184,16a3.9,3.9,0,0,1-2.973,1.16,3.942,3.942,0,0,1-2.9-1.082,4.232,4.232,0,0,1-1.18-2.934Zm2.633.164a3.145,3.145,0,0,0,.367,1.719,1.223,1.223,0,0,0,1.086.547q1.406,0,1.438-2.164V12.7q0-2.273-1.453-2.273-1.32,0-1.43,1.961ZM88.555,5h2.781L89.164,7.453l-2.148,0Zm7.3,3.547.086.992a2.867,2.867,0,0,1,2.414-1.148,2.412,2.412,0,0,1,1.973.789,3.757,3.757,0,0,1,.676,2.375V17H98.367V11.664a1.426,1.426,0,0,0-.258-.941,1.193,1.193,0,0,0-.937-.3,1.256,1.256,0,0,0-1.148.609V17H93.391V8.547Zm10.258,4.164a5.164,5.164,0,0,1,.867-3.164,2.854,2.854,0,0,1,2.422-1.156,2.428,2.428,0,0,1,1.906.891V5h2.641V17h-2.367l-.133-.906a2.493,2.493,0,0,1-2.062,1.063A2.849,2.849,0,0,1,107,16,5.327,5.327,0,0,1,106.117,12.711Zm2.633.164q0,2.25,1.313,2.25a1.3,1.3,0,0,0,1.25-.734V11.172a1.261,1.261,0,0,0-1.234-.75q-1.219,0-1.32,1.969Zm10.789,4.281A4.345,4.345,0,0,1,116.391,16a4.006,4.006,0,0,1-1.2-3.02v-.219a5.191,5.191,0,0,1,.48-2.289,3.516,3.516,0,0,1,1.4-1.535,4.233,4.233,0,0,1,2.188-.543A3.659,3.659,0,0,1,122.07,9.5a4.344,4.344,0,0,1,1.031,3.082V13.6h-5.234a1.9,1.9,0,0,0,.617,1.117,1.836,1.836,0,0,0,1.234.406,2.366,2.366,0,0,0,1.953-.875l1.2,1.422a3.363,3.363,0,0,1-1.395,1.082A4.713,4.713,0,0,1,119.539,17.156Zm-.3-6.734q-1.156,0-1.375,1.531h2.656v-.2a1.3,1.3,0,0,0-.32-.98A1.275,1.275,0,0,0,119.242,10.422ZM12.6,42H9.961V30H12.6Zm6.383,0a2.973,2.973,0,0,1-.25-.758,2.448,2.448,0,0,1-2.031.914,3,3,0,0,1-2.031-.723,2.3,2.3,0,0,1-.836-1.816,2.364,2.364,0,0,1,1.016-2.078,5.174,5.174,0,0,1,2.953-.7h.813v-.448q0-1.17-1.008-1.17a.824.824,0,0,0-.937.926H14.039a2.36,2.36,0,0,1,1.043-1.99,4.383,4.383,0,0,1,2.66-.765,3.843,3.843,0,0,1,2.555.789,2.743,2.743,0,0,1,.961,2.164v3.742a3.832,3.832,0,0,0,.359,1.781V42Zm-1.648-1.719a1.469,1.469,0,0,0,.816-.211,1.322,1.322,0,0,0,.465-.477V38.242h-.766q-1.375,0-1.375,1.234a.754.754,0,0,0,.242.582A.876.876,0,0,0,17.336,40.281Zm9.8-.656a.608.608,0,0,0-.352-.539,5.347,5.347,0,0,0-1.336-.422,6.092,6.092,0,0,1-1.625-.574,2.722,2.722,0,0,1-.977-.863,2.061,2.061,0,0,1-.336-1.164,2.336,2.336,0,0,1,.961-1.918,3.958,3.958,0,0,1,2.516-.754,4.386,4.386,0,0,1,2.688.758A2.37,2.37,0,0,1,29.7,36.141H27.055q0-1.016-1.07-1.016a1.061,1.061,0,0,0-.7.23.714.714,0,0,0-.281.574.655.655,0,0,0,.344.57,3.248,3.248,0,0,0,1.1.359,9.486,9.486,0,0,1,1.324.336,2.406,2.406,0,0,1,1.906,2.352,2.214,2.214,0,0,1-1.027,1.883,4.505,4.505,0,0,1-2.66.727,4.6,4.6,0,0,1-1.937-.391A3.24,3.24,0,0,1,22.727,40.7a2.406,2.406,0,0,1-.477-1.414h2.461a1.017,1.017,0,0,0,.391.855,1.607,1.607,0,0,0,.961.27,1.264,1.264,0,0,0,.809-.219A.7.7,0,0,0,27.141,39.625ZM39.656,42a2.973,2.973,0,0,1-.25-.758,2.448,2.448,0,0,1-2.031.914,3,3,0,0,1-2.031-.723,2.3,2.3,0,0,1-.836-1.816,2.364,2.364,0,0,1,1.016-2.078,5.174,5.174,0,0,1,2.953-.7h.813v-.448q0-1.17-1.008-1.17a.824.824,0,0,0-.937.926H34.711a2.36,2.36,0,0,1,1.043-1.99,4.383,4.383,0,0,1,2.66-.765,3.843,3.843,0,0,1,2.555.789,2.743,2.743,0,0,1,.961,2.164v3.742a3.832,3.832,0,0,0,.359,1.781V42Zm-1.648-1.719a1.469,1.469,0,0,0,.816-.211,1.322,1.322,0,0,0,.465-.477V38.242h-.766q-1.375,0-1.375,1.234a.754.754,0,0,0,.242.582A.876.876,0,0,0,38.008,40.281Zm8.953-.156a1.171,1.171,0,0,0,.859-.3,1.1,1.1,0,0,0,.3-.84h2.469a2.923,2.923,0,0,1-1,2.281,3.705,3.705,0,0,1-2.566.891A3.751,3.751,0,0,1,44.117,41a4.556,4.556,0,0,1-1.062-3.2v-.109a5.149,5.149,0,0,1,.473-2.262,3.441,3.441,0,0,1,1.363-1.508A4.065,4.065,0,0,1,47,33.391a3.658,3.658,0,0,1,2.617.914,3.242,3.242,0,0,1,.969,2.477H48.117a1.445,1.445,0,0,0-.32-1.008,1.106,1.106,0,0,0-.859-.352q-1.023,0-1.2,1.3a9.206,9.206,0,0,0-.055,1.141,3.616,3.616,0,0,0,.3,1.766A1.055,1.055,0,0,0,46.961,40.125Zm7.8-8.68v2.1h1.391v1.828H54.766v3.867a.987.987,0,0,0,.172.664.922.922,0,0,0,.68.188,3.862,3.862,0,0,0,.656-.047V41.93a4.859,4.859,0,0,1-1.484.227,2.758,2.758,0,0,1-2.008-.641,2.626,2.626,0,0,1-.648-1.945v-4.2H51.055V33.547h1.078v-2.1ZM59.969,42H57.328V33.547h2.641Zm-2.8-10.633a1.175,1.175,0,0,1,.406-.922,1.727,1.727,0,0,1,2.109,0,1.249,1.249,0,0,1,0,1.844,1.727,1.727,0,0,1-2.109,0A1.175,1.175,0,0,1,57.172,31.367Zm7.789,7.5,1.336-5.32H69.07L66.313,42H63.625l-2.758-8.453h2.781ZM72.633,42H69.992V33.547h2.641Zm-2.8-10.633a1.175,1.175,0,0,1,.406-.922,1.727,1.727,0,0,1,2.109,0,1.249,1.249,0,0,1,0,1.844,1.727,1.727,0,0,1-2.109,0A1.175,1.175,0,0,1,69.836,31.367Zm4.086,6.344a5.164,5.164,0,0,1,.867-3.164,2.854,2.854,0,0,1,2.422-1.156,2.428,2.428,0,0,1,1.906.891V30h2.641V42H79.391l-.133-.906A2.493,2.493,0,0,1,77.2,42.156,2.849,2.849,0,0,1,74.8,41,5.327,5.327,0,0,1,73.922,37.711Zm2.633.164q0,2.25,1.313,2.25a1.3,1.3,0,0,0,1.25-.734V36.172a1.261,1.261,0,0,0-1.234-.75q-1.219,0-1.32,1.969ZM88.016,42a2.973,2.973,0,0,1-.25-.758,2.448,2.448,0,0,1-2.031.914,3,3,0,0,1-2.031-.723,2.3,2.3,0,0,1-.836-1.816,2.364,2.364,0,0,1,1.016-2.078,5.174,5.174,0,0,1,2.953-.7h.813v-.448q0-1.17-1.008-1.17a.824.824,0,0,0-.937.926H83.07a2.36,2.36,0,0,1,1.043-1.99,4.383,4.383,0,0,1,2.66-.765,3.843,3.843,0,0,1,2.555.789,2.743,2.743,0,0,1,.961,2.164v3.742a3.832,3.832,0,0,0,.359,1.781V42Zm-1.648-1.719a1.469,1.469,0,0,0,.816-.211,1.322,1.322,0,0,0,.465-.477V38.242h-.766q-1.375,0-1.375,1.234a.754.754,0,0,0,.242.582A.876.876,0,0,0,86.367,40.281Zm5.047-2.57a5.164,5.164,0,0,1,.867-3.164A2.854,2.854,0,0,1,94.7,33.391a2.428,2.428,0,0,1,1.906.891V30H99.25V42H96.883l-.133-.906a2.493,2.493,0,0,1-2.062,1.063A2.849,2.849,0,0,1,92.3,41,5.327,5.327,0,0,1,91.414,37.711Zm2.633.164q0,2.25,1.313,2.25a1.3,1.3,0,0,0,1.25-.734V36.172a1.261,1.261,0,0,0-1.234-.75q-1.219,0-1.32,1.969Zm10.789,4.281A4.345,4.345,0,0,1,101.688,41a4.006,4.006,0,0,1-1.2-3.02v-.219a5.191,5.191,0,0,1,.48-2.289,3.516,3.516,0,0,1,1.4-1.535,4.233,4.233,0,0,1,2.188-.543,3.659,3.659,0,0,1,2.813,1.105,4.344,4.344,0,0,1,1.031,3.082V38.6h-5.234a1.9,1.9,0,0,0,.617,1.117,1.836,1.836,0,0,0,1.234.406,2.366,2.366,0,0,0,1.953-.875l1.2,1.422a3.363,3.363,0,0,1-1.395,1.082A4.713,4.713,0,0,1,104.836,42.156Zm-.3-6.734q-1.156,0-1.375,1.531h2.656v-.2a1.3,1.3,0,0,0-.32-.98A1.275,1.275,0,0,0,104.539,35.422Zm9.344,4.2a.608.608,0,0,0-.352-.539,5.347,5.347,0,0,0-1.336-.422,6.092,6.092,0,0,1-1.625-.574,2.722,2.722,0,0,1-.977-.863,2.061,2.061,0,0,1-.336-1.164,2.336,2.336,0,0,1,.961-1.918,3.958,3.958,0,0,1,2.516-.754,4.386,4.386,0,0,1,2.688.758,2.37,2.37,0,0,1,1.016,1.992H113.8q0-1.016-1.07-1.016a1.061,1.061,0,0,0-.7.23.714.714,0,0,0-.281.574.655.655,0,0,0,.344.57,3.248,3.248,0,0,0,1.1.359,9.486,9.486,0,0,1,1.324.336,2.406,2.406,0,0,1,1.906,2.352,2.214,2.214,0,0,1-1.027,1.883,4.505,4.505,0,0,1-2.66.727,4.6,4.6,0,0,1-1.937-.391,3.24,3.24,0,0,1-1.328-1.062,2.406,2.406,0,0,1-.477-1.414h2.461a1.017,1.017,0,0,0,.391.855,1.607,1.607,0,0,0,.961.27,1.264,1.264,0,0,0,.809-.219A.7.7,0,0,0,113.883,39.625Z" transform="translate(417 9193.966)" fill="#fff"/><path d="M21.246,13.977a1.127,1.127,0,0,0-.426-.937,5.292,5.292,0,0,0-1.5-.7,14.353,14.353,0,0,1-1.75-.7,3.314,3.314,0,0,1-2.211-2.984A2.676,2.676,0,0,1,15.914,7a3.562,3.562,0,0,1,1.559-1.125,6.065,6.065,0,0,1,2.266-.4,5.305,5.305,0,0,1,2.2.438,3.482,3.482,0,0,1,1.512,1.246A3.254,3.254,0,0,1,23.988,9H21.254a1.375,1.375,0,0,0-.426-1.078,1.66,1.66,0,0,0-1.152-.383,1.872,1.872,0,0,0-1.16.324.955.955,0,0,0,.043,1.617,5.911,5.911,0,0,0,1.648.734,10.1,10.1,0,0,1,1.938.816,3.256,3.256,0,0,1,1.844,2.93A2.778,2.778,0,0,1,22.863,16.3a5,5,0,0,1-3.086.852,6.122,6.122,0,0,1-2.5-.5A3.775,3.775,0,0,1,15.586,15.3a3.542,3.542,0,0,1-.566-1.988h2.75a1.744,1.744,0,0,0,.473,1.348,2.234,2.234,0,0,0,1.535.434,1.765,1.765,0,0,0,1.074-.293A.967.967,0,0,0,21.246,13.977Zm8.117,3.18A4.345,4.345,0,0,1,26.215,16a4.006,4.006,0,0,1-1.2-3.02v-.219a5.191,5.191,0,0,1,.48-2.289,3.516,3.516,0,0,1,1.4-1.535,4.233,4.233,0,0,1,2.188-.543A3.659,3.659,0,0,1,31.895,9.5a4.344,4.344,0,0,1,1.031,3.082V13.6H27.691a1.9,1.9,0,0,0,.617,1.117,1.836,1.836,0,0,0,1.234.406A2.366,2.366,0,0,0,31.5,14.25l1.2,1.422A3.363,3.363,0,0,1,31.3,16.754,4.713,4.713,0,0,1,29.363,17.156Zm-.3-6.734q-1.156,0-1.375,1.531h2.656v-.2a1.3,1.3,0,0,0-.32-.98A1.275,1.275,0,0,0,29.066,10.422ZM36.762,17H34.121V5h2.641Zm5.711.156A4.345,4.345,0,0,1,39.324,16a4.006,4.006,0,0,1-1.2-3.02v-.219a5.191,5.191,0,0,1,.48-2.289A3.516,3.516,0,0,1,40,8.934a4.233,4.233,0,0,1,2.188-.543A3.659,3.659,0,0,1,45,9.5a4.344,4.344,0,0,1,1.031,3.082V13.6H40.8a1.9,1.9,0,0,0,.617,1.117,1.836,1.836,0,0,0,1.234.406,2.366,2.366,0,0,0,1.953-.875l1.2,1.422a3.363,3.363,0,0,1-1.395,1.082A4.713,4.713,0,0,1,42.473,17.156Zm-.3-6.734q-1.156,0-1.375,1.531h2.656v-.2a1.3,1.3,0,0,0-.32-.98A1.275,1.275,0,0,0,42.176,10.422Zm8.492,4.7a1.171,1.171,0,0,0,.859-.3,1.1,1.1,0,0,0,.3-.84h2.469a2.922,2.922,0,0,1-1,2.281,3.705,3.705,0,0,1-2.566.891A3.751,3.751,0,0,1,47.824,16a4.556,4.556,0,0,1-1.062-3.2v-.109a5.149,5.149,0,0,1,.473-2.262A3.441,3.441,0,0,1,48.6,8.918a4.065,4.065,0,0,1,2.109-.527,3.658,3.658,0,0,1,2.617.914,3.242,3.242,0,0,1,.969,2.477H51.824a1.445,1.445,0,0,0-.32-1.008,1.106,1.106,0,0,0-.859-.352q-1.023,0-1.2,1.3a9.206,9.206,0,0,0-.055,1.141,3.616,3.616,0,0,0,.3,1.766A1.055,1.055,0,0,0,50.668,15.125Zm8.313,0a1.171,1.171,0,0,0,.859-.3,1.1,1.1,0,0,0,.3-.84h2.469a2.922,2.922,0,0,1-1,2.281,3.705,3.705,0,0,1-2.566.891A3.751,3.751,0,0,1,56.137,16a4.556,4.556,0,0,1-1.062-3.2v-.109a5.149,5.149,0,0,1,.473-2.262A3.441,3.441,0,0,1,56.91,8.918a4.065,4.065,0,0,1,2.109-.527,3.658,3.658,0,0,1,2.617.914,3.242,3.242,0,0,1,.969,2.477H60.137a1.445,1.445,0,0,0-.32-1.008,1.106,1.106,0,0,0-.859-.352q-1.023,0-1.2,1.3a9.206,9.206,0,0,0-.055,1.141,3.616,3.616,0,0,0,.3,1.766A1.055,1.055,0,0,0,58.98,15.125ZM66.5,17H63.855V8.547H66.5ZM63.7,6.367a1.175,1.175,0,0,1,.406-.922,1.727,1.727,0,0,1,2.109,0,1.175,1.175,0,0,1,.406.922,1.175,1.175,0,0,1-.406.922,1.727,1.727,0,0,1-2.109,0A1.175,1.175,0,0,1,63.7,6.367ZM67.785,12.7a4.989,4.989,0,0,1,.492-2.254,3.52,3.52,0,0,1,1.414-1.52,4.259,4.259,0,0,1,2.164-.531,3.887,3.887,0,0,1,2.992,1.176,4.512,4.512,0,0,1,1.094,3.2v.094A4.378,4.378,0,0,1,74.844,16a3.9,3.9,0,0,1-2.973,1.16,3.942,3.942,0,0,1-2.9-1.082,4.232,4.232,0,0,1-1.18-2.934Zm2.633.164a3.145,3.145,0,0,0,.367,1.719,1.223,1.223,0,0,0,1.086.547q1.406,0,1.438-2.164V12.7q0-2.273-1.453-2.273-1.32,0-1.43,1.961ZM72.215,5H75L72.824,7.453l-2.148,0Zm7.3,3.547.086.992A2.867,2.867,0,0,1,82.02,8.391a2.412,2.412,0,0,1,1.973.789,3.757,3.757,0,0,1,.676,2.375V17H82.027V11.664a1.426,1.426,0,0,0-.258-.941,1.193,1.193,0,0,0-.937-.3,1.256,1.256,0,0,0-1.148.609V17H77.051V8.547Zm10.258,4.164a5.164,5.164,0,0,1,.867-3.164,2.854,2.854,0,0,1,2.422-1.156,2.428,2.428,0,0,1,1.906.891V5h2.641V17H95.246l-.133-.906a2.493,2.493,0,0,1-2.062,1.063A2.849,2.849,0,0,1,90.66,16,5.327,5.327,0,0,1,89.777,12.711Zm2.633.164q0,2.25,1.313,2.25a1.3,1.3,0,0,0,1.25-.734V11.172a1.261,1.261,0,0,0-1.234-.75q-1.219,0-1.32,1.969ZM103.2,17.156A4.345,4.345,0,0,1,100.051,16a4.006,4.006,0,0,1-1.2-3.02v-.219a5.191,5.191,0,0,1,.48-2.289,3.516,3.516,0,0,1,1.4-1.535,4.233,4.233,0,0,1,2.188-.543A3.659,3.659,0,0,1,105.73,9.5a4.344,4.344,0,0,1,1.031,3.082V13.6h-5.234a1.9,1.9,0,0,0,.617,1.117,1.836,1.836,0,0,0,1.234.406,2.366,2.366,0,0,0,1.953-.875l1.2,1.422a3.363,3.363,0,0,1-1.395,1.082A4.713,4.713,0,0,1,103.2,17.156Zm-.3-6.734q-1.156,0-1.375,1.531h2.656v-.2a1.3,1.3,0,0,0-.32-.98A1.275,1.275,0,0,0,102.9,10.422ZM110.6,17h-2.641V5H110.6ZM4.512,33.547l.086.992a2.906,2.906,0,0,1,2.414-1.148,2.14,2.14,0,0,1,2.164,1.273,2.813,2.813,0,0,1,2.484-1.273q2.57,0,2.641,3.109V42H11.66V36.664a1.611,1.611,0,0,0-.219-.945.931.931,0,0,0-.8-.3,1.247,1.247,0,0,0-1.164.7l.008.109V42H6.848V36.68a1.694,1.694,0,0,0-.211-.961.929.929,0,0,0-.8-.3,1.263,1.263,0,0,0-1.156.7V42H2.043V33.547ZM20.566,42a2.973,2.973,0,0,1-.25-.758,2.448,2.448,0,0,1-2.031.914,3,3,0,0,1-2.031-.723,2.3,2.3,0,0,1-.836-1.816,2.364,2.364,0,0,1,1.016-2.078,5.174,5.174,0,0,1,2.953-.7H20.2v-.448q0-1.17-1.008-1.17a.824.824,0,0,0-.937.926H15.621a2.36,2.36,0,0,1,1.043-1.99,4.383,4.383,0,0,1,2.66-.765,3.843,3.843,0,0,1,2.555.789,2.743,2.743,0,0,1,.961,2.164v3.742a3.832,3.832,0,0,0,.359,1.781V42Zm-1.648-1.719a1.469,1.469,0,0,0,.816-.211,1.322,1.322,0,0,0,.465-.477V38.242h-.766q-1.375,0-1.375,1.234a.754.754,0,0,0,.242.582A.876.876,0,0,0,18.918,40.281Zm13.227-2.445a5.1,5.1,0,0,1-.887,3.145,2.843,2.843,0,0,1-2.395,1.176,2.437,2.437,0,0,1-1.914-.852V45.25H24.316v-11.7h2.461l.078.781a2.437,2.437,0,0,1,1.992-.937,2.866,2.866,0,0,1,2.43,1.152,5.16,5.16,0,0,1,.867,3.168Zm-2.633-.164q0-2.25-1.312-2.25a1.239,1.239,0,0,0-1.25.672v3.328a1.279,1.279,0,0,0,1.266.7q1.258,0,1.3-2.172ZM38.066,42a2.973,2.973,0,0,1-.25-.758,2.448,2.448,0,0,1-2.031.914,3,3,0,0,1-2.031-.723,2.3,2.3,0,0,1-.836-1.816,2.364,2.364,0,0,1,1.016-2.078,5.174,5.174,0,0,1,2.953-.7H37.7v-.448q0-1.17-1.008-1.17a.824.824,0,0,0-.937.926H33.121a2.36,2.36,0,0,1,1.043-1.99,4.383,4.383,0,0,1,2.66-.765,3.843,3.843,0,0,1,2.555.789,2.743,2.743,0,0,1,.961,2.164v3.742a3.832,3.832,0,0,0,.359,1.781V42Zm-1.648-1.719a1.469,1.469,0,0,0,.816-.211,1.322,1.322,0,0,0,.465-.477V38.242h-.766q-1.375,0-1.375,1.234a.754.754,0,0,0,.242.582A.876.876,0,0,0,36.418,40.281Zm9.031-2.57a5.164,5.164,0,0,1,.867-3.164,2.854,2.854,0,0,1,2.422-1.156,2.428,2.428,0,0,1,1.906.891V30h2.641V42H50.918l-.133-.906a2.493,2.493,0,0,1-2.062,1.063A2.849,2.849,0,0,1,46.332,41,5.327,5.327,0,0,1,45.449,37.711Zm2.633.164q0,2.25,1.313,2.25a1.3,1.3,0,0,0,1.25-.734V36.172a1.261,1.261,0,0,0-1.234-.75q-1.219,0-1.32,1.969Zm10.789,4.281A4.345,4.345,0,0,1,55.723,41a4.006,4.006,0,0,1-1.2-3.02v-.219A5.191,5.191,0,0,1,55,35.469a3.516,3.516,0,0,1,1.4-1.535,4.233,4.233,0,0,1,2.188-.543A3.659,3.659,0,0,1,61.4,34.5a4.344,4.344,0,0,1,1.031,3.082V38.6H57.2a1.9,1.9,0,0,0,.617,1.117,1.836,1.836,0,0,0,1.234.406A2.366,2.366,0,0,0,61,39.25l1.2,1.422a3.363,3.363,0,0,1-1.395,1.082A4.713,4.713,0,0,1,58.871,42.156Zm-.3-6.734q-1.156,0-1.375,1.531h2.656v-.2a1.3,1.3,0,0,0-.32-.98A1.275,1.275,0,0,0,58.574,35.422Zm16.75,2.414a5.1,5.1,0,0,1-.887,3.145,2.843,2.843,0,0,1-2.395,1.176,2.437,2.437,0,0,1-1.914-.852V45.25H67.5v-11.7h2.461l.078.781a2.437,2.437,0,0,1,1.992-.937,2.866,2.866,0,0,1,2.43,1.152,5.16,5.16,0,0,1,.867,3.168Zm-2.633-.164q0-2.25-1.312-2.25a1.239,1.239,0,0,0-1.25.672v3.328a1.279,1.279,0,0,0,1.266.7q1.258,0,1.3-2.172ZM81.6,35.93l-.867-.062a1.558,1.558,0,0,0-1.594.781V42H76.5V33.547h2.469l.086,1.086a2.039,2.039,0,0,1,1.852-1.242,2.567,2.567,0,0,1,.734.094Zm.336,1.766a4.989,4.989,0,0,1,.492-2.254,3.52,3.52,0,0,1,1.414-1.52A4.259,4.259,0,0,1,86,33.391,3.887,3.887,0,0,1,89,34.566a4.512,4.512,0,0,1,1.094,3.2v.094A4.378,4.378,0,0,1,88.992,41a3.9,3.9,0,0,1-2.973,1.16,3.942,3.942,0,0,1-2.9-1.082,4.232,4.232,0,0,1-1.18-2.934Zm2.633.164a3.145,3.145,0,0,0,.367,1.719,1.223,1.223,0,0,0,1.086.547q1.406,0,1.438-2.164V37.7q0-2.273-1.453-2.273-1.32,0-1.43,1.961Zm10.258,2.266a1.171,1.171,0,0,0,.859-.3,1.1,1.1,0,0,0,.3-.84h2.469a2.923,2.923,0,0,1-1,2.281,3.705,3.705,0,0,1-2.566.891A3.751,3.751,0,0,1,91.98,41a4.556,4.556,0,0,1-1.062-3.2v-.109a5.149,5.149,0,0,1,.473-2.262,3.441,3.441,0,0,1,1.363-1.508,4.065,4.065,0,0,1,2.109-.527,3.658,3.658,0,0,1,2.617.914,3.242,3.242,0,0,1,.969,2.477H95.98a1.445,1.445,0,0,0-.32-1.008,1.106,1.106,0,0,0-.859-.352q-1.023,0-1.2,1.3a9.206,9.206,0,0,0-.055,1.141,3.616,3.616,0,0,0,.3,1.766A1.055,1.055,0,0,0,94.824,40.125Zm8.828,2.031A4.345,4.345,0,0,1,100.5,41a4.006,4.006,0,0,1-1.2-3.02v-.219a5.191,5.191,0,0,1,.48-2.289,3.516,3.516,0,0,1,1.4-1.535,4.233,4.233,0,0,1,2.188-.543,3.659,3.659,0,0,1,2.813,1.105,4.344,4.344,0,0,1,1.031,3.082V38.6H101.98a1.9,1.9,0,0,0,.617,1.117,1.836,1.836,0,0,0,1.234.406,2.366,2.366,0,0,0,1.953-.875l1.2,1.422a3.363,3.363,0,0,1-1.395,1.082A4.713,4.713,0,0,1,103.652,42.156Zm-.3-6.734q-1.156,0-1.375,1.531h2.656v-.2a1.3,1.3,0,0,0-.32-.98A1.275,1.275,0,0,0,103.355,35.422Zm9.344,4.2a.608.608,0,0,0-.352-.539,5.347,5.347,0,0,0-1.336-.422,6.092,6.092,0,0,1-1.625-.574,2.722,2.722,0,0,1-.977-.863,2.061,2.061,0,0,1-.336-1.164,2.336,2.336,0,0,1,.961-1.918,3.958,3.958,0,0,1,2.516-.754,4.386,4.386,0,0,1,2.688.758,2.37,2.37,0,0,1,1.016,1.992h-2.641q0-1.016-1.07-1.016a1.061,1.061,0,0,0-.7.23.714.714,0,0,0-.281.574.655.655,0,0,0,.344.57,3.248,3.248,0,0,0,1.1.359,9.486,9.486,0,0,1,1.324.336,2.406,2.406,0,0,1,1.906,2.352,2.214,2.214,0,0,1-1.027,1.883,4.505,4.505,0,0,1-2.66.727,4.6,4.6,0,0,1-1.937-.391,3.24,3.24,0,0,1-1.328-1.062,2.406,2.406,0,0,1-.477-1.414h2.461a1.017,1.017,0,0,0,.391.855,1.607,1.607,0,0,0,.961.27,1.264,1.264,0,0,0,.809-.219A.7.7,0,0,0,112.7,39.625Zm3.438-1.93a4.989,4.989,0,0,1,.492-2.254,3.52,3.52,0,0,1,1.414-1.52,4.259,4.259,0,0,1,2.164-.531,3.887,3.887,0,0,1,2.992,1.176,4.512,4.512,0,0,1,1.094,3.2v.094A4.378,4.378,0,0,1,123.2,41a3.9,3.9,0,0,1-2.973,1.16,3.942,3.942,0,0,1-2.9-1.082,4.232,4.232,0,0,1-1.18-2.934Zm2.633.164a3.145,3.145,0,0,0,.367,1.719,1.223,1.223,0,0,0,1.086.547q1.406,0,1.438-2.164V37.7q0-2.273-1.453-2.273-1.32,0-1.43,1.961Z" transform="translate(628.89 9193.966)" fill="#fff"/><path d="M23.207,17V5.625h3.664a5.39,5.39,0,0,1,2.711.684,4.805,4.805,0,0,1,1.879,1.93,5.826,5.826,0,0,1,.684,2.793v.523a5.86,5.86,0,0,1-.66,2.8,4.826,4.826,0,0,1-1.859,1.938A5.271,5.271,0,0,1,26.949,17Zm2.742-9.258v7.148H26.9a2.133,2.133,0,0,0,1.813-.84,4.116,4.116,0,0,0,.633-2.5v-.492a4.082,4.082,0,0,0-.633-2.484,2.17,2.17,0,0,0-1.844-.836ZM36.207,17H33.566V8.547h2.641ZM33.41,6.367a1.175,1.175,0,0,1,.406-.922,1.727,1.727,0,0,1,2.109,0,1.175,1.175,0,0,1,.406.922,1.175,1.175,0,0,1-.406.922,1.727,1.727,0,0,1-2.109,0A1.175,1.175,0,0,1,33.41,6.367ZM42.59,17a2.973,2.973,0,0,1-.25-.758,2.448,2.448,0,0,1-2.031.914,3,3,0,0,1-2.031-.723,2.3,2.3,0,0,1-.836-1.816,2.364,2.364,0,0,1,1.016-2.078,5.174,5.174,0,0,1,2.953-.7h.813v-.448q0-1.17-1.008-1.17a.824.824,0,0,0-.937.926H37.645a2.36,2.36,0,0,1,1.043-1.99,4.383,4.383,0,0,1,2.66-.765A3.843,3.843,0,0,1,43.9,9.18a2.743,2.743,0,0,1,.961,2.164v3.742a3.832,3.832,0,0,0,.359,1.781V17Zm-1.648-1.719a1.469,1.469,0,0,0,.816-.211,1.322,1.322,0,0,0,.465-.477V13.242h-.766q-1.375,0-1.375,1.234a.754.754,0,0,0,.242.582A.876.876,0,0,0,40.941,15.281Zm5.07-2.57a5.708,5.708,0,0,1,.422-2.266,3.4,3.4,0,0,1,1.211-1.52,3.192,3.192,0,0,1,1.836-.535,2.538,2.538,0,0,1,2.063.891l.094-.734h2.391V16.68a3.564,3.564,0,0,1-.52,1.941A3.334,3.334,0,0,1,52,19.887a5.528,5.528,0,0,1-2.281.441,4.769,4.769,0,0,1-1.8-.352,3.251,3.251,0,0,1-1.332-.914l1.1-1.547a2.414,2.414,0,0,0,1.938.867,1.568,1.568,0,0,0,1.75-1.8V16.32a2.472,2.472,0,0,1-1.914.836,3.055,3.055,0,0,1-2.5-1.184,4.9,4.9,0,0,1-.953-3.168Zm2.641.164a3.007,3.007,0,0,0,.391,1.645,1.232,1.232,0,0,0,1.094.605,1.4,1.4,0,0,0,1.242-.57V11a1.363,1.363,0,0,0-1.227-.578,1.241,1.241,0,0,0-1.1.629A3.429,3.429,0,0,0,48.652,12.875ZM60.637,10.93l-.867-.062a1.558,1.558,0,0,0-1.594.781V17H55.543V8.547h2.469L58.1,9.633a2.039,2.039,0,0,1,1.852-1.242,2.567,2.567,0,0,1,.734.094ZM66.113,17a2.973,2.973,0,0,1-.25-.758,2.448,2.448,0,0,1-2.031.914,3,3,0,0,1-2.031-.723,2.3,2.3,0,0,1-.836-1.816,2.364,2.364,0,0,1,1.016-2.078,5.174,5.174,0,0,1,2.953-.7h.813v-.448q0-1.17-1.008-1.17a.824.824,0,0,0-.937.926H61.168a2.36,2.36,0,0,1,1.043-1.99,4.383,4.383,0,0,1,2.66-.765,3.843,3.843,0,0,1,2.555.789,2.743,2.743,0,0,1,.961,2.164v3.742a3.832,3.832,0,0,0,.359,1.781V17Zm-1.648-1.719a1.469,1.469,0,0,0,.816-.211,1.322,1.322,0,0,0,.465-.477V13.242H64.98q-1.375,0-1.375,1.234a.754.754,0,0,0,.242.582A.876.876,0,0,0,64.465,15.281Zm7.867-6.734.086.992a2.906,2.906,0,0,1,2.414-1.148A2.14,2.14,0,0,1,77,9.664,2.813,2.813,0,0,1,79.48,8.391q2.57,0,2.641,3.109V17H79.48V11.664a1.611,1.611,0,0,0-.219-.945.931.931,0,0,0-.8-.3,1.247,1.247,0,0,0-1.164.7l.008.109V17H74.668V11.68a1.694,1.694,0,0,0-.211-.961.928.928,0,0,0-.8-.3,1.263,1.263,0,0,0-1.156.7V17H69.863V8.547ZM88.387,17a2.973,2.973,0,0,1-.25-.758,2.448,2.448,0,0,1-2.031.914,3,3,0,0,1-2.031-.723,2.3,2.3,0,0,1-.836-1.816,2.364,2.364,0,0,1,1.016-2.078,5.174,5.174,0,0,1,2.953-.7h.813v-.448q0-1.17-1.008-1.17a.824.824,0,0,0-.937.926H83.441a2.36,2.36,0,0,1,1.043-1.99,4.383,4.383,0,0,1,2.66-.765A3.843,3.843,0,0,1,89.7,9.18a2.743,2.743,0,0,1,.961,2.164v3.742a3.832,3.832,0,0,0,.359,1.781V17Zm-1.648-1.719a1.469,1.469,0,0,0,.816-.211,1.322,1.322,0,0,0,.465-.477V13.242h-.766q-1.375,0-1.375,1.234a.754.754,0,0,0,.242.582A.876.876,0,0,0,86.738,15.281ZM99.48,13.313l1.406-4.766h2.82l-3.445,9.867-.148.359a2.617,2.617,0,0,1-2.594,1.641,4.126,4.126,0,0,1-1.086-.156V18.383h.344a1.8,1.8,0,0,0,.848-.16.973.973,0,0,0,.434-.575l.211-.563L95.332,8.547h2.813ZM7.637,37.711A5.164,5.164,0,0,1,8.5,34.547a2.854,2.854,0,0,1,2.422-1.156,2.428,2.428,0,0,1,1.906.891V30h2.641V42H13.105l-.133-.906a2.493,2.493,0,0,1-2.062,1.063A2.849,2.849,0,0,1,8.52,41,5.327,5.327,0,0,1,7.637,37.711Zm2.633.164q0,2.25,1.313,2.25a1.3,1.3,0,0,0,1.25-.734V36.172a1.261,1.261,0,0,0-1.234-.75q-1.219,0-1.32,1.969Zm6.367-.18a4.989,4.989,0,0,1,.492-2.254,3.52,3.52,0,0,1,1.414-1.52,4.259,4.259,0,0,1,2.164-.531A3.887,3.887,0,0,1,23.7,34.566a4.512,4.512,0,0,1,1.094,3.2v.094A4.378,4.378,0,0,1,23.7,41a3.9,3.9,0,0,1-2.973,1.16,3.942,3.942,0,0,1-2.9-1.082,4.232,4.232,0,0,1-1.18-2.934Zm2.633.164a3.145,3.145,0,0,0,.367,1.719,1.223,1.223,0,0,0,1.086.547q1.406,0,1.438-2.164V37.7q0-2.273-1.453-2.273-1.32,0-1.43,1.961Zm10.258,2.266a1.171,1.171,0,0,0,.859-.3,1.1,1.1,0,0,0,.3-.84h2.469a2.923,2.923,0,0,1-1,2.281,3.705,3.705,0,0,1-2.566.891A3.751,3.751,0,0,1,26.684,41a4.556,4.556,0,0,1-1.062-3.2v-.109a5.149,5.149,0,0,1,.473-2.262,3.441,3.441,0,0,1,1.363-1.508,4.065,4.065,0,0,1,2.109-.527,3.658,3.658,0,0,1,2.617.914,3.242,3.242,0,0,1,.969,2.477H30.684a1.445,1.445,0,0,0-.32-1.008,1.106,1.106,0,0,0-.859-.352q-1.023,0-1.2,1.3a9.206,9.206,0,0,0-.055,1.141,3.616,3.616,0,0,0,.3,1.766A1.055,1.055,0,0,0,29.527,40.125Zm9.773.961a2.714,2.714,0,0,1-2.258,1.07,2.662,2.662,0,0,1-2.105-.809,3.4,3.4,0,0,1-.715-2.324V33.547h2.633v5.492a.946.946,0,0,0,1.055,1.086,1.376,1.376,0,0,0,1.289-.648v-5.93h2.648V42H39.379Zm6.477-7.539.086.992a2.906,2.906,0,0,1,2.414-1.148,2.14,2.14,0,0,1,2.164,1.273,2.813,2.813,0,0,1,2.484-1.273q2.57,0,2.641,3.109V42H52.926V36.664a1.611,1.611,0,0,0-.219-.945.931.931,0,0,0-.8-.3,1.247,1.247,0,0,0-1.164.7l.008.109V42H48.113V36.68a1.694,1.694,0,0,0-.211-.961.929.929,0,0,0-.8-.3,1.263,1.263,0,0,0-1.156.7V42H43.309V33.547ZM61.16,42.156A4.345,4.345,0,0,1,58.012,41a4.006,4.006,0,0,1-1.2-3.02v-.219a5.191,5.191,0,0,1,.48-2.289,3.516,3.516,0,0,1,1.4-1.535,4.233,4.233,0,0,1,2.188-.543A3.659,3.659,0,0,1,63.691,34.5a4.344,4.344,0,0,1,1.031,3.082V38.6H59.488a1.9,1.9,0,0,0,.617,1.117,1.836,1.836,0,0,0,1.234.406,2.366,2.366,0,0,0,1.953-.875l1.2,1.422A3.363,3.363,0,0,1,63.1,41.754,4.713,4.713,0,0,1,61.16,42.156Zm-.3-6.734q-1.156,0-1.375,1.531h2.656v-.2a1.3,1.3,0,0,0-.32-.98A1.275,1.275,0,0,0,60.863,35.422ZM68.2,33.547l.086.992A2.867,2.867,0,0,1,70.7,33.391a2.412,2.412,0,0,1,1.973.789,3.757,3.757,0,0,1,.676,2.375V42H70.707V36.664a1.426,1.426,0,0,0-.258-.941,1.193,1.193,0,0,0-.937-.3,1.256,1.256,0,0,0-1.148.609V42H65.73V33.547Zm9.672-2.1v2.1h1.391v1.828H77.871v3.867a.987.987,0,0,0,.172.664.922.922,0,0,0,.68.188,3.862,3.862,0,0,0,.656-.047V41.93a4.859,4.859,0,0,1-1.484.227,2.758,2.758,0,0,1-2.008-.641,2.626,2.626,0,0,1-.648-1.945v-4.2H74.16V33.547h1.078v-2.1ZM85.059,42a2.973,2.973,0,0,1-.25-.758,2.448,2.448,0,0,1-2.031.914,3,3,0,0,1-2.031-.723,2.3,2.3,0,0,1-.836-1.816,2.364,2.364,0,0,1,1.016-2.078,5.174,5.174,0,0,1,2.953-.7h.813v-.448q0-1.17-1.008-1.17a.824.824,0,0,0-.937.926H80.113a2.36,2.36,0,0,1,1.043-1.99,4.383,4.383,0,0,1,2.66-.765,3.843,3.843,0,0,1,2.555.789,2.743,2.743,0,0,1,.961,2.164v3.742a3.832,3.832,0,0,0,.359,1.781V42ZM83.41,40.281a1.469,1.469,0,0,0,.816-.211,1.322,1.322,0,0,0,.465-.477V38.242h-.766q-1.375,0-1.375,1.234a.754.754,0,0,0,.242.582A.876.876,0,0,0,83.41,40.281Zm8.953-.156a1.171,1.171,0,0,0,.859-.3,1.1,1.1,0,0,0,.3-.84h2.469a2.923,2.923,0,0,1-1,2.281,3.705,3.705,0,0,1-2.566.891A3.751,3.751,0,0,1,89.52,41a4.556,4.556,0,0,1-1.062-3.2v-.109a5.149,5.149,0,0,1,.473-2.262,3.441,3.441,0,0,1,1.363-1.508,4.065,4.065,0,0,1,2.109-.527,3.658,3.658,0,0,1,2.617.914,3.242,3.242,0,0,1,.969,2.477H93.52a1.445,1.445,0,0,0-.32-1.008,1.106,1.106,0,0,0-.859-.352q-1.023,0-1.2,1.3a9.206,9.206,0,0,0-.055,1.141,3.616,3.616,0,0,0,.3,1.766A1.055,1.055,0,0,0,92.363,40.125ZM99.879,42H97.238V33.547h2.641Zm-2.8-10.633a1.175,1.175,0,0,1,.406-.922,1.727,1.727,0,0,1,2.109,0,1.249,1.249,0,0,1,0,1.844,1.727,1.727,0,0,1-2.109,0A1.175,1.175,0,0,1,97.082,31.367Zm4.086,6.328a4.989,4.989,0,0,1,.492-2.254,3.52,3.52,0,0,1,1.414-1.52,4.259,4.259,0,0,1,2.164-.531,3.887,3.887,0,0,1,2.992,1.176,4.512,4.512,0,0,1,1.094,3.2v.094a4.378,4.378,0,0,1-1.1,3.137,3.9,3.9,0,0,1-2.973,1.16,3.942,3.942,0,0,1-2.9-1.082,4.232,4.232,0,0,1-1.18-2.934Zm2.633.164a3.145,3.145,0,0,0,.367,1.719,1.223,1.223,0,0,0,1.086.547q1.406,0,1.438-2.164V37.7q0-2.273-1.453-2.273-1.32,0-1.43,1.961ZM105.6,30h2.781l-2.172,2.453-2.148,0Zm7.3,3.547.086.992a2.867,2.867,0,0,1,2.414-1.148,2.412,2.412,0,0,1,1.973.789,3.757,3.757,0,0,1,.676,2.375V42H115.41V36.664a1.426,1.426,0,0,0-.258-.941,1.193,1.193,0,0,0-.937-.3,1.256,1.256,0,0,0-1.148.609V42h-2.633V33.547Z" transform="translate(840.779 9193.966)" fill="#fff"/><path d="M20.078,11.547a6.708,6.708,0,0,1-.617,2.945,4.561,4.561,0,0,1-1.754,1.973,4.884,4.884,0,0,1-2.59.691,4.953,4.953,0,0,1-2.578-.668,4.554,4.554,0,0,1-1.754-1.91,6.515,6.515,0,0,1-.66-2.852v-.641a6.737,6.737,0,0,1,.613-2.949A4.55,4.55,0,0,1,12.5,6.164a4.918,4.918,0,0,1,2.605-.7,4.87,4.87,0,0,1,2.578.688,4.632,4.632,0,0,1,1.762,1.957,6.544,6.544,0,0,1,.637,2.91Zm-2.789-.477A4.783,4.783,0,0,0,16.723,8.5,1.817,1.817,0,0,0,15.1,7.617q-2.062,0-2.18,3.094l-.008.836a4.92,4.92,0,0,0,.555,2.57,1.814,1.814,0,0,0,1.648.9,1.792,1.792,0,0,0,1.6-.883,4.785,4.785,0,0,0,.57-2.539Zm11.93,1.766a5.1,5.1,0,0,1-.887,3.145,2.843,2.843,0,0,1-2.395,1.176,2.437,2.437,0,0,1-1.914-.852V20.25H21.391V8.547h2.461l.078.781a2.437,2.437,0,0,1,1.992-.937,2.866,2.866,0,0,1,2.43,1.152,5.16,5.16,0,0,1,.867,3.168Zm-2.633-.164q0-2.25-1.312-2.25a1.239,1.239,0,0,0-1.25.672v3.328a1.279,1.279,0,0,0,1.266.7q1.258,0,1.3-2.172Zm3.461.023a4.989,4.989,0,0,1,.492-2.254,3.52,3.52,0,0,1,1.414-1.52,4.259,4.259,0,0,1,2.164-.531,3.887,3.887,0,0,1,2.992,1.176,4.512,4.512,0,0,1,1.094,3.2v.094A4.378,4.378,0,0,1,37.105,16a3.9,3.9,0,0,1-2.973,1.16,3.942,3.942,0,0,1-2.9-1.082,4.232,4.232,0,0,1-1.18-2.934Zm2.633.164a3.145,3.145,0,0,0,.367,1.719,1.223,1.223,0,0,0,1.086.547q1.406,0,1.438-2.164V12.7q0-2.273-1.453-2.273-1.32,0-1.43,1.961Zm11.8-1.93-.867-.062a1.558,1.558,0,0,0-1.594.781V17H39.383V8.547h2.469l.086,1.086a2.039,2.039,0,0,1,1.852-1.242,2.567,2.567,0,0,1,.734.094Zm4.406-4.484v2.1h1.391v1.828H48.883v3.867a.987.987,0,0,0,.172.664.922.922,0,0,0,.68.188,3.862,3.862,0,0,0,.656-.047V16.93a4.859,4.859,0,0,1-1.484.227,2.758,2.758,0,0,1-2.008-.641,2.626,2.626,0,0,1-.648-1.945v-4.2H45.172V8.547H46.25v-2.1Zm7.461,9.641a2.714,2.714,0,0,1-2.258,1.07,2.662,2.662,0,0,1-2.105-.809,3.4,3.4,0,0,1-.715-2.324V8.547H53.9v5.492a.946.946,0,0,0,1.055,1.086,1.376,1.376,0,0,0,1.289-.648V8.547h2.648V17H56.422ZM62.75,8.547l.086.992A2.867,2.867,0,0,1,65.25,8.391a2.412,2.412,0,0,1,1.973.789,3.757,3.757,0,0,1,.676,2.375V17H65.258V11.664A1.426,1.426,0,0,0,65,10.723a1.193,1.193,0,0,0-.937-.3,1.256,1.256,0,0,0-1.148.609V17H60.281V8.547ZM72.133,17H69.492V8.547h2.641Zm-2.8-10.633a1.175,1.175,0,0,1,.406-.922,1.727,1.727,0,0,1,2.109,0,1.175,1.175,0,0,1,.406.922,1.175,1.175,0,0,1-.406.922,1.727,1.727,0,0,1-2.109,0A1.175,1.175,0,0,1,69.336,6.367Zm4.086,6.344a5.164,5.164,0,0,1,.867-3.164,2.854,2.854,0,0,1,2.422-1.156,2.428,2.428,0,0,1,1.906.891V5h2.641V17H78.891l-.133-.906A2.493,2.493,0,0,1,76.7,17.156,2.849,2.849,0,0,1,74.3,16,5.327,5.327,0,0,1,73.422,12.711Zm2.633.164q0,2.25,1.313,2.25a1.3,1.3,0,0,0,1.25-.734V11.172a1.261,1.261,0,0,0-1.234-.75q-1.219,0-1.32,1.969ZM87.516,17a2.973,2.973,0,0,1-.25-.758,2.448,2.448,0,0,1-2.031.914,3,3,0,0,1-2.031-.723,2.3,2.3,0,0,1-.836-1.816,2.364,2.364,0,0,1,1.016-2.078,5.174,5.174,0,0,1,2.953-.7h.813v-.448q0-1.17-1.008-1.17a.824.824,0,0,0-.937.926H82.57a2.36,2.36,0,0,1,1.043-1.99,4.383,4.383,0,0,1,2.66-.765,3.843,3.843,0,0,1,2.555.789,2.743,2.743,0,0,1,.961,2.164v3.742a3.832,3.832,0,0,0,.359,1.781V17Zm-1.648-1.719a1.469,1.469,0,0,0,.816-.211,1.322,1.322,0,0,0,.465-.477V13.242h-.766q-1.375,0-1.375,1.234a.754.754,0,0,0,.242.582A.876.876,0,0,0,85.867,15.281Zm5.047-2.57a5.164,5.164,0,0,1,.867-3.164A2.854,2.854,0,0,1,94.2,8.391a2.428,2.428,0,0,1,1.906.891V5H98.75V17H96.383l-.133-.906a2.493,2.493,0,0,1-2.062,1.063A2.849,2.849,0,0,1,91.8,16,5.327,5.327,0,0,1,90.914,12.711Zm2.633.164q0,2.25,1.313,2.25a1.3,1.3,0,0,0,1.25-.734V11.172a1.261,1.261,0,0,0-1.234-.75q-1.219,0-1.32,1.969Zm10.789,4.281A4.345,4.345,0,0,1,101.188,16a4.006,4.006,0,0,1-1.2-3.02v-.219a5.191,5.191,0,0,1,.48-2.289,3.516,3.516,0,0,1,1.4-1.535,4.233,4.233,0,0,1,2.188-.543A3.659,3.659,0,0,1,106.867,9.5a4.344,4.344,0,0,1,1.031,3.082V13.6h-5.234a1.9,1.9,0,0,0,.617,1.117,1.836,1.836,0,0,0,1.234.406,2.366,2.366,0,0,0,1.953-.875l1.2,1.422a3.363,3.363,0,0,1-1.395,1.082A4.713,4.713,0,0,1,104.336,17.156Zm-.3-6.734q-1.156,0-1.375,1.531h2.656v-.2a1.3,1.3,0,0,0-.32-.98A1.275,1.275,0,0,0,104.039,10.422Zm9.344,4.2a.608.608,0,0,0-.352-.539,5.348,5.348,0,0,0-1.336-.422,6.092,6.092,0,0,1-1.625-.574,2.722,2.722,0,0,1-.977-.863,2.061,2.061,0,0,1-.336-1.164,2.336,2.336,0,0,1,.961-1.918,3.958,3.958,0,0,1,2.516-.754,4.386,4.386,0,0,1,2.688.758,2.37,2.37,0,0,1,1.016,1.992H113.3q0-1.016-1.07-1.016a1.061,1.061,0,0,0-.7.23.714.714,0,0,0-.281.574.655.655,0,0,0,.344.57,3.248,3.248,0,0,0,1.1.359,9.486,9.486,0,0,1,1.324.336,2.406,2.406,0,0,1,1.906,2.352,2.214,2.214,0,0,1-1.027,1.883,4.505,4.505,0,0,1-2.66.727,4.6,4.6,0,0,1-1.937-.391,3.24,3.24,0,0,1-1.328-1.062,2.406,2.406,0,0,1-.477-1.414h2.461a1.017,1.017,0,0,0,.391.855,1.607,1.607,0,0,0,.961.27,1.264,1.264,0,0,0,.809-.219A.7.7,0,0,0,113.383,14.625ZM27.5,37.711a5.164,5.164,0,0,1,.867-3.164,2.854,2.854,0,0,1,2.422-1.156,2.428,2.428,0,0,1,1.906.891V30h2.641V42H32.969l-.133-.906a2.493,2.493,0,0,1-2.062,1.063A2.849,2.849,0,0,1,28.383,41,5.327,5.327,0,0,1,27.5,37.711Zm2.633.164q0,2.25,1.313,2.25a1.3,1.3,0,0,0,1.25-.734V36.172a1.261,1.261,0,0,0-1.234-.75q-1.219,0-1.32,1.969Zm10.789,4.281A4.345,4.345,0,0,1,37.773,41a4.006,4.006,0,0,1-1.2-3.02v-.219a5.191,5.191,0,0,1,.48-2.289,3.516,3.516,0,0,1,1.4-1.535,4.233,4.233,0,0,1,2.188-.543A3.659,3.659,0,0,1,43.453,34.5a4.344,4.344,0,0,1,1.031,3.082V38.6H39.25a1.9,1.9,0,0,0,.617,1.117,1.836,1.836,0,0,0,1.234.406,2.366,2.366,0,0,0,1.953-.875l1.2,1.422a3.363,3.363,0,0,1-1.395,1.082A4.713,4.713,0,0,1,40.922,42.156Zm-.3-6.734q-1.156,0-1.375,1.531h2.656v-.2a1.3,1.3,0,0,0-.32-.98A1.275,1.275,0,0,0,40.625,35.422Zm11.391-1.875.086.992a2.906,2.906,0,0,1,2.414-1.148,2.14,2.14,0,0,1,2.164,1.273,2.813,2.813,0,0,1,2.484-1.273q2.57,0,2.641,3.109V42H59.164V36.664a1.611,1.611,0,0,0-.219-.945.931.931,0,0,0-.8-.3,1.247,1.247,0,0,0-1.164.7l.008.109V42H54.352V36.68a1.694,1.694,0,0,0-.211-.961.929.929,0,0,0-.8-.3,1.263,1.263,0,0,0-1.156.7V42H49.547V33.547ZM67.4,42.156A4.345,4.345,0,0,1,64.25,41a4.006,4.006,0,0,1-1.2-3.02v-.219a5.191,5.191,0,0,1,.48-2.289,3.516,3.516,0,0,1,1.4-1.535,4.233,4.233,0,0,1,2.188-.543A3.659,3.659,0,0,1,69.93,34.5a4.344,4.344,0,0,1,1.031,3.082V38.6H65.727a1.9,1.9,0,0,0,.617,1.117,1.836,1.836,0,0,0,1.234.406,2.366,2.366,0,0,0,1.953-.875l1.2,1.422a3.363,3.363,0,0,1-1.395,1.082A4.713,4.713,0,0,1,67.4,42.156Zm-.3-6.734q-1.156,0-1.375,1.531h2.656v-.2a1.3,1.3,0,0,0-.32-.98A1.275,1.275,0,0,0,67.1,35.422Zm7.75-1.875v8.742a3.068,3.068,0,0,1-.859,2.313,3.3,3.3,0,0,1-2.375.813,5.607,5.607,0,0,1-1.242-.133V43.289a5.037,5.037,0,0,0,.742.07.963.963,0,0,0,1.094-1.086V33.547Zm-2.836-2.18a1.175,1.175,0,0,1,.406-.922,1.727,1.727,0,0,1,2.109,0,1.249,1.249,0,0,1,0,1.844,1.727,1.727,0,0,1-2.109,0A1.175,1.175,0,0,1,72.016,31.367ZM76.008,37.7a4.989,4.989,0,0,1,.492-2.254,3.52,3.52,0,0,1,1.414-1.52,4.259,4.259,0,0,1,2.164-.531,3.887,3.887,0,0,1,2.992,1.176,4.512,4.512,0,0,1,1.094,3.2v.094A4.378,4.378,0,0,1,83.066,41a3.9,3.9,0,0,1-2.973,1.16,3.942,3.942,0,0,1-2.9-1.082,4.232,4.232,0,0,1-1.18-2.934Zm2.633.164a3.145,3.145,0,0,0,.367,1.719,1.223,1.223,0,0,0,1.086.547q1.406,0,1.438-2.164V37.7q0-2.273-1.453-2.273-1.32,0-1.43,1.961Zm11.8-1.93-.867-.062a1.558,1.558,0,0,0-1.594.781V42H85.344V33.547h2.469l.086,1.086a2.039,2.039,0,0,1,1.852-1.242,2.567,2.567,0,0,1,.734.094ZM95.914,42a2.973,2.973,0,0,1-.25-.758,2.448,2.448,0,0,1-2.031.914,3,3,0,0,1-2.031-.723,2.3,2.3,0,0,1-.836-1.816,2.364,2.364,0,0,1,1.016-2.078,5.174,5.174,0,0,1,2.953-.7h.813v-.448q0-1.17-1.008-1.17a.824.824,0,0,0-.937.926H90.969a2.36,2.36,0,0,1,1.043-1.99,4.383,4.383,0,0,1,2.66-.765,3.843,3.843,0,0,1,2.555.789,2.743,2.743,0,0,1,.961,2.164v3.742a3.832,3.832,0,0,0,.359,1.781V42Zm-1.648-1.719a1.469,1.469,0,0,0,.816-.211,1.322,1.322,0,0,0,.465-.477V38.242h-.766q-1.375,0-1.375,1.234a.754.754,0,0,0,.242.582A.876.876,0,0,0,94.266,40.281Z" transform="translate(1262.779 9193.966)" fill="#fff"/><path d="M36.93,12.977H35.445V17H32.7V5.625H37.18a5,5,0,0,1,3.164.9,3.041,3.041,0,0,1,1.141,2.536A3.693,3.693,0,0,1,41,11.026a3.41,3.41,0,0,1-1.5,1.264l2.375,4.593V17H38.938Zm-1.484-2.109H37.18a1.557,1.557,0,0,0,1.176-.411,1.59,1.59,0,0,0,.395-1.147,1.608,1.608,0,0,0-.4-1.155,1.542,1.542,0,0,0-1.172-.419H35.445Zm11.664,6.289A4.345,4.345,0,0,1,43.961,16a4.006,4.006,0,0,1-1.2-3.02v-.219a5.191,5.191,0,0,1,.48-2.289,3.516,3.516,0,0,1,1.4-1.535,4.233,4.233,0,0,1,2.188-.543A3.659,3.659,0,0,1,49.641,9.5a4.344,4.344,0,0,1,1.031,3.082V13.6H45.438a1.9,1.9,0,0,0,.617,1.117,1.836,1.836,0,0,0,1.234.406,2.366,2.366,0,0,0,1.953-.875l1.2,1.422a3.363,3.363,0,0,1-1.395,1.082A4.713,4.713,0,0,1,47.109,17.156Zm-.3-6.734q-1.156,0-1.375,1.531h2.656v-.2a1.3,1.3,0,0,0-.32-.98A1.275,1.275,0,0,0,46.813,10.422ZM55,13.867l1.336-5.32h2.773L56.352,17H53.664L50.906,8.547h2.781ZM62.672,17H60.031V8.547h2.641Zm-2.8-10.633a1.175,1.175,0,0,1,.406-.922,1.727,1.727,0,0,1,2.109,0,1.175,1.175,0,0,1,.406.922,1.175,1.175,0,0,1-.406.922,1.727,1.727,0,0,1-2.109,0A1.175,1.175,0,0,1,59.875,6.367Zm8.844,8.258a.608.608,0,0,0-.352-.539,5.348,5.348,0,0,0-1.336-.422,6.092,6.092,0,0,1-1.625-.574,2.722,2.722,0,0,1-.977-.863,2.061,2.061,0,0,1-.336-1.164,2.336,2.336,0,0,1,.961-1.918,3.958,3.958,0,0,1,2.516-.754,4.386,4.386,0,0,1,2.688.758,2.37,2.37,0,0,1,1.016,1.992H68.633q0-1.016-1.07-1.016a1.061,1.061,0,0,0-.7.23.714.714,0,0,0-.281.574.655.655,0,0,0,.344.57,3.248,3.248,0,0,0,1.1.359,9.486,9.486,0,0,1,1.324.336,2.406,2.406,0,0,1,1.906,2.352A2.214,2.214,0,0,1,70.23,16.43a4.505,4.505,0,0,1-2.66.727,4.6,4.6,0,0,1-1.937-.391A3.24,3.24,0,0,1,64.3,15.7a2.406,2.406,0,0,1-.477-1.414h2.461a1.017,1.017,0,0,0,.391.855,1.607,1.607,0,0,0,.961.27,1.264,1.264,0,0,0,.809-.219A.7.7,0,0,0,68.719,14.625ZM75.266,17H72.625V8.547h2.641Zm-2.8-10.633a1.175,1.175,0,0,1,.406-.922,1.727,1.727,0,0,1,2.109,0,1.175,1.175,0,0,1,.406.922,1.175,1.175,0,0,1-.406.922,1.727,1.727,0,0,1-2.109,0A1.175,1.175,0,0,1,72.469,6.367ZM76.555,12.7a4.989,4.989,0,0,1,.492-2.254,3.52,3.52,0,0,1,1.414-1.52,4.259,4.259,0,0,1,2.164-.531,3.887,3.887,0,0,1,2.992,1.176,4.512,4.512,0,0,1,1.094,3.2v.094A4.378,4.378,0,0,1,83.613,16a3.9,3.9,0,0,1-2.973,1.16,3.942,3.942,0,0,1-2.9-1.082,4.232,4.232,0,0,1-1.18-2.934Zm2.633.164a3.145,3.145,0,0,0,.367,1.719,1.223,1.223,0,0,0,1.086.547q1.406,0,1.438-2.164V12.7q0-2.273-1.453-2.273-1.32,0-1.43,1.961ZM80.984,5h2.781L81.594,7.453l-2.148,0Zm7.3,3.547.086.992a2.867,2.867,0,0,1,2.414-1.148,2.412,2.412,0,0,1,1.973.789,3.757,3.757,0,0,1,.676,2.375V17H90.8V11.664a1.426,1.426,0,0,0-.258-.941,1.193,1.193,0,0,0-.937-.3,1.256,1.256,0,0,0-1.148.609V17H85.82V8.547Z" transform="translate(1051.779 9205.796)" fill="#fff"/><g transform="translate(-5.707 -5.159)"><g transform="translate(243.97 9125.602)"><path d="M34.853,51.967H31.2a3.336,3.336,0,0,1-3.344-3.32V47.1a.691.691,0,0,0-.452-.62.706.706,0,0,0-.775.107l-1.106,1.1a3.37,3.37,0,0,1-4.73,0l-2.582-2.563a3.3,3.3,0,0,1,0-4.692l1.106-1.1a.671.671,0,0,0,.121-.741.706.706,0,0,0-.636-.476H17.248A3.336,3.336,0,0,1,13.9,34.8V31.176a3.335,3.335,0,0,1,3.345-3.318H18.8a.694.694,0,0,0,.625-.45.686.686,0,0,0-.11-.768l-1.106-1.1a3.305,3.305,0,0,1,0-4.694L20.8,18.287a3.443,3.443,0,0,1,4.73,0l1.106,1.1a.685.685,0,0,0,.747.119.7.7,0,0,0,.48-.631V17.328a3.336,3.336,0,0,1,3.344-3.32h3.651a3.336,3.336,0,0,1,3.345,3.32v1.545a.688.688,0,0,0,.452.62.7.7,0,0,0,.775-.109l1.106-1.1a3.441,3.441,0,0,1,4.729,0l2.582,2.561a3.305,3.305,0,0,1,0,4.694l-1.106,1.1a.67.67,0,0,0-.119.742.706.706,0,0,0,.635.476h1.556a3.336,3.336,0,0,1,3.345,3.318V34.8a3.336,3.336,0,0,1-3.345,3.32H47.252a.692.692,0,0,0-.624.448.678.678,0,0,0,.109.769l1.106,1.1a3.3,3.3,0,0,1,0,4.692L45.26,47.688a3.368,3.368,0,0,1-4.729,0l-1.106-1.1a.671.671,0,0,0-.746-.118l-.028.011a.7.7,0,0,0-.452.62v1.544a3.34,3.34,0,0,1-3.347,3.32Zm-7.772-8.213a3.487,3.487,0,0,1,1.319.26A3.344,3.344,0,0,1,30.537,47.1v1.544a.662.662,0,0,0,.665.659h3.651a.663.663,0,0,0,.665-.659V47.1a3.337,3.337,0,0,1,2.114-3.079l.076-.031a3.368,3.368,0,0,1,3.611.718l1.106,1.1a.668.668,0,0,0,.94,0l2.582-2.563a.656.656,0,0,0,0-.932l-1.106-1.1a3.3,3.3,0,0,1-.734-3.557l.054-.13a3.349,3.349,0,0,1,3.09-2.07h1.556a.663.663,0,0,0,.665-.659V31.176a.663.663,0,0,0-.665-.659H47.251a3.358,3.358,0,0,1-3.1-2.1,3.315,3.315,0,0,1,.692-3.659l1.106-1.1a.657.657,0,0,0,0-.933l-2.582-2.561a.665.665,0,0,0-.939,0l-1.106,1.1a3.431,3.431,0,0,1-5.8-2.392V17.328a.663.663,0,0,0-.665-.659H31.2a.663.663,0,0,0-.665.659v1.545a3.336,3.336,0,0,1-2.115,3.081,3.381,3.381,0,0,1-3.686-.688l-1.106-1.1a.666.666,0,0,0-.94,0l-2.582,2.561a.657.657,0,0,0,0,.933l1.106,1.1a3.306,3.306,0,0,1,.7,3.636,3.37,3.37,0,0,1-3.113,2.122H17.25a.663.663,0,0,0-.665.659V34.8a.663.663,0,0,0,.665.659h1.556a3.362,3.362,0,0,1,3.1,2.1,3.317,3.317,0,0,1-.693,3.66l-1.106,1.1a.656.656,0,0,0,0,.932l2.582,2.563a.668.668,0,0,0,.94,0l1.106-1.1a3.31,3.31,0,0,1,2.343-.958Z" transform="translate(0.209 -0.432)" fill="#fff"/><path d="M29.958,37.338a7.394,7.394,0,1,1,7.45-7.395A7.431,7.431,0,0,1,29.958,37.338Zm0-12.129a4.735,4.735,0,1,0,4.771,4.734A4.758,4.758,0,0,0,29.958,25.209Z" transform="translate(3.277 2.614)" fill="#fff"/><g transform="translate(0 0)"><path d="M7.681,32.4a1.345,1.345,0,0,1-.194-.014,1.332,1.332,0,0,1-1.134-1.506A29.663,29.663,0,0,1,29.344,6.355a1.33,1.33,0,1,1,.574,2.6A26.984,26.984,0,0,0,9,31.263,1.337,1.337,0,0,1,7.681,32.4Z" transform="translate(-2.488 -3.172)" fill="#fff"/><path d="M29.652,55.8a1.416,1.416,0,0,1-.289-.031A29.565,29.565,0,0,1,6.295,30.67a1.34,1.34,0,0,1,2.66-.33A26.9,26.9,0,0,0,29.94,53.175a1.328,1.328,0,0,1-.288,2.628Z" transform="translate(-2.508 4.977)" fill="#fff"/><path d="M32,56.032a1.329,1.329,0,0,1-.229-2.64,27.065,27.065,0,0,0,22.1-23.052,1.34,1.34,0,0,1,2.66.33,29.754,29.754,0,0,1-24.3,25.344,1.549,1.549,0,0,1-.235.019Z" transform="translate(6.186 4.977)" fill="#fff"/><path d="M55.128,32.463a1.336,1.336,0,0,1-1.324-1.14A26.816,26.816,0,0,0,31.776,8.792a1.33,1.33,0,1,1,.463-2.62,29.474,29.474,0,0,1,24.216,24.77,1.33,1.33,0,0,1-1.133,1.506,1.168,1.168,0,0,1-.194.015Z" transform="translate(6.186 -3.233)" fill="#fff"/><path d="M23.909,14.873a1.337,1.337,0,0,1-1.26-1.784l1.735-4.748-4.9-1.761a1.328,1.328,0,0,1-.8-1.7,1.344,1.344,0,0,1,1.716-.8l6.16,2.214a1.348,1.348,0,0,1,.758.686A1.321,1.321,0,0,1,27.36,8l-2.19,6a1.34,1.34,0,0,1-1.262.878Z" transform="translate(1.883 -4)" fill="#fff"/><path d="M50.938,28.193a1.329,1.329,0,0,1-.662-.175l-5.585-3.161a1.321,1.321,0,0,1-.5-1.814,1.342,1.342,0,0,1,1.827-.5l4.421,2.5,2.583-4.493a1.343,1.343,0,0,1,1.827-.5,1.321,1.321,0,0,1,.5,1.814L52.1,27.521a1.342,1.342,0,0,1-1.165.672Z" transform="translate(10.946 1.664)" fill="#fff"/><path d="M36.31,55.082a1.34,1.34,0,0,1-.86-.311l-5.021-4.177a1.323,1.323,0,0,1-.166-1.873L34.4,43.832a1.351,1.351,0,0,1,1.888-.166,1.324,1.324,0,0,1,.167,1.873L33.18,49.41l3.994,3.324a1.324,1.324,0,0,1,.167,1.873A1.355,1.355,0,0,1,36.31,55.082Z" transform="translate(5.931 10.034)" fill="#fff"/><path d="M4.839,36.717A1.333,1.333,0,0,1,3.756,34.6l3.855-5.257a1.346,1.346,0,0,1,1.872-.292l5.2,3.754a1.326,1.326,0,0,1,.3,1.859,1.348,1.348,0,0,1-1.872.292L8.99,31.987,5.923,36.169a1.339,1.339,0,0,1-1.084.548Z" transform="translate(-3.5 4.843)" fill="#fff"/></g></g><rect width="85" height="76" transform="translate(234.707 9120.159)" fill="none"/></g><g transform="translate(208.293 -5.159)"><rect width="85" height="76" transform="translate(234.707 9120.159)" fill="none"/><g transform="translate(248.059 9128.512)"><path d="M36.271,3.843h7.8V2H35.778a.922.922,0,0,0-.767.41L33.168,5.175,34.7,6.2Z" transform="translate(-2.444)" fill="#fff"/><path d="M26.8,59.8H19v1.843h8.294a.922.922,0,0,0,.767-.41L29.9,58.468l-1.534-1.023Z" transform="translate(-1.333 -4.347)" fill="#fff"/><path d="M39.785,22.275A17.307,17.307,0,0,0,30.7,24.837l-.478-.67a13,13,0,0,0,.535-1.3l3.649-.608a.922.922,0,0,0,.77-.909v-5.53a.922.922,0,0,0-.77-.909l-3.649-.608a12.994,12.994,0,0,0-.535-1.3L32.372,10a.922.922,0,0,0-.1-1.187L28.363,4.9a.922.922,0,0,0-1.187-.1L24.167,6.954a12.994,12.994,0,0,0-1.3-.531l-.608-3.649A.922.922,0,0,0,21.353,2h-5.53a.922.922,0,0,0-.909.77l-.608,3.649a13,13,0,0,0-1.3.535L10,4.805a.922.922,0,0,0-1.187.1L4.9,8.814A.922.922,0,0,0,4.805,10l2.159,3.023a12.214,12.214,0,0,0-.528,1.28l-3.667.611a.922.922,0,0,0-.77.909v5.53a.922.922,0,0,0,.77.909l3.666.611a13.685,13.685,0,0,0,.519,1.29L4.805,27.176a.922.922,0,0,0,.1,1.187l3.91,3.91a.922.922,0,0,0,1.187.1l3.009-2.149a12.994,12.994,0,0,0,1.3.535l.608,3.649a.922.922,0,0,0,.909.77h5.53a.922.922,0,0,0,.909-.77l.608-3.649a12.993,12.993,0,0,0,1.3-.535l.67.478a17.307,17.307,0,0,0-2.562,9.084,17.51,17.51,0,1,0,17.51-17.51ZM23.812,28.336a11.028,11.028,0,0,1-2.027.837.922.922,0,0,0-.645.731l-.567,3.43H16.6l-.571-3.43a.922.922,0,0,0-.645-.731,11.028,11.028,0,0,1-2.027-.837.922.922,0,0,0-.971.062L9.56,30.418l-2.8-2.805,2.02-2.829a.922.922,0,0,0,.062-.971,12.452,12.452,0,0,1-.851-2.069.922.922,0,0,0-.716-.6l-3.431-.571V16.6l3.43-.571a.922.922,0,0,0,.716-.6,15.114,15.114,0,0,1,.873-2.11.922.922,0,0,0-.083-.931L6.759,9.564,9.564,6.759l2.829,2.02a.922.922,0,0,0,.971.062A11.028,11.028,0,0,1,15.393,8a.922.922,0,0,0,.645-.731l.567-3.43h3.968l.571,3.43A.922.922,0,0,0,21.789,8a11.028,11.028,0,0,1,2.027.837.922.922,0,0,0,.971-.062l2.829-2.02,2.805,2.805L28.4,12.394a.922.922,0,0,0-.062.971,11.028,11.028,0,0,1,.837,2.027.922.922,0,0,0,.731.645l3.43.571v3.968l-3.43.571a.922.922,0,0,0-.731.645,11.028,11.028,0,0,1-.837,2.027.922.922,0,0,0,.062.971l2.02,2.829-2.805,2.805-2.829-2.02A.922.922,0,0,0,23.812,28.336ZM40.707,55.405V52.687H38.864v2.718a15.662,15.662,0,0,1-14.7-14.7h2.718V38.864H24.152a15.435,15.435,0,0,1,2.186-7.09l.838.6a.922.922,0,0,0,1.187-.1l3.91-3.91a.922.922,0,0,0,.1-1.187l-.6-.838a15.435,15.435,0,0,1,7.09-2.186v2.731h1.843V24.165a15.662,15.662,0,0,1,14.7,14.7H52.687v1.843h2.718A15.662,15.662,0,0,1,40.707,55.405Z" fill="#fff"/><path d="M43.843,31H42V42.059a.922.922,0,0,0,.922.922h7.373V41.137H43.843Z" transform="translate(-3.136 -2.274)" fill="#fff"/><path d="M24.138,16.451H20.451v-5.53a.922.922,0,0,0-1.76-.382L14.083,20.678a.922.922,0,0,0,.839,1.3h3.686v5.53a.922.922,0,0,0,.726.9.945.945,0,0,0,.2.02.922.922,0,0,0,.839-.54l4.608-10.137a.922.922,0,0,0-.839-1.3Zm-3.686,6.8v-2.2a.922.922,0,0,0-.922-.922H16.353l2.255-4.961v2.2a.922.922,0,0,0,.922.922h3.177Z" transform="translate(-0.941 -0.627)" fill="#fff"/><rect width="2" height="2" transform="translate(17.648 5.647)" fill="#fff"/><rect width="1.843" height="1.843" transform="translate(8.814 10.117) rotate(-45)" fill="#fff"/><rect width="2" height="2" transform="translate(5.648 17.647)" fill="#fff"/><rect width="1.843" height="1.843" transform="translate(8.813 27.059) rotate(-45)" fill="#fff"/><rect width="2" height="2" transform="translate(17.648 29.647)" fill="#fff"/><rect width="1.843" height="1.843" transform="translate(25.756 27.06) rotate(-45)" fill="#fff"/><rect width="2" height="2" transform="translate(29.648 17.647)" fill="#fff"/><rect width="1.843" height="1.843" transform="translate(25.757 10.118) rotate(-45)" fill="#fff"/><path d="M52.686,7a3.686,3.686,0,1,0,3.686,3.686A3.686,3.686,0,0,0,52.686,7Zm0,5.53a1.843,1.843,0,1,1,1.843-1.843A1.843,1.843,0,0,1,52.686,12.53Z" transform="translate(-3.685 -0.392)" fill="#fff"/><path d="M59.891,7.557,59.274,7.4l.327-.545a.922.922,0,0,0-.139-1.126L56.856,3.126a.922.922,0,0,0-1.126-.139l-.545.327L55.031,2.7a.922.922,0,0,0-.894-.7H50.451a.922.922,0,0,0-.894.7l-.154.617-.545-.327a.922.922,0,0,0-1.126.139L45.126,5.732a.922.922,0,0,0-.139,1.126l.327.545-.617.154a.922.922,0,0,0-.7.894v3.686a.922.922,0,0,0,.7.894l.617.154-.327.545a.922.922,0,0,0,.139,1.126l2.606,2.606a.922.922,0,0,0,1.126.139l.545-.327.154.617a.922.922,0,0,0,.894.7h3.686a.922.922,0,0,0,.894-.7l.154-.617.545.327a.922.922,0,0,0,1.126-.139l2.606-2.606A.922.922,0,0,0,59.6,13.73l-.327-.545.617-.154a.922.922,0,0,0,.7-.894V8.451a.922.922,0,0,0-.7-.894Zm-1.146,3.861-1.125.276a.922.922,0,0,0-.566,1.369l.6.994-1.589,1.589-.994-.6a.922.922,0,0,0-1.369.566l-.281,1.13H51.171l-.276-1.125a.922.922,0,0,0-1.369-.566l-.994.6-1.589-1.589.6-.994a.922.922,0,0,0-.566-1.369l-1.13-.281V9.171l1.125-.276a.922.922,0,0,0,.566-1.369l-.6-.994,1.589-1.589.994.6a.922.922,0,0,0,1.369-.567l.276-1.124h2.247l.276,1.124a.922.922,0,0,0,1.369.567l.994-.6,1.589,1.589-.6.994a.922.922,0,0,0,.566,1.369l1.125.276Z" transform="translate(-3.293)" fill="#fff"/><path d="M10.686,49a3.686,3.686,0,1,0,3.686,3.686A3.686,3.686,0,0,0,10.686,49Zm0,5.53a1.843,1.843,0,1,1,1.843-1.843A1.843,1.843,0,0,1,10.686,54.53Z" transform="translate(-0.392 -3.685)" fill="#fff"/><path d="M17.6,55.73l-.327-.545.617-.154a.922.922,0,0,0,.7-.894V50.451a.922.922,0,0,0-.7-.894l-.617-.154.327-.545a.922.922,0,0,0-.139-1.126l-2.606-2.606a.922.922,0,0,0-1.126-.139l-.545.327-.154-.617a.922.922,0,0,0-.894-.7H8.451a.922.922,0,0,0-.894.7l-.154.617-.545-.327a.922.922,0,0,0-1.126.139L3.126,47.732a.922.922,0,0,0-.139,1.126l.327.545-.617.154a.922.922,0,0,0-.7.894v3.686a.922.922,0,0,0,.7.894l.617.154-.327.545a.922.922,0,0,0,.139,1.126l2.606,2.606a.922.922,0,0,0,1.126.139l.545-.327.154.617a.922.922,0,0,0,.894.7h3.686a.922.922,0,0,0,.894-.7l.154-.617.545.327a.922.922,0,0,0,1.126-.139l2.606-2.606A.922.922,0,0,0,17.6,55.73Zm-.856-2.312-1.125.276a.922.922,0,0,0-.566,1.369l.6.994-1.589,1.589-.994-.6a.922.922,0,0,0-1.369.566l-.281,1.13H9.171L8.894,57.62a.922.922,0,0,0-1.369-.566l-.994.6L4.938,56.062l.6-.994A.922.922,0,0,0,4.968,53.7l-1.125-.281V51.171l1.125-.276a.922.922,0,0,0,.566-1.369l-.6-.994,1.589-1.589.994.6a.922.922,0,0,0,1.369-.567l.276-1.124h2.247l.276,1.124a.922.922,0,0,0,1.369.567l.994-.6,1.589,1.589-.6.994a.922.922,0,0,0,.566,1.369l1.125.276Z" transform="translate(0 -3.293)" fill="#fff"/></g></g><g transform="translate(414.293 -5.159)"><rect width="85" height="76" transform="translate(234.707 9120.159)" fill="none"/><g transform="translate(248.815 9120.744)"><g transform="translate(0 9.727)"><path d="M161.807,182.17h-15.55a5.1,5.1,0,0,0-5.1,5.1v6.453a5.1,5.1,0,0,0,5.1,5.1h15.55a5.1,5.1,0,0,0,5.1-5.1v-6.453A5.1,5.1,0,0,0,161.807,182.17Zm2.847,11.548a2.85,2.85,0,0,1-2.847,2.846h-15.55a2.85,2.85,0,0,1-2.847-2.846v-6.453a2.85,2.85,0,0,1,2.847-2.847h15.55a2.85,2.85,0,0,1,2.847,2.847Z" transform="translate(-125.292 -162.783)" fill="#fff"/><path d="M161.807,354.234h-15.55a5.1,5.1,0,0,0-5.1,5.1v6.453a5.1,5.1,0,0,0,5.1,5.1h15.55a5.1,5.1,0,0,0,5.1-5.1v-6.453A5.1,5.1,0,0,0,161.807,354.234Zm2.847,11.548a2.85,2.85,0,0,1-2.847,2.847h-15.55a2.85,2.85,0,0,1-2.847-2.847v-6.453a2.85,2.85,0,0,1,2.847-2.847h15.55a2.85,2.85,0,0,1,2.847,2.847Z" transform="translate(-125.292 -315.502)" fill="#fff"/><path d="M161.807,9.727h-2.675a1.124,1.124,0,1,0,0,2.249h2.675a2.85,2.85,0,0,1,2.847,2.847v6.453a2.85,2.85,0,0,1-2.847,2.847h-15.55a2.85,2.85,0,0,1-2.847-2.847V14.822a2.85,2.85,0,0,1,2.847-2.847h2.969a1.124,1.124,0,1,0,0-2.249h-2.969a5.1,5.1,0,0,0-5.1,5.1v6.453a5.1,5.1,0,0,0,5.1,5.1h15.55a5.1,5.1,0,0,0,5.1-5.1V14.822A5.1,5.1,0,0,0,161.807,9.727Z" transform="translate(-125.292 -9.727)" fill="#fff"/><path d="M396.43,246.188h-3.5a1.124,1.124,0,0,0,0,2.249h3.5a6.644,6.644,0,0,1,6.637,6.637V258.9a6.644,6.644,0,0,1-6.637,6.637h-.79l1.173-1.173a1.124,1.124,0,0,0-1.59-1.59l-3.092,3.092a1.137,1.137,0,0,0,0,1.59l3.092,3.092a1.124,1.124,0,0,0,1.59-1.59l-1.173-1.173h.79a8.9,8.9,0,0,0,8.885-8.885v-3.823A8.9,8.9,0,0,0,396.43,246.188Z" transform="translate(-347.753 -219.603)" fill="#fff"/><path d="M8.885,96.967h.79L8.5,98.14a1.124,1.124,0,0,0,0,1.59,1.141,1.141,0,0,0,1.59,0l3.092-3.093a1.139,1.139,0,0,0,0-1.59l-3.092-3.093a1.124,1.124,0,0,0-1.59,1.59l1.173,1.173h-.79a6.644,6.644,0,0,1-6.637-6.637V84.259a6.644,6.644,0,0,1,6.637-6.637h3.5a1.124,1.124,0,0,0,0-2.249h-3.5A8.9,8.9,0,0,0,0,84.259v3.823A8.9,8.9,0,0,0,8.885,96.967Z" transform="translate(0 -67.994)" fill="#fff"/><path d="M30.064,393.84H23.721l1.173-1.173a1.124,1.124,0,0,0-1.59-1.59l-3.092,3.092a1.139,1.139,0,0,0,0,1.59l3.092,3.093a1.141,1.141,0,0,0,1.59,0,1.124,1.124,0,0,0,0-1.59l-1.173-1.173h6.343a1.124,1.124,0,1,0,0-2.248Z" transform="translate(-17.652 -347.91)" fill="#fff"/><path d="M391.872,44.556a1.135,1.135,0,0,0,.1,1.478l3.093,3.093a1.124,1.124,0,1,0,1.59-1.59l-1.173-1.173h6.343a1.124,1.124,0,1,0,0-2.249h-6.343l1.173-1.173a1.124,1.124,0,1,0-1.59-1.59l-3.093,3.092A1.171,1.171,0,0,0,391.872,44.556Z" transform="translate(-347.612 -37.504)" fill="#fff"/><path d="M190.722,74.87a1.124,1.124,0,0,0,1.124,1.124h12.478a1.124,1.124,0,0,0,0-2.249H191.846A1.124,1.124,0,0,0,190.722,74.87Z" transform="translate(-169.28 -66.549)" fill="#fff"/><path d="M199.4,246.188h-7.551a1.124,1.124,0,1,0,0,2.249H199.4a1.124,1.124,0,0,0,0-2.249Z" transform="translate(-169.28 -219.603)" fill="#fff"/><path d="M204.324,418.632H191.846a1.124,1.124,0,1,0,0,2.249h12.478a1.124,1.124,0,1,0,0-2.249Z" transform="translate(-169.28 -372.66)" fill="#fff"/><path d="M303.883,246.937a1.124,1.124,0,1,0-.455,1.391A1.133,1.133,0,0,0,303.883,246.937Z" transform="translate(-267.801 -219.667)" fill="#fff"/><path d="M247.618,11.3a1.123,1.123,0,1,0,.608-1.468A1.134,1.134,0,0,0,247.618,11.3Z" transform="translate(-219.704 -9.746)" fill="#fff"/></g></g></g><g transform="translate(628.293 -5.159)"><rect width="85" height="76" transform="translate(234.707 9120.159)" fill="none"/><g transform="translate(213.986 9130.224)"><g transform="translate(51.146 39.94)"><g transform="translate(0)"><path d="M138.787,344h-1.858a.929.929,0,0,0,0,1.858h1.858a.929.929,0,0,0,0-1.858Z" transform="translate(-136 -344)" fill="#fff"/></g></g><g transform="translate(56.719 39.94)"><path d="M207.221,344H184.929a.929.929,0,0,0,0,1.858h22.292a.929.929,0,0,0,0-1.858Z" transform="translate(-184 -344)" fill="#fff"/></g><g transform="translate(51.146 34.367)"><g transform="translate(0)"><path d="M138.787,296h-1.858a.929.929,0,0,0,0,1.858h1.858a.929.929,0,0,0,0-1.858Z" transform="translate(-136 -296)" fill="#fff"/></g></g><g transform="translate(56.719 34.367)"><path d="M207.221,296H184.929a.929.929,0,0,0,0,1.858h22.292a.929.929,0,0,0,0-1.858Z" transform="translate(-184 -296)" fill="#fff"/></g><g transform="translate(51.146 28.794)"><g transform="translate(0)"><path d="M138.787,248h-1.858a.929.929,0,0,0,0,1.858h1.858a.929.929,0,0,0,0-1.858Z" transform="translate(-136 -248)" fill="#fff"/></g></g><g transform="translate(56.719 28.794)"><path d="M207.221,248H184.929a.929.929,0,0,0,0,1.858h22.292a.929.929,0,0,0,0-1.858Z" transform="translate(-184 -248)" fill="#fff"/></g><g transform="translate(51.146 23.221)"><g transform="translate(0)"><path d="M138.787,200h-1.858a.929.929,0,0,0,0,1.858h1.858a.929.929,0,0,0,0-1.858Z" transform="translate(-136 -200)" fill="#fff"/></g></g><g transform="translate(56.719 23.221)"><path d="M207.221,200H184.929a.929.929,0,0,0,0,1.858h22.292a.929.929,0,0,0,0-1.858Z" transform="translate(-184 -200)" fill="#fff"/></g><g transform="translate(51.146 17.648)"><g transform="translate(0)"><path d="M138.787,152h-1.858a.929.929,0,0,0,0,1.858h1.858a.929.929,0,0,0,0-1.858Z" transform="translate(-136 -152)" fill="#fff"/></g></g><g transform="translate(56.719 17.648)"><path d="M207.221,152H184.929a.929.929,0,0,0,0,1.858h22.292a.929.929,0,0,0,0-1.858Z" transform="translate(-184 -152)" fill="#fff"/></g><g transform="translate(40)"><g transform="translate(0)"><path d="M86.43,13.874a.878.878,0,0,0-.047-.239c-.01-.03-.018-.059-.031-.087a.929.929,0,0,0-.186-.272l-13-13A.929.929,0,0,0,72.89.086c-.029-.013-.058-.02-.086-.031a.925.925,0,0,0-.241-.048C72.547.01,72.53,0,72.509,0H46.5a.929.929,0,0,0-.929.929V3.715H40.929A.929.929,0,0,0,40,4.644V54.8a.929.929,0,0,0,.929.929H79.94a.929.929,0,0,0,.929-.929V50.157h4.644a.929.929,0,0,0,.929-.929v-35.3C86.442,13.912,86.432,13.894,86.43,13.874ZM73.438,3.171,83.271,13H73.438Zm5.573,50.7H41.858V5.573h3.715V49.228a.929.929,0,0,0,.929.929H79.011ZM84.584,48.3H47.431V1.858H71.58V13.933a.929.929,0,0,0,.929.929H84.584Z" transform="translate(-40)" fill="#fff"/></g></g><g transform="translate(51.146 8.36)"><g transform="translate(0)"><path d="M142.5,72h-5.573a.929.929,0,0,0-.929.929V78.5a.929.929,0,0,0,.929.929H142.5a.929.929,0,0,0,.929-.929V72.929A.929.929,0,0,0,142.5,72Zm-.929,5.573h-3.715V73.858h3.715Z" transform="translate(-136 -72)" fill="#fff"/></g></g></g></g><g transform="translate(838.293 -5.159)"><rect width="85" height="76" transform="translate(234.707 9120.159)" fill="none"/><g transform="translate(246.198 9110.05)"><g transform="translate(0 20)"><path d="M54.66,20H35.612a1.183,1.183,0,1,0,0,2.366H54.66a3.553,3.553,0,0,1,3.549,3.549V53.036H35.018a14.274,14.274,0,1,0-23.785-2.455L8.688,53.127H2.366V25.916a3.553,3.553,0,0,1,3.549-3.549H24.964a1.183,1.183,0,0,0,0-2.366H5.916A5.922,5.922,0,0,0,0,25.916V58.1a5.94,5.94,0,0,0,.813,2.991,4.363,4.363,0,0,0,6.635,5.621l2.7-2.7H21.587l-1.1,4.259H19.166a3.786,3.786,0,1,0,0,7.572H41.409a3.786,3.786,0,1,0,0-7.572H40.092l-1.1-4.259H54.66A5.922,5.922,0,0,0,60.575,58.1V25.916A5.922,5.922,0,0,0,54.66,20ZM23.929,32.147a11.91,11.91,0,1,1-11.91,11.91A11.923,11.923,0,0,1,23.929,32.147ZM6.322,55.493,2.559,59.256a3.544,3.544,0,0,1-.193-1.16v-2.6Zm-.547,9.541a2,2,0,1,1-2.824-2.824l9.575-9.575A14.394,14.394,0,0,0,15.35,55.46Zm37.054,7.022a1.421,1.421,0,0,1-1.42,1.42H19.166a1.42,1.42,0,1,1,0-2.839H41.409A1.421,1.421,0,0,1,42.829,72.057Zm-5.181-3.786H22.928l1.1-4.259H36.545ZM54.66,61.646H12.51L17.4,56.752A14.25,14.25,0,0,0,32.583,55.4H58.209V58.1A3.553,3.553,0,0,1,54.66,61.646Z" transform="translate(0 -20)" fill="#fff"/><path d="M131.922,183.384a10.465,10.465,0,0,0,9.3-5.644,1.183,1.183,0,0,0,0-1.095,10.489,10.489,0,0,0-18.606,0,1.183,1.183,0,0,0,0,1.095A10.465,10.465,0,0,0,131.922,183.384Zm0-8.124a1.932,1.932,0,1,1-1.932,1.932A1.935,1.935,0,0,1,131.922,175.26Zm6.893,1.932a8.1,8.1,0,0,1-4.246,3.384,4.291,4.291,0,0,0,0-6.768A8.1,8.1,0,0,1,138.814,177.193Zm-9.539-3.384a4.291,4.291,0,0,0,0,6.768,8.1,8.1,0,0,1-4.247-3.384A8.1,8.1,0,0,1,129.276,173.809Z" transform="translate(-107.993 -153.136)" fill="#fff"/><path d="M347.4,134.34a1.183,1.183,0,0,0,1.183,1.183h11.9a1.183,1.183,0,0,0,0-2.366h-11.9A1.183,1.183,0,0,0,347.4,134.34Z" transform="translate(-306.295 -119.769)" fill="#fff"/><path d="M398.141,87.523a1.183,1.183,0,0,0,0-2.366h-6.849a1.183,1.183,0,1,0,0,2.366Z" transform="translate(-343.955 -77.448)" fill="#fff"/><path d="M347.742,85.16a1.186,1.186,0,1,0,.836.347A1.192,1.192,0,0,0,347.742,85.16Z" transform="translate(-305.558 -77.451)" fill="#fff"/><path d="M450.019,183.18a1.182,1.182,0,1,0-.836.347A1.192,1.192,0,0,0,450.019,183.18Z" transform="translate(-394.997 -162.094)" fill="#fff"/><path d="M398.883,183.526a1.184,1.184,0,1,0-.836-.347A1.191,1.191,0,0,0,398.883,183.526Z" transform="translate(-350.648 -162.093)" fill="#fff"/><path d="M349.42,183.18a1.184,1.184,0,1,0-.836.347A1.191,1.191,0,0,0,349.42,183.18Z" transform="translate(-306.299 -162.094)" fill="#fff"/><path d="M348.579,231.523h3.8a1.183,1.183,0,0,0,0-2.366h-3.8a1.183,1.183,0,1,0,0,2.366Z" transform="translate(-306.295 -204.411)" fill="#fff"/><path d="M423.5,230.34a1.183,1.183,0,0,0,1.183,1.183h3.9a1.183,1.183,0,1,0,0-2.366h-3.9A1.183,1.183,0,0,0,423.5,230.34Z" transform="translate(-373.395 -204.411)" fill="#fff"/><path d="M247.183,22.366a1.184,1.184,0,1,0-.836-.347A1.191,1.191,0,0,0,247.183,22.366Z" transform="translate(-216.895 -20)" fill="#fff"/></g></g></g><g transform="translate(1048.293 -5.159)"><rect width="85" height="76" transform="translate(234.707 9120.159)" fill="none"/><g transform="translate(250.039 9130.099)"><g transform="translate(-0.005 0.005)"><path d="M52.625,32.606a2.71,2.71,0,0,0-2.38,1.434,7.228,7.228,0,0,1-3.847-2.38,17.517,17.517,0,0,0-2.569-2.925c-1.055-.975-1.667-1.528-2.072-1.878a20.826,20.826,0,1,0-20.33,14.8,3.629,3.629,0,0,0,1.282,1.3,3.583,3.583,0,0,0,1.56,5.739,3.623,3.623,0,0,0,3,5.651H40.85c3.681,0,5.706,0,8.654-1.964.4-.272.775-.5,1.141-.715a2.709,2.709,0,0,0,4.7-1.849V35.323a2.717,2.717,0,0,0-2.717-2.717ZM2.811,20.832a19.02,19.02,0,1,1,37.414,4.826c-.062-.05-.118-.091-.191-.156a4.689,4.689,0,0,1-1.268-1.721,16.655,16.655,0,0,0,.274-2.949,17.208,17.208,0,1,0-17.6,17.188,3.585,3.585,0,0,0-.51,1.786A19.027,19.027,0,0,1,2.811,20.832ZM33.6,30.785l-7.246.009a3.645,3.645,0,0,0-2.627,1.13,3.587,3.587,0,0,0-.99,2.687,3.463,3.463,0,0,0,.475,1.546c-.462.042-.926.071-1.386.071A15.4,15.4,0,1,1,37.149,19.275a3.61,3.61,0,0,0-6.256,2.238c-.257,3.79.8,6.269,2.712,9.273ZM48.5,50.872c-2.49,1.659-4.106,1.659-7.652,1.659H27.265a1.811,1.811,0,0,1,0-3.623h.906a.906.906,0,0,0,0-1.811H25.453a1.811,1.811,0,1,1,0-3.623h2.717a.906.906,0,0,0,0-1.811H24.548a1.811,1.811,0,1,1,0-3.623h3.623a.906.906,0,0,0,0-1.811H26.513a1.926,1.926,0,0,1-1.965-1.714,1.811,1.811,0,0,1,1.811-1.909L33.6,32.6A1.812,1.812,0,0,0,35.13,29.81c-1.752-2.748-2.658-4.865-2.433-8.178a1.811,1.811,0,0,1,3.613-.1A8.209,8.209,0,0,0,38.881,26.9a12.19,12.19,0,0,0,.969.747,27.4,27.4,0,0,1,2.746,2.41,16.031,16.031,0,0,1,2.341,2.667,9.13,9.13,0,0,0,4.97,3.1V49.814c0,.06.014.116.017.175-.453.264-.923.55-1.422.883Zm5.028-1.058a.906.906,0,1,1-1.811,0V35.323a.906.906,0,1,1,1.811,0Z" transform="translate(-0.995 -0.005)" fill="#fff"/><path d="M32.661,15.265a.906.906,0,0,0-1.281,0L18.435,28.211l-3.888-3.888A.906.906,0,0,0,13.267,25.6L17.8,30.132a.906.906,0,0,0,1.281,0L32.661,16.546a.906.906,0,0,0,0-1.281Z" transform="translate(-2.128 -1.419)" fill="#fff"/></g></g></g><g transform="translate(241.65 9283.578)"><g clip-path="url(#b)"><g clip-path="url(#c)"><g opacity="0.39"><g clip-path="url(#c)"><path d="M60.48,30.24A30.24,30.24,0,1,1,30.24,0,30.24,30.24,0,0,1,60.48,30.24" fill="#ffb500"/></g></g><g opacity="0.36"><g clip-path="url(#e)"><path d="M52.08,30.24A21.84,21.84,0,1,1,30.24,8.4,21.84,21.84,0,0,1,52.08,30.24" fill="#ffb500"/></g></g><path d="M45.36,30.24A15.12,15.12,0,1,1,30.24,15.12,15.119,15.119,0,0,1,45.36,30.24" fill="#ffb500"/></g><text transform="translate(23.747 37.841)" fill="#01074e" font-size="22.428" font-family="Roboto-Bold, Roboto" font-weight="700"><tspan x="0" y="0">+</tspan></text></g></g><g transform="translate(661.65 9283.578)"><g clip-path="url(#b)"><g clip-path="url(#c)"><g opacity="0.39"><g clip-path="url(#c)"><path d="M60.48,30.24A30.24,30.24,0,1,1,30.24,0,30.24,30.24,0,0,1,60.48,30.24" fill="#ffb500"/></g></g><g opacity="0.36"><g clip-path="url(#e)"><path d="M52.08,30.24A21.84,21.84,0,1,1,30.24,8.4,21.84,21.84,0,0,1,52.08,30.24" fill="#ffb500"/></g></g><path d="M45.36,30.24A15.12,15.12,0,1,1,30.24,15.12,15.119,15.119,0,0,1,45.36,30.24" fill="#ffb500"/></g><text transform="translate(23.747 37.841)" fill="#01074e" font-size="22.428" font-family="Roboto-Bold, Roboto" font-weight="700"><tspan x="0" y="0">+</tspan></text></g></g><g transform="translate(1081.65 9283.578)"><g clip-path="url(#b)"><g clip-path="url(#c)"><g opacity="0.39"><g clip-path="url(#c)"><path d="M60.48,30.24A30.24,30.24,0,1,1,30.24,0,30.24,30.24,0,0,1,60.48,30.24" fill="#ffb500"/></g></g><g opacity="0.36"><g clip-path="url(#e)"><path d="M52.08,30.24A21.84,21.84,0,1,1,30.24,8.4,21.84,21.84,0,0,1,52.08,30.24" fill="#ffb500"/></g></g><path d="M45.36,30.24A15.12,15.12,0,1,1,30.24,15.12,15.119,15.119,0,0,1,45.36,30.24" fill="#ffb500"/></g><text transform="translate(23.747 37.841)" fill="#01074e" font-size="22.428" font-family="Roboto-Bold, Roboto" font-weight="700"><tspan x="0" y="0">+</tspan></text></g></g><g transform="translate(451.65 8995.623)"><g clip-path="url(#b)"><g clip-path="url(#c)"><g opacity="0.39"><g clip-path="url(#c)"><path d="M60.48,30.24A30.24,30.24,0,1,1,30.24,0,30.24,30.24,0,0,1,60.48,30.24" fill="#ffb500"/></g></g><g opacity="0.36"><g clip-path="url(#e)"><path d="M52.08,30.24A21.84,21.84,0,1,1,30.24,8.4,21.84,21.84,0,0,1,52.08,30.24" fill="#ffb500"/></g></g><path d="M45.36,30.24A15.12,15.12,0,1,1,30.24,15.12,15.119,15.119,0,0,1,45.36,30.24" fill="#ffb500"/></g><text transform="translate(23.747 37.841)" fill="#01074e" font-size="22.428" font-family="Roboto-Bold, Roboto" font-weight="700"><tspan x="0" y="0">+</tspan></text></g></g><g transform="translate(873.539 8995.623)"><g clip-path="url(#b)"><g clip-path="url(#c)"><g opacity="0.39"><g clip-path="url(#c)"><path d="M60.48,30.24A30.24,30.24,0,1,1,30.24,0,30.24,30.24,0,0,1,60.48,30.24" fill="#ffb500"/></g></g><g opacity="0.36"><g clip-path="url(#e)"><path d="M52.08,30.24A21.84,21.84,0,1,1,30.24,8.4,21.84,21.84,0,0,1,52.08,30.24" fill="#ffb500"/></g></g><path d="M45.36,30.24A15.12,15.12,0,1,1,30.24,15.12,15.119,15.119,0,0,1,45.36,30.24" fill="#ffb500"/></g><text transform="translate(23.747 37.841)" fill="#01074e" font-size="22.428" font-family="Roboto-Bold, Roboto" font-weight="700"><tspan x="0" y="0">+</tspan></text></g></g><g transform="translate(1295.429 8995.623)"><g clip-path="url(#b)"><g clip-path="url(#c)"><g opacity="0.39"><g clip-path="url(#c)"><path d="M60.48,30.24A30.24,30.24,0,1,1,30.24,0,30.24,30.24,0,0,1,60.48,30.24" fill="#ffb500"/></g></g><g opacity="0.36"><g clip-path="url(#e)"><path d="M52.08,30.24A21.84,21.84,0,1,1,30.24,8.4,21.84,21.84,0,0,1,52.08,30.24" fill="#ffb500"/></g></g><path d="M45.36,30.24A15.12,15.12,0,1,1,30.24,15.12,15.119,15.119,0,0,1,45.36,30.24" fill="#ffb500"/></g><text transform="translate(23.747 37.841)" fill="#01074e" font-size="22.428" font-family="Roboto-Bold, Roboto" font-weight="700"><tspan x="0" y="0">+</tspan></text></g></g></g></svg>